<svg xmlns="http://www.w3.org/2000/svg" xmlns:xlink="http://www.w3.org/1999/xlink" width="500" zoomAndPan="magnify" viewBox="0 0 375 374.999991" height="500" preserveAspectRatio="xMidYMid meet" version="1.0"><defs><clipPath id="924253bf61"><path d="M 0 87.734375 L 375 87.734375 L 375 287.234375 L 0 287.234375 Z M 0 87.734375 " clip-rule="nonzero"/></clipPath></defs><g clip-path="url(#924253bf61)"><path fill="#1a1a1a" d="M 323.570312 164.152344 C 324.882812 164.652344 326.265625 164.871094 327.667969 164.820312 C 327.683594 163.414062 328.1875 162.070312 328.277344 161.835938 C 328.289062 161.808594 328.300781 161.78125 328.316406 161.757812 C 331.910156 155.28125 334.253906 146.445312 334.589844 138.113281 C 334.96875 128.679688 332.746094 120.875 328.332031 116.136719 C 327.628906 115.386719 326.5625 115.054688 325.539062 115.265625 C 322.339844 115.9375 319.535156 118.109375 317.425781 121.542969 C 313.046875 128.683594 312.148438 140.464844 315.132812 151.566406 C 316.371094 156.152344 318.605469 159.332031 320.265625 161.195312 C 321.890625 163.023438 323.300781 163.976562 323.570312 164.152344 Z M 185.132812 107.992188 C 139.59375 107.992188 101.953125 144.992188 101.214844 190.511719 C 100.964844 205.734375 104.734375 220.378906 112.042969 233.246094 C 117.394531 229.328125 125.144531 220.832031 122.015625 205.691406 C 121.070312 201.328125 120.570312 196.824219 120.546875 192.316406 C 120.488281 183.613281 122.167969 175.136719 125.535156 167.132812 C 128.785156 159.402344 133.445312 152.449219 139.398438 146.460938 C 145.351562 140.476562 152.277344 135.769531 159.980469 132.476562 C 167.96875 129.0625 176.429688 127.328125 185.132812 127.328125 C 193.859375 127.328125 202.324219 129.035156 210.289062 132.402344 C 215.949219 134.792969 221.179688 137.941406 225.914062 141.796875 L 225.542969 139.109375 C 225.507812 138.871094 225.601562 138.640625 225.785156 138.492188 C 225.96875 138.34375 226.21875 138.296875 226.441406 138.378906 C 226.457031 138.382812 228.371094 139.046875 231.617188 139.253906 C 234.605469 139.449219 239.375 139.285156 245.101562 137.40625 C 245.769531 137.1875 246.269531 136.652344 246.4375 135.972656 C 246.609375 135.289062 246.425781 134.578125 245.9375 134.066406 C 229.957031 117.277344 208.390625 108.015625 185.21875 107.992188 C 185.191406 107.992188 185.160156 107.992188 185.132812 107.992188 Z M 214.539062 146.761719 C 214.199219 146.761719 213.851562 146.765625 213.5 146.777344 C 208.738281 146.933594 200.613281 149.359375 191.773438 153.273438 C 181.761719 157.699219 171.757812 163.59375 163.59375 169.871094 C 145.683594 183.640625 135.792969 194.738281 132.472656 204.785156 C 131.171875 208.71875 130.3125 212.761719 129.917969 216.792969 C 129.566406 220.320312 130.445312 223.867188 132.375 226.785156 C 144.136719 244.539062 163.859375 255.136719 185.132812 255.136719 C 220 255.136719 248.363281 226.773438 248.363281 191.914062 C 248.363281 175.003906 241.792969 159.121094 229.859375 147.1875 C 229.164062 146.496094 228.460938 145.820312 227.738281 145.164062 L 228.347656 149.578125 C 228.386719 149.855469 228.25 150.125 228.007812 150.261719 C 227.761719 150.398438 227.460938 150.371094 227.246094 150.195312 C 227.234375 150.183594 226.085938 149.253906 223.828125 148.375 C 221.898438 147.617188 218.769531 146.761719 214.539062 146.761719 Z M 38.851562 269.421875 C 39.660156 270.679688 41.445312 272.257812 45.285156 272.257812 C 47.503906 272.257812 49.214844 271.496094 50.390625 269.980469 C 48.867188 270.484375 47.320312 270.707031 45.753906 270.636719 C 42.421875 270.5 40.203125 269.929688 38.851562 269.421875 Z M 319.96875 262.960938 C 319.914062 263.425781 319.863281 263.886719 319.820312 264.335938 C 319.582031 266.960938 320.121094 269.027344 321.4375 270.460938 C 323.292969 272.5 326.207031 272.804688 327.777344 272.804688 C 329.628906 272.804688 332.234375 272.082031 333.996094 270.058594 C 334.394531 269.601562 334.726562 269.109375 334.992188 268.578125 C 333.285156 269.855469 331.320312 271.265625 326.6875 270.84375 C 324.898438 270.683594 323.410156 269.898438 322.265625 268.511719 C 321.007812 266.996094 320.328125 264.945312 319.96875 262.960938 Z M 111.652344 235.238281 C 109.972656 236.816406 109.632812 239.464844 110.953125 241.449219 C 129.421875 269.191406 161.464844 284.226562 194.578125 280.695312 C 243.304688 275.496094 278.789062 231.625 273.683594 182.898438 C 272.089844 167.679688 266.710938 153.738281 258.582031 141.914062 C 257.335938 142.132812 256.015625 142.25 254.613281 142.25 C 254.546875 142.25 254.480469 142.25 254.414062 142.25 C 259.300781 149.492188 263.128906 157.074219 265.796875 164.808594 C 268.855469 173.667969 270.410156 182.777344 270.410156 191.878906 C 270.429688 238.882812 232.199219 277.148438 185.195312 277.179688 C 185.171875 277.179688 185.148438 277.179688 185.128906 277.179688 C 173.511719 277.179688 162.246094 274.886719 151.648438 270.359375 C 141.394531 265.980469 132.214844 259.710938 124.355469 251.730469 C 119.425781 246.722656 115.175781 241.203125 111.652344 235.238281 Z M 70.621094 263.53125 L 69.3125 275.359375 C 69.105469 277.25 69.402344 279.121094 70.179688 280.78125 C 71.617188 283.859375 74.171875 285.421875 77.769531 285.421875 C 81.375 285.421875 84.003906 283.808594 85.578125 280.621094 C 85.613281 280.554688 85.640625 280.496094 85.671875 280.429688 C 83.011719 282.570312 80.441406 283.667969 78.160156 283.667969 C 77.238281 283.667969 76.363281 283.492188 75.550781 283.125 C 74.273438 282.550781 72.96875 281.796875 72.058594 280.144531 C 71.234375 278.65625 70.785156 276.566406 70.597656 273.367188 C 70.453125 270.882812 70.460938 267.777344 70.621094 263.53125 Z M 298.246094 93.265625 C 297.652344 93.636719 296.816406 94.226562 295.878906 95.097656 C 294.195312 96.671875 291.84375 99.5 290.191406 104.054688 C 287.953125 110.226562 286.5 149.699219 285.886719 184.585938 C 285.859375 186.296875 286.460938 187.96875 287.589844 189.296875 C 291.894531 194.363281 291.71875 203.832031 291.511719 214.792969 C 291.460938 217.753906 291.402344 220.816406 291.433594 223.910156 C 291.589844 239.855469 287.882812 273.964844 287.605469 276.015625 C 287.078125 279.925781 288.253906 283 290.910156 284.664062 C 293.699219 286.410156 297.804688 286.300781 300.671875 284.402344 C 301.46875 283.867188 302.53125 282.957031 303.234375 281.539062 C 301.847656 282.707031 300.242188 283.488281 298.535156 283.832031 C 296.539062 284.226562 294.503906 283.992188 292.808594 283.167969 C 290.101562 281.851562 288.714844 279.257812 289.1875 276.394531 C 289.707031 273.28125 290.484375 268.574219 291.605469 248.816406 C 292.691406 229.691406 293.410156 208.03125 293.285156 202.84375 C 293.164062 198.042969 291.65625 193.359375 291.640625 193.3125 C 291.574219 193.109375 291.605469 192.886719 291.734375 192.710938 C 291.855469 192.535156 292.058594 192.429688 292.269531 192.425781 L 297.585938 192.332031 C 298.765625 135.675781 298.34375 99.902344 298.246094 93.265625 Z M 295.5 287.273438 C 293.613281 287.273438 291.75 286.789062 290.191406 285.8125 C 288.375 284.675781 285.453125 281.867188 286.265625 275.832031 C 286.539062 273.789062 290.238281 239.796875 290.078125 223.925781 C 290.050781 220.8125 290.105469 217.738281 290.160156 214.769531 C 290.359375 204.082031 290.53125 194.851562 286.554688 190.171875 C 285.21875 188.597656 284.496094 186.605469 284.535156 184.5625 C 284.832031 167.578125 286.03125 111.558594 288.917969 103.597656 C 290.679688 98.746094 293.203125 95.730469 295.011719 94.058594 C 297.003906 92.214844 298.578125 91.539062 298.644531 91.511719 C 298.851562 91.421875 299.085938 91.445312 299.273438 91.566406 C 299.464844 91.691406 299.578125 91.898438 299.585938 92.121094 C 299.589844 92.492188 300.246094 129.898438 298.925781 193.011719 C 298.917969 193.371094 298.625 193.664062 298.261719 193.671875 L 293.1875 193.765625 C 293.640625 195.378906 294.542969 199.011719 294.636719 202.8125 C 294.765625 208.023438 294.042969 229.738281 292.957031 248.890625 C 291.835938 268.722656 291.046875 273.472656 290.527344 276.617188 C 290.144531 278.898438 291.222656 280.890625 293.402344 281.953125 C 295.992188 283.210938 300.214844 282.992188 303.359375 279.542969 C 303.5625 279.324219 303.761719 279.105469 303.957031 278.882812 C 304.011719 278.195312 303.988281 277.441406 303.855469 276.613281 C 301.796875 263.859375 300.753906 245.300781 300.566406 218.207031 C 300.515625 211.078125 300.675781 197.757812 300.859375 182.339844 C 301.09375 163.089844 301.355469 141.277344 301.324219 123.195312 C 301.292969 103.976562 300.917969 92.601562 300.214844 89.320312 C 290.128906 92.375 285.710938 103.320312 281.042969 114.898438 C 276.304688 126.640625 271.4375 138.714844 260.039062 141.605469 C 261.574219 143.871094 263.007812 146.210938 264.339844 148.625 C 270.164062 159.191406 273.765625 170.675781 275.03125 182.757812 C 276.300781 194.875 275.160156 206.878906 271.644531 218.433594 C 268.25 229.601562 262.789062 239.882812 255.414062 249 C 248.042969 258.117188 239.128906 265.609375 228.917969 271.265625 C 218.347656 277.121094 206.84375 280.746094 194.722656 282.039062 C 191.507812 282.382812 188.285156 282.554688 185.070312 282.554688 C 171.574219 282.554688 158.25 279.539062 146.050781 273.679688 C 131.367188 266.625 118.84375 255.738281 109.828125 242.195312 C 108.921875 240.839844 108.59375 239.207031 108.890625 237.609375 C 109.15625 236.199219 109.878906 234.949219 110.960938 234.039062 C 109.15625 230.871094 107.554688 227.578125 106.164062 224.171875 C 101.789062 213.484375 99.671875 202.148438 99.863281 190.488281 C 100.046875 179.117188 102.441406 168.109375 106.976562 157.761719 C 111.359375 147.765625 117.554688 138.796875 125.382812 131.109375 C 133.210938 123.417969 142.289062 117.386719 152.363281 113.179688 C 162.765625 108.839844 173.792969 106.640625 185.128906 106.640625 C 185.160156 106.640625 185.1875 106.640625 185.21875 106.640625 C 197.089844 106.652344 208.574219 109.054688 219.355469 113.785156 C 224.53125 116.054688 229.511719 118.859375 234.144531 122.121094 C 238.742188 125.355469 243.039062 129.058594 246.917969 133.136719 C 247.726562 133.984375 248.035156 135.167969 247.75 136.300781 C 247.464844 137.433594 246.632812 138.328125 245.523438 138.691406 C 239.5625 140.644531 234.589844 140.808594 231.464844 140.601562 C 229.460938 140.464844 227.949219 140.175781 227.027344 139.949219 L 227.457031 143.101562 C 228.609375 144.101562 229.730469 145.144531 230.816406 146.230469 C 236.746094 152.160156 241.398438 159.0625 244.648438 166.757812 C 248.011719 174.71875 249.71875 183.183594 249.71875 191.914062 C 249.71875 200.628906 248.011719 209.085938 244.644531 217.050781 C 241.390625 224.738281 236.734375 231.644531 230.800781 237.574219 C 224.871094 243.507812 217.960938 248.164062 210.273438 251.414062 C 202.308594 254.78125 193.851562 256.492188 185.132812 256.492188 C 179.613281 256.492188 174.132812 255.796875 168.84375 254.421875 C 163.707031 253.085938 158.746094 251.113281 154.085938 248.554688 C 144.925781 243.523438 137.027344 236.257812 131.25 227.53125 C 129.144531 224.355469 128.191406 220.496094 128.570312 216.660156 C 128.972656 212.527344 129.855469 208.386719 131.191406 204.359375 C 134.597656 194.042969 144.632812 182.742188 162.769531 168.796875 C 171.015625 162.457031 181.121094 156.503906 191.226562 152.035156 C 200.214844 148.058594 208.527344 145.585938 213.453125 145.425781 C 220.351562 145.199219 224.765625 147.109375 226.804688 148.28125 L 226.183594 143.789062 C 214.757812 134.015625 200.355469 128.683594 185.132812 128.683594 C 168.265625 128.683594 152.367188 135.335938 140.359375 147.417969 C 128.351562 159.496094 121.792969 175.441406 121.898438 192.308594 C 121.921875 196.726562 122.410156 201.132812 123.339844 205.410156 C 126.644531 221.40625 118.355469 230.347656 112.726562 234.425781 C 116.191406 240.296875 120.40625 245.789062 125.320312 250.78125 C 141.226562 266.9375 162.464844 275.828125 185.128906 275.828125 C 185.148438 275.828125 185.171875 275.828125 185.191406 275.828125 C 231.453125 275.796875 269.078125 238.136719 269.058594 191.878906 C 269.054688 174.519531 263.5 157.710938 252.546875 141.914062 C 252.398438 141.703125 252.386719 141.421875 252.511719 141.199219 C 252.636719 140.972656 252.878906 140.839844 253.140625 140.851562 C 254.75 140.945312 256.273438 140.894531 257.722656 140.6875 C 241.394531 117.777344 214.605469 103.140625 185.175781 103.140625 C 182.210938 103.140625 179.226562 103.285156 176.21875 103.589844 C 152.445312 105.984375 131.066406 117.511719 116.011719 136.050781 C 100.957031 154.589844 94.0625 177.875 96.597656 201.621094 C 97.351562 208.691406 98.941406 215.640625 101.316406 222.269531 C 101.320312 222.28125 101.324219 222.289062 101.324219 222.296875 C 102.988281 227.582031 103.71875 233.304688 103.5 239.304688 C 103.300781 244.710938 102.34375 250.222656 100.652344 255.699219 C 97.789062 264.953125 93.011719 273.382812 87.707031 278.605469 C 87.511719 279.507812 87.207031 280.386719 86.792969 281.21875 C 85.542969 283.753906 82.960938 286.773438 77.769531 286.773438 C 72.574219 286.773438 70.109375 283.828125 68.953125 281.355469 C 68.074219 279.46875 67.730469 277.34375 67.96875 275.210938 L 72.308594 235.921875 C 72.347656 235.554688 72.671875 235.289062 73.042969 235.324219 C 73.40625 235.355469 73.683594 235.675781 73.65625 236.042969 C 72.164062 257.351562 71.59375 267.234375 71.949219 273.285156 C 72.328125 279.726562 73.835938 280.875 76.101562 281.890625 C 78.644531 283.03125 82.054688 281.871094 85.707031 278.628906 C 85.960938 278.402344 86.210938 278.171875 86.460938 277.929688 C 86.640625 276.910156 86.667969 275.855469 86.53125 274.796875 C 84.53125 259.226562 80.945312 215.480469 80.648438 207.582031 C 80.523438 204.339844 79.53125 175.800781 81.988281 171.0625 C 82.507812 170.0625 83.183594 169.035156 83.898438 167.945312 C 86.148438 164.515625 88.949219 160.246094 88.753906 153.894531 C 88.65625 150.699219 88.113281 140.34375 87.398438 129.976562 C 86.730469 120.320312 86.222656 115.222656 85.871094 112.539062 C 85.769531 113.707031 85.660156 115.324219 85.535156 117.546875 C 85.292969 121.941406 85.070312 127.574219 84.855469 133.023438 C 84.644531 138.390625 84.445312 143.457031 84.234375 147.300781 C 84.117188 149.367188 84.011719 150.886719 83.902344 151.945312 C 83.839844 152.539062 83.78125 152.980469 83.71875 153.292969 C 83.660156 153.589844 83.519531 154.289062 82.871094 154.289062 C 82.21875 154.289062 82.085938 153.566406 82.035156 153.289062 C 81.980469 152.984375 81.925781 152.550781 81.878906 151.964844 C 81.789062 150.929688 81.710938 149.433594 81.632812 147.394531 C 81.492188 143.617188 81.386719 138.609375 81.273438 133.308594 C 81.15625 127.800781 81.035156 122.105469 80.867188 117.636719 C 80.816406 116.328125 80.769531 115.230469 80.71875 114.300781 C 80.675781 114.960938 80.632812 115.707031 80.589844 116.550781 C 80.382812 120.46875 80.195312 125.476562 80.003906 130.773438 C 79.773438 137.097656 79.53125 143.640625 79.238281 148.597656 C 79.078125 151.292969 78.914062 153.277344 78.746094 154.664062 C 78.496094 156.667969 78.253906 157.5625 77.46875 157.5625 C 76.671875 157.5625 76.449219 156.671875 76.25 154.671875 C 76.113281 153.292969 76 151.328125 75.90625 148.664062 C 75.734375 143.746094 75.652344 137.246094 75.574219 130.957031 C 75.503906 125.621094 75.445312 120.578125 75.332031 116.621094 C 75.304688 115.6875 75.273438 114.878906 75.246094 114.171875 C 75.160156 115.242188 75.074219 116.554688 74.976562 118.160156 C 74.699219 122.890625 74.441406 128.847656 74.195312 134.609375 C 73.976562 139.636719 73.773438 144.390625 73.566406 147.953125 C 73.460938 149.867188 73.359375 151.28125 73.261719 152.265625 C 73.101562 153.871094 72.996094 154.328125 72.523438 154.511719 C 72.261719 154.613281 71.960938 154.546875 71.757812 154.347656 C 71.496094 154.082031 71.289062 153.875 71.0625 147.75 C 70.929688 144.1875 70.824219 139.488281 70.707031 134.515625 C 70.582031 128.816406 70.449219 122.921875 70.265625 118.25 C 70.160156 115.59375 70.054688 113.75 69.953125 112.472656 C 69.636719 114.683594 69.203125 118.636719 68.621094 125.695312 C 67.949219 133.90625 67.320312 143.4375 66.941406 149.132812 C 66.808594 151.152344 66.703125 152.75 66.636719 153.695312 C 66.113281 160.941406 68.933594 165.144531 71.421875 168.851562 C 71.945312 169.632812 72.4375 170.367188 72.890625 171.113281 C 74.617188 173.957031 75.335938 180.242188 75.632812 185.015625 C 76.042969 191.5625 75.941406 199.695312 75.347656 207.910156 C 73.90625 227.71875 70.179688 244.074219 64.5625 255.203125 C 61.960938 260.359375 59.003906 264.300781 55.78125 266.929688 C 54.695312 267.8125 53.589844 268.542969 52.46875 269.113281 C 52.34375 269.398438 52.199219 269.675781 52.042969 269.945312 C 51.066406 271.617188 49.09375 273.613281 45.285156 273.613281 C 41.453125 273.613281 39.371094 272.152344 38.304688 270.929688 C 37.121094 269.574219 36.882812 268.199219 36.871094 268.140625 C 36.824219 267.867188 36.953125 267.589844 37.1875 267.449219 C 37.425781 267.308594 37.726562 267.324219 37.949219 267.492188 C 37.964844 267.503906 40.128906 269.050781 45.808594 269.285156 C 47.699219 269.363281 49.570312 268.976562 51.40625 268.121094 C 51.792969 267.050781 51.921875 265.871094 51.773438 264.703125 C 50.191406 252.519531 47.214844 216.320312 46.972656 209.960938 C 46.820312 205.882812 46.679688 199.53125 46.75 193.945312 C 46.84375 186.277344 47.277344 181.804688 48.078125 180.265625 C 48.5 179.449219 49.050781 178.613281 49.632812 177.722656 C 51.449219 174.953125 53.710938 171.507812 53.550781 166.398438 C 53.472656 163.820312 53.039062 155.449219 52.457031 147.070312 C 51.960938 139.90625 51.578125 135.832031 51.296875 133.511719 C 50.878906 137.371094 50.386719 144.09375 50 149.429688 C 49.683594 153.777344 49.382812 157.878906 49.105469 160.988281 C 48.957031 162.667969 48.828125 163.898438 48.710938 164.753906 C 48.554688 165.910156 48.4375 166.746094 47.703125 166.746094 C 47.085938 166.746094 46.945312 166.09375 46.894531 165.851562 C 46.839844 165.59375 46.789062 165.242188 46.734375 164.765625 C 46.636719 163.917969 46.535156 162.707031 46.429688 161.054688 C 46.226562 157.988281 46.023438 153.933594 45.8125 149.636719 C 45.554688 144.492188 45.238281 138.074219 44.914062 134.085938 C 44.585938 137.351562 44.230469 142.203125 43.921875 146.414062 C 43.574219 151.199219 43.210938 156.144531 42.847656 159.898438 C 42.648438 161.933594 42.464844 163.4375 42.292969 164.496094 C 42.058594 165.890625 41.851562 166.804688 41.074219 166.804688 C 40.28125 166.804688 40.097656 165.851562 39.921875 164.511719 C 39.785156 163.472656 39.660156 162 39.539062 159.996094 C 39.3125 156.3125 39.136719 151.441406 38.960938 146.730469 C 38.800781 142.328125 38.617188 137.230469 38.394531 133.941406 C 38.15625 135.863281 37.851562 138.875 37.464844 143.59375 C 36.917969 150.238281 36.410156 157.9375 36.105469 162.535156 C 35.996094 164.175781 35.910156 165.472656 35.855469 166.238281 C 35.4375 172.074219 37.710938 175.464844 39.71875 178.460938 C 40.144531 179.09375 40.546875 179.6875 40.914062 180.300781 C 42.976562 183.6875 42.960938 191.855469 42.933594 205.386719 C 42.929688 206.921875 42.929688 208.523438 42.929688 210.1875 C 42.929688 225.980469 37.734375 265.632812 37.683594 266.03125 C 37.640625 266.367188 37.351562 266.621094 37.011719 266.621094 L 0.867188 266.621094 C 0.492188 266.621094 0.1875 266.316406 0.1875 265.941406 C 0.1875 265.570312 0.492188 265.265625 0.867188 265.265625 L 36.417969 265.265625 C 37.066406 260.261719 41.574219 224.839844 41.574219 210.1875 C 41.574219 208.523438 41.574219 206.917969 41.578125 205.382812 C 41.605469 192.546875 41.621094 184.066406 39.757812 181 C 39.40625 180.417969 39.011719 179.832031 38.597656 179.210938 C 36.570312 176.195312 34.050781 172.441406 34.503906 166.144531 C 34.5625 165.378906 34.644531 164.085938 34.757812 162.445312 C 35.070312 157.699219 35.597656 149.753906 36.15625 142.980469 C 37.199219 130.382812 37.660156 130 38.03125 129.699219 C 38.195312 129.5625 38.402344 129.5 38.605469 129.527344 C 39.265625 129.617188 39.402344 130.347656 39.542969 131.542969 C 39.644531 132.394531 39.738281 133.617188 39.835938 135.273438 C 40.011719 138.347656 40.160156 142.394531 40.316406 146.679688 C 40.476562 151.070312 40.640625 155.605469 40.84375 159.167969 C 40.945312 160.894531 41.039062 162.164062 41.128906 163.097656 C 41.253906 162.140625 41.402344 160.824219 41.570312 159.03125 C 41.910156 155.394531 42.25 150.777344 42.574219 146.3125 C 42.886719 142.039062 43.183594 138 43.464844 134.957031 C 43.621094 133.3125 43.757812 132.105469 43.886719 131.265625 C 44.050781 130.222656 44.1875 129.320312 44.949219 129.320312 C 45.746094 129.320312 45.867188 130.292969 46.03125 131.644531 C 46.160156 132.683594 46.289062 134.171875 46.425781 136.1875 C 46.683594 139.90625 46.925781 144.816406 47.164062 149.566406 C 47.347656 153.308594 47.558594 157.546875 47.765625 160.753906 C 48.054688 157.492188 48.371094 153.15625 48.648438 149.332031 C 48.988281 144.644531 49.34375 139.796875 49.675781 136.140625 C 49.859375 134.160156 50.015625 132.699219 50.164062 131.679688 C 50.371094 130.226562 50.527344 129.40625 51.269531 129.40625 C 52.023438 129.40625 52.183594 130.328125 52.347656 131.296875 C 52.492188 132.125 52.652344 133.335938 52.816406 134.894531 C 53.097656 137.613281 53.410156 141.375 53.742188 146.078125 C 54.332031 154.441406 54.816406 163.527344 54.90625 166.351562 C 55.078125 171.894531 52.6875 175.539062 50.761719 178.464844 C 50.203125 179.324219 49.667969 180.132812 49.277344 180.890625 C 48.890625 181.636719 48.21875 184.328125 48.101562 193.964844 C 48.03125 199.523438 48.171875 205.847656 48.324219 209.914062 C 48.566406 216.25 51.535156 252.371094 53.113281 264.53125 C 53.230469 265.4375 53.207031 266.351562 53.042969 267.230469 C 53.675781 266.839844 54.304688 266.390625 54.925781 265.882812 C 58.003906 263.375 60.839844 259.578125 63.355469 254.59375 C 68.890625 243.621094 72.570312 227.449219 73.996094 207.816406 C 74.589844 199.660156 74.6875 191.589844 74.285156 185.097656 C 73.875 178.566406 72.972656 173.851562 71.734375 171.816406 C 71.296875 171.097656 70.8125 170.375 70.300781 169.609375 C 67.816406 165.910156 64.730469 161.308594 65.285156 153.601562 C 65.351562 152.65625 65.457031 151.0625 65.59375 149.042969 C 65.980469 143.195312 66.625 133.402344 67.316406 125.058594 C 68.59375 109.605469 69.183594 109.121094 69.570312 108.800781 C 69.738281 108.664062 69.949219 108.601562 70.160156 108.628906 C 70.847656 108.714844 71.027344 109.429688 71.230469 111.527344 C 71.359375 112.886719 71.476562 114.8125 71.582031 117.414062 C 71.785156 122.210938 71.925781 128.453125 72.0625 134.488281 C 72.148438 138.234375 72.238281 142.203125 72.34375 145.550781 C 72.511719 142.222656 72.679688 138.273438 72.84375 134.550781 C 73.101562 128.449219 73.375 122.140625 73.671875 117.285156 C 73.835938 114.648438 73.992188 112.703125 74.148438 111.335938 C 74.386719 109.207031 74.585938 108.488281 75.285156 108.433594 C 75.492188 108.417969 75.691406 108.488281 75.847656 108.632812 C 76.160156 108.917969 76.453125 109.1875 76.667969 116.125 C 76.789062 120.152344 76.859375 125.394531 76.929688 130.941406 C 77 136.847656 77.078125 142.953125 77.230469 147.738281 C 77.3125 150.382812 77.414062 152.226562 77.511719 153.515625 C 77.640625 152.214844 77.785156 150.347656 77.933594 147.652344 C 78.207031 142.824219 78.433594 136.675781 78.652344 130.726562 C 78.855469 125.070312 79.054688 119.734375 79.277344 115.710938 C 79.402344 113.542969 79.519531 111.953125 79.640625 110.847656 C 79.808594 109.351562 79.953125 108.429688 80.738281 108.429688 C 81.417969 108.429688 81.574219 109.199219 81.644531 109.53125 C 81.71875 109.914062 81.792969 110.449219 81.859375 111.171875 C 81.980469 112.457031 82.089844 114.289062 82.1875 116.773438 C 82.371094 121.359375 82.5 127.421875 82.625 133.28125 C 82.71875 137.667969 82.816406 142.339844 82.941406 146.070312 C 83.140625 142.179688 83.335938 137.304688 83.503906 132.96875 C 83.734375 127.179688 83.96875 121.191406 84.230469 116.679688 C 84.371094 114.230469 84.503906 112.433594 84.644531 111.171875 C 84.832031 109.453125 84.980469 108.476562 85.785156 108.476562 C 86.527344 108.476562 86.734375 109.351562 86.960938 110.675781 C 87.136719 111.691406 87.328125 113.179688 87.53125 115.101562 C 87.882812 118.445312 88.269531 123.082031 88.675781 128.875 C 89.402344 139.183594 90 150.371094 90.105469 153.855469 C 90.316406 160.632812 87.386719 165.097656 85.027344 168.6875 C 84.335938 169.746094 83.675781 170.75 83.191406 171.683594 C 81.316406 175.289062 81.59375 196.707031 82 207.527344 C 82.296875 215.410156 85.875 259.082031 87.871094 274.625 C 87.945312 275.210938 87.980469 275.800781 87.96875 276.382812 C 92.628906 271.269531 96.78125 263.636719 99.359375 255.296875 C 101.828125 247.304688 103.949219 235.167969 100.039062 222.714844 C 97.625 215.984375 96.015625 208.933594 95.253906 201.761719 C 93.949219 189.582031 95.085938 177.515625 98.621094 165.898438 C 102.035156 154.675781 107.53125 144.34375 114.960938 135.195312 C 122.390625 126.050781 131.367188 118.550781 141.648438 112.910156 C 152.300781 107.0625 163.882812 103.472656 176.078125 102.246094 C 188.167969 101.027344 200.144531 102.214844 211.675781 105.773438 C 222.8125 109.210938 233.070312 114.703125 242.15625 122.101562 C 248.71875 127.4375 254.433594 133.578125 259.222656 140.417969 C 263.464844 139.472656 267.027344 137.113281 270.164062 133.222656 C 274.214844 128.203125 277.050781 121.183594 279.789062 114.394531 C 282.109375 108.632812 284.511719 102.679688 287.671875 97.894531 C 291.265625 92.449219 295.46875 89.160156 300.511719 87.828125 C 300.847656 87.738281 301.199219 87.921875 301.320312 88.25 C 303.277344 93.601562 302.691406 142.8125 302.214844 182.355469 C 302.027344 197.769531 301.871094 211.082031 301.921875 218.195312 C 302.109375 245.21875 303.148438 263.714844 305.191406 276.398438 C 305.238281 276.703125 305.273438 277.007812 305.296875 277.308594 C 311.910156 269.269531 315.882812 260.074219 318.105469 253.527344 C 320.671875 245.960938 321.5 240.238281 321.554688 239.863281 C 322.679688 224.6875 323.507812 208.753906 323.828125 196.140625 C 324.171875 182.503906 323.882812 173.601562 323.03125 171.714844 C 322.597656 170.753906 321.5625 169.5625 320.25 168.054688 C 315.96875 163.132812 308.804688 154.886719 308.804688 138.746094 C 308.804688 126.898438 312.480469 120.003906 315.5625 116.3125 C 317.371094 114.148438 319.453125 112.464844 321.75 111.3125 C 323.773438 110.296875 325.855469 109.757812 327.765625 109.757812 C 330.960938 109.757812 335.84375 111.558594 339.976562 116.621094 C 343.058594 120.398438 346.730469 127.304688 346.730469 138.746094 C 346.730469 144.117188 345.605469 149.304688 343.472656 153.738281 C 341.488281 157.855469 338.730469 161.203125 335.492188 163.417969 C 333.453125 164.8125 331.332031 165.6875 329.230469 166.027344 C 329.296875 166.171875 329.382812 166.304688 329.492188 166.417969 C 330.140625 167.085938 331.613281 167.039062 333.753906 166.277344 C 334.054688 166.171875 334.382812 166.285156 334.550781 166.550781 C 334.71875 166.816406 334.683594 167.160156 334.464844 167.386719 C 333.8125 168.058594 332.898438 170.320312 332.46875 171.613281 C 331.988281 173.886719 331.941406 186.441406 332.351562 203.660156 C 332.679688 217.667969 333.324219 234.539062 334.015625 240.660156 C 335.289062 251.972656 337.015625 262.914062 337.03125 263.023438 C 337.03125 263.027344 337.03125 263.03125 337.03125 263.035156 C 337.164062 263.976562 337.195312 264.882812 337.125 265.742188 C 337.929688 265.449219 338.878906 265.265625 340.066406 265.265625 L 374.132812 265.265625 C 374.507812 265.265625 374.8125 265.570312 374.8125 265.941406 C 374.8125 266.316406 374.507812 266.621094 374.132812 266.621094 L 340.066406 266.621094 C 338.683594 266.621094 337.707031 266.898438 336.871094 267.324219 C 336.539062 268.691406 335.917969 269.914062 335.015625 270.949219 C 332.957031 273.3125 329.925781 274.160156 327.777344 274.160156 C 325.984375 274.160156 322.644531 273.796875 320.433594 271.371094 C 318.855469 269.644531 318.195312 267.234375 318.472656 264.210938 C 318.792969 260.726562 319.6875 256.371094 319.699219 256.328125 C 319.769531 255.972656 320.105469 255.738281 320.460938 255.796875 C 320.816406 255.847656 321.066406 256.171875 321.03125 256.53125 C 321.027344 256.605469 320.339844 264.066406 323.308594 267.652344 C 324.226562 268.761719 325.371094 269.363281 326.808594 269.496094 C 331 269.878906 332.582031 268.6875 334.265625 267.433594 C 334.71875 267.09375 335.175781 266.75 335.683594 266.441406 C 335.851562 265.457031 335.855469 264.382812 335.691406 263.230469 C 335.644531 262.929688 333.9375 252.054688 332.667969 240.8125 C 331.382812 229.429688 329.984375 176.550781 331.152344 171.289062 C 331.160156 171.265625 331.164062 171.242188 331.171875 171.222656 C 331.253906 170.972656 331.789062 169.398438 332.457031 168.054688 C 330.652344 168.429688 329.332031 168.199219 328.519531 167.355469 C 328.1875 167.015625 327.972656 166.609375 327.84375 166.167969 C 326.191406 166.25 324.566406 165.992188 323.019531 165.390625 C 322.980469 165.375 322.945312 165.359375 322.910156 165.339844 C 322.84375 165.292969 321.226562 164.300781 319.296875 162.140625 C 317.527344 160.164062 315.140625 156.785156 313.828125 151.917969 C 312.28125 146.171875 311.707031 140.203125 312.171875 134.667969 C 312.625 129.253906 314.042969 124.472656 316.273438 120.839844 C 318.582031 117.074219 321.691406 114.695312 325.261719 113.941406 C 326.742188 113.632812 328.300781 114.121094 329.320312 115.214844 C 331.78125 117.855469 333.59375 121.3125 334.707031 125.496094 C 335.710938 129.273438 336.128906 133.535156 335.941406 138.167969 C 335.597656 146.683594 333.203125 155.726562 329.523438 162.371094 C 329.351562 162.828125 329.078125 163.777344 329.035156 164.683594 C 330.9375 164.371094 332.863281 163.574219 334.730469 162.300781 C 339.878906 158.78125 345.378906 150.742188 345.378906 138.746094 C 345.378906 119.894531 334.871094 111.109375 327.765625 111.109375 C 324.820312 111.109375 320.335938 112.703125 316.601562 117.179688 C 313.664062 120.703125 310.15625 127.304688 310.15625 138.746094 C 310.15625 154.382812 317.117188 162.386719 321.273438 167.167969 C 322.65625 168.761719 323.75 170.015625 324.261719 171.160156 C 324.78125 172.304688 325.101562 175.121094 325.242188 179.773438 C 325.371094 183.953125 325.347656 189.472656 325.183594 196.175781 C 324.863281 208.816406 324.03125 224.785156 322.902344 239.984375 C 322.898438 240 322.898438 240.011719 322.894531 240.023438 C 322.890625 240.082031 322.074219 246.027344 319.398438 253.929688 C 317.828125 258.570312 315.929688 262.972656 313.757812 267.023438 C 311.265625 271.664062 308.40625 275.839844 305.246094 279.46875 C 304.902344 281.964844 303.585938 284.09375 301.421875 285.527344 C 299.667969 286.6875 297.570312 287.273438 295.5 287.273438 " fill-opacity="1" fill-rule="nonzero"/></g></svg>