<svg xmlns="http://www.w3.org/2000/svg" xmlns:xlink="http://www.w3.org/1999/xlink" width="500" zoomAndPan="magnify" viewBox="0 0 375 374.999991" height="500" preserveAspectRatio="xMidYMid meet" version="1.0"><defs><clipPath id="eff81eb5f7"><path d="M 0 68.671875 L 375 68.671875 L 375 306.421875 L 0 306.421875 Z M 0 68.671875 " clip-rule="nonzero"/></clipPath></defs><g clip-path="url(#eff81eb5f7)"><path fill="#000000" d="M 213.136719 68.929688 C 211.925781 69.066406 209.761719 69.597656 208.484375 70.074219 C 206.886719 70.675781 205.800781 71.195312 202.957031 72.742188 C 201.535156 73.519531 200.015625 74.339844 199.582031 74.574219 C 197.519531 75.695312 194.242188 77.117188 189.125 79.136719 C 181.300781 82.214844 178.058594 83.800781 173.574219 86.753906 C 170.367188 88.867188 167.96875 90.773438 164.117188 94.308594 L 163.839844 94.5625 L 163.496094 94.085938 C 162.582031 92.785156 159.398438 91.351562 154.890625 90.21875 C 151.195312 89.289062 147.699219 88.6875 141.757812 87.953125 C 137.574219 87.445312 136.996094 87.34375 134.15625 86.609375 C 132.84375 86.265625 130.925781 85.777344 129.878906 85.511719 C 122.242188 83.558594 116.515625 84.046875 108.644531 87.300781 C 106.414062 88.222656 101.03125 90.898438 97.464844 92.839844 C 95.945312 93.683594 92.09375 95.863281 88.917969 97.695312 C 78.226562 103.867188 72.378906 107.054688 64.996094 110.765625 C 56.691406 114.917969 53.515625 116.261719 42.671875 120.214844 C 33.523438 123.546875 28.960938 125.324219 23.257812 127.765625 C 11.390625 132.84375 3.195312 137.273438 0.6875 139.960938 C 0.0117188 140.695312 0 140.871094 0.644531 140.75 C 1.164062 140.660156 2.21875 140.195312 6.328125 138.261719 C 12.742188 135.253906 21.78125 131.398438 30.527344 127.933594 C 33.667969 126.691406 36.699219 125.546875 45.347656 122.324219 C 53.496094 119.292969 57.601562 117.539062 64.375 114.140625 C 71.300781 110.675781 78.183594 106.890625 90.082031 100.003906 C 101.59375 93.339844 107.601562 90.308594 112.675781 88.609375 C 116.96875 87.175781 120.65625 86.746094 124.71875 87.175781 C 126.695312 87.386719 127.984375 87.644531 132.046875 88.621094 C 136.242188 89.632812 136.429688 89.664062 141.257812 90.285156 C 143.421875 90.5625 146.019531 90.917969 147.03125 91.074219 C 152.070312 91.851562 156.921875 93.0625 159.464844 94.171875 C 160.273438 94.539062 162.171875 95.574219 162.382812 95.773438 C 162.429688 95.828125 161.585938 96.671875 160.496094 97.671875 C 156.832031 101.035156 155.300781 102.636719 154.371094 104.089844 C 154.167969 104.402344 153.949219 104.667969 153.890625 104.667969 C 153.78125 104.667969 152.449219 104.28125 150.441406 103.644531 C 149.175781 103.246094 146.910156 102.136719 145.3125 101.125 C 142.890625 99.605469 139.351562 96.882812 137.761719 95.351562 C 136.894531 94.507812 136.417969 94.117188 136.242188 94.117188 C 136.097656 94.117188 136.140625 94.605469 136.320312 95.117188 C 136.996094 97.039062 140.714844 100.804688 144.335938 103.214844 C 145.132812 103.757812 146.289062 104.445312 146.886719 104.757812 C 148.90625 105.789062 151.328125 106.554688 152.582031 106.554688 L 153.191406 106.554688 L 153.191406 107.6875 C 153.191406 108.664062 153.226562 108.898438 153.4375 109.300781 L 153.691406 109.765625 L 153.214844 109.832031 C 152.960938 109.867188 151.207031 110.066406 149.308594 110.289062 C 145.167969 110.753906 141.679688 111.242188 139.859375 111.609375 C 136.886719 112.207031 134.585938 113.21875 132.800781 114.683594 C 131.625 115.664062 130.714844 117.773438 131.480469 117.773438 C 131.589844 117.773438 132.199219 117.449219 132.832031 117.050781 C 135.996094 115.050781 137.316406 114.664062 144.3125 113.71875 C 148.675781 113.128906 150.785156 112.773438 152.59375 112.34375 L 153.871094 112.042969 L 153.824219 113.484375 C 153.746094 115.851562 154.160156 118.015625 155.523438 122.4375 C 155.847656 123.503906 156.367188 125.257812 156.679688 126.324219 C 157.390625 128.8125 158.066406 130.476562 158.585938 131.054688 C 158.796875 131.289062 158.796875 131.289062 158.1875 131.6875 C 157.855469 131.921875 157.53125 132.097656 157.476562 132.097656 C 157.410156 132.097656 157.144531 131.953125 156.878906 131.765625 C 156.277344 131.363281 155.566406 131.054688 154.65625 130.800781 C 154.113281 130.644531 153.535156 130.597656 151.859375 130.609375 C 149.507812 130.609375 148.195312 130.820312 146.585938 131.441406 C 145.109375 132.007812 143.914062 133.019531 144.367188 133.320312 C 144.457031 133.386719 144.8125 133.410156 145.144531 133.375 C 145.476562 133.351562 146.097656 133.285156 146.511719 133.253906 L 147.265625 133.1875 L 146.898438 133.765625 C 146.621094 134.207031 146.53125 134.496094 146.5 135.042969 L 146.453125 135.730469 L 144.046875 135.808594 C 141.070312 135.90625 139.972656 136.019531 138.484375 136.386719 C 137.183594 136.707031 136.773438 136.882812 136.664062 137.164062 C 136.53125 137.507812 136.964844 137.773438 137.996094 138.015625 C 138.882812 138.21875 139.40625 138.238281 143.089844 138.261719 C 147.542969 138.292969 148.917969 138.351562 150.972656 138.605469 C 153.890625 138.960938 156.511719 139.472656 161.128906 140.59375 C 166.800781 141.972656 167.921875 142.171875 175.171875 143.035156 C 181.832031 143.835938 182.796875 144.003906 190.65625 145.691406 C 193.378906 146.269531 196.074219 146.824219 196.652344 146.921875 C 198.171875 147.179688 198.230469 147.210938 197.730469 147.523438 C 196.917969 148.023438 196.21875 149.113281 195.988281 150.234375 C 195.488281 152.644531 197.628906 155.742188 200.925781 157.394531 C 202.425781 158.140625 204.84375 158.816406 206.867188 159.039062 C 207.542969 159.117188 207.566406 159.128906 207.199219 159.21875 C 205.777344 159.527344 200.472656 159.515625 196.953125 159.195312 C 196.265625 159.128906 194.410156 158.949219 192.824219 158.804688 C 186.273438 158.183594 179.246094 157.652344 174.671875 157.40625 C 171.296875 157.242188 155.414062 157.105469 150.304688 157.207031 C 142.046875 157.375 138.304688 157.773438 134.320312 158.941406 C 130.847656 159.9375 127.273438 161.828125 125.273438 163.714844 L 124.40625 164.527344 L 123.953125 163.414062 C 122.855469 160.773438 122.507812 159.273438 122.421875 156.75 C 122.355469 154.765625 122.464844 153.164062 123 148.8125 C 123.832031 141.871094 124.042969 139.074219 124.128906 133.707031 L 124.195312 129.488281 L 124.574219 129.042969 C 125.074219 128.464844 125.984375 126.601562 126.273438 125.546875 C 126.394531 125.089844 126.671875 123.757812 126.894531 122.601562 C 127.515625 119.214844 128.191406 117.515625 129.648438 115.605469 C 130.414062 114.617188 131.789062 113.230469 132.65625 112.574219 C 133.445312 111.988281 134.265625 111.21875 134.265625 111.074219 C 134.265625 111.019531 133.976562 110.988281 133.632812 111.019531 C 132.753906 111.074219 130.933594 111.964844 129.824219 112.851562 C 127.09375 115.050781 125.730469 117.371094 125.0625 120.992188 C 124.941406 121.691406 124.730469 122.8125 124.609375 123.492188 C 124.484375 124.15625 124.273438 125.058594 124.140625 125.492188 L 123.910156 126.269531 L 123.652344 124.414062 C 123.265625 121.527344 122.578125 118.417969 121.644531 115.273438 C 120.265625 110.632812 118.167969 107.078125 115.726562 105.234375 C 112.683594 102.9375 109.15625 102.558594 105.792969 104.15625 C 99.898438 106.945312 95.746094 114.03125 93.648438 124.878906 C 92.757812 129.464844 92.480469 132.488281 92.027344 142.425781 C 91.347656 157.050781 90.90625 162.414062 89.796875 169.011719 C 89.527344 170.589844 88.820312 174.230469 88.675781 174.675781 C 88.617188 174.886719 88.496094 174.886719 84.65625 174.796875 C 79.28125 174.675781 72.523438 174.585938 70.433594 174.609375 C 68.425781 174.632812 66.351562 174.832031 62.441406 175.351562 C 60.886719 175.5625 58.367188 175.886719 56.835938 176.074219 C 50.554688 176.839844 47.589844 177.574219 44.070312 179.238281 C 40.085938 181.105469 36.800781 183.460938 27.664062 190.921875 C 15.917969 200.539062 5.605469 210.355469 3.273438 214.144531 C 2.53125 215.355469 3.085938 215.054688 6.582031 212.355469 C 9.757812 209.902344 12.410156 207.691406 19.816406 201.339844 C 25.632812 196.351562 31.183594 191.699219 34.789062 188.789062 C 42.960938 182.214844 46.835938 180.226562 54.027344 178.90625 C 56.59375 178.441406 66.007812 177.097656 69.582031 176.6875 L 70.113281 176.621094 L 69.347656 177.375 C 68.59375 178.128906 68.015625 178.808594 63.597656 184.183594 C 58.78125 190.035156 56.691406 192.964844 54.382812 197.121094 C 52.03125 201.363281 50.453125 205.660156 49.796875 209.613281 C 48.710938 216.199219 49.675781 221.683594 52.984375 227.769531 C 57.371094 235.84375 70.3125 252.546875 74.820312 255.957031 C 75.308594 256.320312 75.695312 256.675781 75.6875 256.742188 C 75.6875 256.8125 75.554688 257.578125 75.398438 258.433594 C 74.964844 260.808594 74.84375 262.519531 74.898438 265.105469 C 74.964844 267.773438 75.164062 269.269531 75.765625 271.660156 C 76.972656 276.398438 79.914062 282.476562 86.753906 294.289062 C 88.652344 297.578125 89.539062 299.167969 90.738281 301.441406 C 91.894531 303.628906 92.613281 304.742188 93.402344 305.550781 C 94.035156 306.195312 94.402344 306.382812 94.78125 306.242188 C 95.402344 306.007812 95.433594 305.050781 94.890625 303.339844 C 94.492188 302.074219 92.171875 297.511719 89.441406 292.601562 C 82.667969 280.441406 80.09375 274.777344 79.128906 269.816406 C 78.851562 268.40625 78.828125 268.105469 78.828125 265.140625 C 78.816406 262.609375 78.859375 261.730469 79.015625 260.753906 C 80.136719 253.800781 83.058594 247.316406 87.984375 240.808594 C 92.039062 235.476562 96.898438 231.167969 102.628906 227.824219 C 110.289062 223.371094 118.933594 220.675781 128.824219 219.652344 C 131.167969 219.417969 138.285156 219.320312 140.769531 219.484375 C 149.25 220.085938 156.191406 222.25 161.683594 226.027344 C 165.046875 228.335938 167.65625 231.089844 170.398438 235.210938 C 172.175781 237.886719 173.519531 240.332031 176.636719 246.539062 C 181.632812 256.511719 184.164062 261.0625 187.4375 266.015625 C 191.433594 272.070312 194.753906 276.246094 198.59375 280.078125 C 200.78125 282.273438 202.027344 283.320312 202.304688 283.230469 C 202.378906 283.195312 202.09375 282.664062 201.671875 282.019531 C 201.257812 281.375 200.503906 280.175781 200.015625 279.34375 C 199.515625 278.511719 197.761719 275.757812 196.121094 273.234375 C 188.660156 261.730469 186.617188 258.164062 180.933594 246.761719 C 175.9375 236.699219 174.0625 233.476562 170.964844 229.601562 C 169.675781 227.992188 167.144531 225.425781 165.792969 224.339844 C 164.480469 223.292969 161.875 221.574219 160.351562 220.75 C 156.167969 218.484375 150.363281 216.644531 145.199219 215.941406 C 143.757812 215.753906 143.878906 215.84375 143.710938 214.867188 C 142.847656 209.558594 141.667969 205.316406 139.726562 200.453125 C 137.316406 194.433594 135.664062 191.246094 132.566406 186.625 L 131.257812 184.683594 L 131.523438 184.460938 C 133.011719 183.238281 133.699219 182.605469 134.277344 181.9375 C 134.929688 181.171875 135.597656 180.007812 135.597656 179.605469 C 135.597656 179.484375 135.707031 179.382812 135.910156 179.339844 C 136.917969 179.128906 138.09375 178.429688 140.015625 176.875 C 142.300781 175.042969 146.175781 171.234375 148.019531 169.023438 C 149.960938 166.667969 152.335938 163.347656 153.636719 161.148438 L 154.28125 160.050781 L 162.839844 160.117188 C 173.761719 160.207031 174.375 160.238281 187.9375 161.371094 C 192.644531 161.761719 197.429688 162.125 198.574219 162.195312 C 200.617188 162.304688 200.671875 162.316406 201.402344 162.683594 C 202.371094 163.171875 203.511719 163.59375 207.753906 165.023438 C 211.738281 166.378906 213.414062 167.003906 215.46875 167.914062 C 223.550781 171.488281 228.890625 175.476562 240.222656 186.402344 C 243.078125 189.15625 245.0625 191 247.828125 193.453125 C 249.203125 194.664062 251.125 196.398438 252.101562 197.285156 C 255.230469 200.140625 257.273438 201.75 259.9375 203.449219 L 261.414062 204.382812 L 262.304688 205.726562 C 265.167969 209.980469 268.652344 212.621094 273.859375 214.453125 C 274.757812 214.777344 275.179688 214.976562 275.148438 215.078125 C 274.714844 216.6875 274.371094 218.398438 273.757812 221.882812 C 272.238281 230.703125 271.773438 234.890625 271.195312 244.929688 C 271.09375 246.605469 270.941406 248.726562 270.851562 249.648438 C 270.417969 254.222656 270.40625 255.65625 270.808594 257.664062 C 271.40625 260.6875 273.546875 262.464844 277.96875 263.574219 C 278.699219 263.75 281.121094 264.261719 283.351562 264.695312 C 290.589844 266.117188 299.613281 268.015625 304.71875 269.191406 C 314.355469 271.414062 322.558594 273.46875 332.363281 276.078125 C 340.289062 278.199219 353.351562 281.488281 356.117188 282.054688 C 358.171875 282.484375 359.726562 282.675781 359.726562 282.496094 C 359.726562 282.109375 352.652344 279.597656 345.570312 277.476562 C 326.554688 271.792969 306.429688 266.707031 285.847656 262.375 C 280.71875 261.296875 279.066406 260.910156 277.6875 260.453125 C 275.757812 259.820312 274.527344 259.042969 274.039062 258.132812 L 273.769531 257.644531 L 274.257812 258.097656 C 274.957031 258.742188 275.371094 259.007812 276.101562 259.265625 C 276.824219 259.507812 278.089844 259.566406 278.910156 259.375 C 284.339844 258.144531 292.429688 250.015625 298.105469 240.097656 C 305.332031 227.449219 311.113281 209.65625 312.378906 196.175781 C 312.980469 189.734375 312.789062 183.648438 311.769531 176.808594 C 310.890625 170.945312 309.816406 166.28125 307.828125 159.648438 C 307.363281 158.105469 307.007812 156.808594 307.050781 156.773438 C 307.085938 156.742188 308.570312 156.996094 310.359375 157.339844 C 318.617188 158.960938 336.203125 162.105469 349.566406 164.359375 C 355.019531 165.28125 362 166.511719 369.136719 167.8125 C 373.632812 168.632812 374.800781 168.757812 374.898438 168.445312 C 375 168.144531 373.96875 167.335938 372.703125 166.714844 C 368.707031 164.769531 361.769531 163.183594 342.960938 159.917969 C 330.863281 157.816406 321.316406 156.109375 315.042969 154.917969 C 307.804688 153.542969 306.972656 153.410156 305.996094 153.386719 C 305.296875 153.375 304.964844 153.421875 304.699219 153.566406 C 304.289062 153.785156 304.332031 153.820312 304 152.808594 C 303.265625 150.578125 299.847656 141.648438 295.496094 130.621094 C 291.554688 120.660156 291.433594 120.328125 285.425781 104.222656 C 282.472656 96.292969 281.1875 93.375 279.15625 89.976562 C 276.789062 86 274.039062 83.433594 270.085938 81.511719 C 266.121094 79.582031 261.558594 78.59375 253.378906 77.90625 C 242.84375 77.027344 238.769531 76.0625 226.492188 71.5625 C 222.75 70.207031 221.109375 69.699219 219.132812 69.296875 C 216.710938 68.808594 215.058594 68.710938 213.136719 68.929688 Z M 216.632812 72.128906 C 219.066406 72.429688 220.71875 72.917969 226.070312 74.90625 C 238.136719 79.390625 242.277344 80.347656 253 81.179688 C 261.671875 81.847656 265.222656 82.570312 269.085938 84.457031 C 272.316406 86.042969 274.570312 88.199219 276.625 91.675781 C 278.589844 94.972656 279.765625 97.773438 283.894531 109.011719 C 287.347656 118.394531 289.945312 125.046875 293.496094 133.5625 C 297.558594 143.324219 299.625 148 302.132812 153.085938 C 303.910156 156.695312 304.019531 156.964844 305.386719 161.703125 C 307.027344 167.390625 308.050781 172.242188 308.816406 178.019531 C 309.304688 181.695312 309.460938 183.691406 309.515625 187.359375 C 309.671875 196.675781 308.394531 204.703125 305.03125 215.386719 C 304.242188 217.929688 301.289062 225.894531 301.066406 226.125 C 301.046875 226.160156 299.148438 224.859375 296.503906 222.996094 C 295.773438 222.484375 294.273438 221.351562 293.175781 220.484375 C 287.402344 215.941406 285.460938 214.976562 277.632812 212.800781 C 273.558594 211.65625 271.496094 210.800781 269.296875 209.335938 C 268.1875 208.589844 266.289062 206.980469 266.398438 206.871094 C 266.433594 206.847656 266.820312 206.96875 267.265625 207.148438 C 269.519531 208.035156 274.847656 209.613281 278.023438 210.335938 C 279.542969 210.679688 283.128906 211.277344 283.652344 211.277344 C 285.015625 211.277344 282.875 210.347656 274.582031 207.335938 C 266.035156 204.226562 264.769531 203.648438 260.816406 201.007812 C 258.507812 199.460938 257.074219 198.339844 255.03125 196.496094 C 247.628906 189.789062 245.496094 187.835938 243.011719 185.449219 C 235.792969 178.519531 232.429688 175.519531 228.84375 172.808594 C 222.652344 168.136719 217.324219 165.480469 208.707031 162.792969 L 206.277344 162.039062 L 207.265625 161.839844 C 207.808594 161.738281 208.675781 161.515625 209.1875 161.359375 C 210.296875 161.003906 213.25 159.539062 214.480469 158.71875 C 214.957031 158.394531 215.679688 157.996094 216.078125 157.828125 C 218.664062 156.742188 219.988281 154.441406 219.308594 152.222656 C 218.730469 150.3125 216.867188 148.8125 213.804688 147.8125 C 210.761719 146.8125 207.621094 146.234375 204.535156 146.089844 C 202.027344 145.980469 201.382812 145.847656 195.03125 144.101562 C 187.917969 142.160156 183.953125 141.25 180.613281 140.769531 C 179.148438 140.558594 175.90625 140.203125 175.472656 140.203125 C 175.328125 140.203125 175.25 140.050781 175.148438 139.503906 C 174.972656 138.605469 174.261719 137.21875 173.53125 136.363281 C 172.707031 135.386719 170.566406 133.417969 169.601562 132.753906 C 169.15625 132.441406 168.300781 131.964844 167.710938 131.6875 L 166.636719 131.175781 L 167.566406 130.855469 C 169.035156 130.367188 171.464844 129.789062 173.375 129.488281 C 178.703125 128.65625 184.085938 128.898438 190.824219 130.289062 C 195.34375 131.210938 198.261719 131.976562 204.480469 133.875 C 211.40625 135.984375 213.605469 136.519531 217.132812 136.929688 C 218.800781 137.117188 222.152344 137.152344 223.515625 136.984375 C 228.777344 136.328125 233.550781 133.953125 237.625 129.976562 C 239.425781 128.210938 240.078125 127.433594 245.285156 120.882812 C 248.003906 117.460938 248.792969 116.550781 250.746094 114.5625 C 252.511719 112.785156 254.078125 111.441406 255.488281 110.519531 C 256.441406 109.898438 257.019531 109.386719 256.910156 109.265625 C 256.71875 109.089844 255.886719 109.109375 255.03125 109.320312 C 253.023438 109.808594 250.636719 111.285156 247.984375 113.664062 C 246.949219 114.585938 246.671875 114.773438 246.59375 114.640625 C 246.550781 114.550781 246.308594 114.230469 246.050781 113.929688 C 244.941406 112.585938 242.597656 110.898438 239.335938 109.089844 C 236.171875 107.332031 235.015625 106.554688 233.628906 105.269531 C 232.917969 104.613281 231.730469 103.214844 231.730469 103.035156 C 231.730469 102.96875 231.953125 102.859375 232.230469 102.78125 C 232.886719 102.601562 233.617188 102.070312 233.617188 101.78125 C 233.617188 101.546875 233.230469 101.402344 232.175781 101.28125 C 225.75 100.527344 219.820312 98.894531 215.214844 96.617188 C 214.191406 96.117188 213.039062 95.515625 212.660156 95.296875 C 212.273438 95.074219 211.839844 94.894531 211.695312 94.894531 L 211.4375 94.894531 L 211.648438 94.21875 C 211.90625 93.386719 211.917969 92.609375 211.683594 92.007812 C 211.316406 91.109375 210.882812 91.21875 210.585938 92.285156 C 210.339844 93.140625 210.0625 93.675781 209.398438 94.585938 C 207.441406 97.238281 204.976562 98.25 198.207031 99.171875 C 194.742188 99.648438 193.609375 99.871094 191.835938 100.460938 C 188.9375 101.425781 186.496094 102.734375 182.222656 105.613281 C 180.667969 106.65625 178.945312 107.789062 178.390625 108.132812 C 177.847656 108.476562 177.136719 108.988281 176.828125 109.253906 L 176.25 109.742188 L 174.996094 109.542969 C 171.917969 109.089844 170.023438 108.953125 166.457031 108.945312 C 164.070312 108.945312 162.75 108.988281 162.296875 109.089844 C 161.816406 109.1875 161.617188 109.1875 161.585938 109.097656 C 161.484375 108.777344 160.851562 108.222656 160.398438 108.042969 C 159.519531 107.710938 157.644531 108.066406 156.402344 108.800781 C 156.191406 108.921875 155.988281 109 155.96875 108.976562 C 155.933594 108.945312 155.957031 108.542969 156.023438 108.078125 C 156.277344 106.011719 157.15625 105 164.292969 98.484375 C 168.722656 94.441406 170.265625 93.109375 172.242188 91.621094 C 177.4375 87.710938 181.445312 85.644531 191.710938 81.589844 C 196.796875 79.59375 199.738281 78.214844 203.703125 76.003906 C 204.921875 75.328125 206.5 74.484375 207.199219 74.128906 C 210.683594 72.386719 213.605469 71.761719 216.632812 72.128906 Z M 212.195312 97.261719 C 213.070312 98.25 214.980469 99.328125 217.910156 100.480469 C 219.289062 101.027344 222.804688 102.203125 224.183594 102.570312 L 224.683594 102.714844 L 223.792969 102.800781 C 222.652344 102.9375 220.363281 102.847656 218.800781 102.613281 C 216.023438 102.203125 213.96875 101.546875 210.960938 100.105469 C 209.71875 99.515625 208.695312 99.09375 208.375 99.046875 L 207.851562 98.972656 L 208.386719 98.617188 C 209.074219 98.148438 210.285156 96.859375 210.761719 96.082031 L 211.140625 95.472656 L 211.429688 96.105469 C 211.582031 96.449219 211.925781 96.972656 212.195312 97.261719 Z M 204.511719 101.015625 C 201.28125 103.847656 198.195312 105.777344 194.445312 107.320312 C 192.355469 108.175781 188.515625 109.386719 188.40625 109.210938 C 188.394531 109.1875 188.394531 108.109375 188.414062 106.824219 L 188.449219 104.46875 L 189.78125 103.847656 C 191.28125 103.136719 193.601562 102.324219 194.898438 102.070312 C 195.375 101.96875 197.140625 101.691406 198.816406 101.449219 C 201.480469 101.058594 204.210938 100.480469 205.089844 100.125 C 205.722656 99.871094 205.601562 100.046875 204.511719 101.015625 Z M 207.410156 103.558594 C 207.699219 104.835938 207.851562 105.722656 208.152344 107.621094 C 208.175781 107.8125 208.273438 108.054688 208.363281 108.175781 C 208.53125 108.378906 208.542969 108.378906 208.808594 108.078125 C 209.398438 107.410156 209.640625 105.613281 209.429688 103.402344 C 209.363281 102.679688 209.320312 102.058594 209.339844 102.035156 C 209.375 102.015625 209.886719 102.191406 210.484375 102.425781 C 211.972656 103.023438 214.191406 103.722656 215.324219 103.957031 C 215.835938 104.070312 216.277344 104.179688 216.335938 104.222656 C 216.421875 104.300781 214.035156 106.3125 212.9375 107.089844 C 212.558594 107.355469 211.496094 107.945312 210.574219 108.386719 C 207.996094 109.632812 207.597656 110.097656 207.621094 111.832031 C 207.621094 112.375 207.730469 113.617188 207.851562 114.585938 C 208.242188 117.5625 208.121094 120.347656 207.519531 122.402344 C 207.386719 122.847656 207.253906 123.214844 207.230469 123.214844 C 207.210938 123.214844 206.710938 122.824219 206.109375 122.347656 C 201.980469 119.058594 194.730469 115.21875 188.691406 113.109375 C 187.9375 112.851562 187.328125 112.597656 187.328125 112.5625 C 187.328125 112.519531 187.40625 112.375 187.503906 112.242188 C 187.59375 112.109375 187.78125 111.6875 187.925781 111.296875 L 188.171875 110.609375 L 189.160156 110.53125 C 190.601562 110.433594 192.890625 109.886719 195.097656 109.132812 C 198.738281 107.878906 202.148438 105.945312 205.589844 103.191406 C 206.386719 102.546875 207.042969 102.035156 207.054688 102.046875 C 207.066406 102.058594 207.230469 102.734375 207.410156 103.558594 Z M 229.667969 103.359375 C 229.699219 103.433594 229.746094 103.714844 229.765625 103.96875 L 229.820312 104.433594 L 229.554688 104.257812 C 229.398438 104.15625 229.191406 104.113281 229.023438 104.15625 C 228.644531 104.246094 228.535156 104.703125 228.402344 106.554688 C 228.335938 107.457031 228.179688 108.453125 228.023438 109.054688 C 227.722656 110.175781 227.070312 111.796875 226.902344 111.851562 C 226.835938 111.863281 226.648438 111.542969 226.480469 111.121094 C 226.082031 110.132812 225.214844 108.699219 224.550781 107.910156 C 223.582031 106.777344 222.105469 106.066406 221.984375 106.6875 C 221.960938 106.789062 222.195312 107.300781 222.507812 107.8125 C 223.707031 109.789062 224.59375 112.054688 225.070312 114.296875 C 225.371094 115.683594 225.480469 118.449219 225.304688 119.804688 C 224.714844 124.222656 222.03125 127.824219 219.121094 128.066406 C 217.65625 128.1875 216.625 127.722656 215.722656 126.535156 C 214.625 125.078125 214.035156 122.96875 213.691406 119.214844 C 213.460938 116.585938 213.328125 115.652344 213.070312 114.605469 C 212.78125 113.464844 211.984375 111.796875 211.429688 111.21875 L 211.007812 110.777344 L 211.628906 110.421875 C 212.660156 109.832031 213.515625 109.230469 214.414062 108.433594 C 215.390625 107.578125 217.15625 105.578125 217.542969 104.890625 L 217.800781 104.445312 L 218.742188 104.523438 C 220.554688 104.691406 225.027344 104.613281 226.179688 104.402344 C 227.425781 104.167969 228.402344 103.855469 229.011719 103.492188 C 229.523438 103.191406 229.609375 103.167969 229.667969 103.359375 Z M 186.839844 105.632812 C 186.804688 105.746094 186.59375 106.734375 186.382812 107.832031 C 186.027344 109.675781 185.519531 111.851562 185.417969 111.941406 C 185.394531 111.964844 184.808594 111.808594 184.109375 111.597656 C 183.410156 111.398438 182.011719 111.019531 181 110.765625 C 179.988281 110.507812 179.15625 110.296875 179.136719 110.277344 C 179.125 110.265625 179.46875 110.03125 179.914062 109.777344 C 180.355469 109.511719 181.523438 108.765625 182.5 108.132812 C 184.839844 106.589844 186.671875 105.445312 186.796875 105.445312 C 186.851562 105.445312 186.871094 105.535156 186.839844 105.632812 Z M 233.363281 108.53125 C 234.652344 109.476562 235.738281 110.109375 238.78125 111.6875 C 240.246094 112.453125 242.011719 113.417969 242.699219 113.839844 C 244.085938 114.695312 245.609375 115.785156 245.609375 115.917969 C 245.609375 115.972656 245.121094 116.574219 244.519531 117.25 C 243.921875 117.9375 242.320312 119.816406 240.980469 121.4375 C 239.636719 123.058594 238.257812 124.667969 237.9375 125.035156 L 237.335938 125.679688 L 237.371094 124.203125 C 237.515625 118.972656 235.816406 114.605469 232.285156 111.109375 C 231.699219 110.53125 230.953125 109.898438 230.644531 109.722656 C 230.332031 109.53125 230.066406 109.332031 230.066406 109.277344 C 230.066406 109.210938 230.167969 108.84375 230.300781 108.445312 C 230.421875 108.042969 230.554688 107.34375 230.589844 106.878906 L 230.65625 106.046875 L 231.554688 106.945312 C 232.042969 107.445312 232.863281 108.15625 233.363281 108.53125 Z M 111.398438 106.945312 C 114.394531 107.746094 116.847656 110.808594 118.535156 115.894531 C 120.566406 122.015625 121.367188 128.535156 121.054688 136.429688 C 120.878906 141.160156 120.632812 143.925781 119.757812 151.253906 C 119.625 152.308594 119.566406 153.6875 119.566406 155.53125 C 119.558594 159.449219 119.777344 160.484375 121.5 164.859375 C 123.175781 169.132812 123.597656 170.753906 124.109375 174.875 C 124.808594 180.496094 125.050781 181.105469 128.757812 186.660156 C 129.992188 188.5 131.324219 190.589844 131.734375 191.289062 C 134.121094 195.476562 136.140625 200.40625 139.09375 209.335938 C 140.027344 212.144531 140.894531 214.6875 141.027344 214.976562 L 141.257812 215.511719 L 140.117188 215.421875 C 138.394531 215.289062 132.101562 215.320312 130.101562 215.488281 C 123.351562 216.007812 117.648438 217.164062 111.628906 219.21875 C 108.6875 220.230469 106.847656 221.007812 103.738281 222.574219 C 98.109375 225.394531 93.714844 228.527344 89.640625 232.601562 C 83.722656 238.519531 79.105469 245.828125 76.75 252.992188 L 76.273438 254.445312 L 74.898438 252.433594 C 72.132812 248.414062 70.113281 245.636719 66.714844 241.207031 C 63.964844 237.609375 60.011719 232.210938 58.5 230.011719 C 54.050781 223.460938 52.539062 219.417969 52.53125 214 C 52.519531 209.214844 53.59375 205.003906 56.160156 199.773438 C 58.433594 195.121094 60.910156 191.542969 66.671875 184.570312 C 71.132812 179.183594 72.222656 178.175781 74.066406 177.695312 C 75.863281 177.230469 76.796875 177.164062 82.535156 177.074219 C 85.621094 177.03125 88.152344 177.007812 88.164062 177.007812 C 88.175781 177.019531 88.128906 177.253906 88.074219 177.519531 C 88.007812 177.796875 87.71875 179.183594 87.417969 180.605469 C 87.132812 182.027344 86.863281 183.214844 86.84375 183.226562 C 86.832031 183.25 86.066406 183.703125 85.15625 184.238281 L 83.5 185.203125 L 82.546875 184.703125 C 81.378906 184.082031 79.914062 183.582031 78.628906 183.359375 C 75.6875 182.847656 72.398438 183.128906 70.46875 184.070312 C 69.847656 184.382812 69.214844 184.9375 69.214844 185.179688 C 69.214844 185.46875 69.859375 185.535156 73.199219 185.636719 C 75.132812 185.691406 77.183594 185.78125 77.761719 185.847656 C 78.9375 185.96875 81.09375 186.390625 81.09375 186.503906 C 81.09375 186.625 78.207031 188.125 76.539062 188.878906 C 74.632812 189.734375 72.921875 190.410156 68.480469 192.078125 C 64.808594 193.445312 64.253906 193.699219 62.910156 194.597656 C 61.964844 195.21875 61.777344 195.429688 61.777344 195.832031 C 61.777344 196.152344 62.109375 196.285156 62.910156 196.285156 C 64.730469 196.285156 66.828125 195.71875 71.378906 194.011719 C 77.550781 191.6875 80.726562 190 85.042969 186.78125 L 86.386719 185.78125 L 86.332031 186.96875 C 86.277344 188.148438 86.441406 190.011719 86.652344 190.710938 C 86.929688 191.578125 87.574219 191.390625 88.074219 190.289062 C 88.851562 188.546875 89.195312 187.269531 89.804688 183.972656 C 90.128906 182.160156 90.75 179.027344 91.183594 177.019531 C 92.515625 170.734375 92.804688 169.132812 93.304688 165.160156 C 93.890625 160.496094 94.300781 155.363281 94.691406 147.980469 C 95.324219 135.953125 95.746094 131.34375 96.644531 126.65625 C 98.464844 117.25 101.695312 110.898438 106.089844 108.03125 C 107.433594 107.15625 108.542969 106.800781 109.953125 106.789062 C 110.410156 106.789062 111.066406 106.855469 111.398438 106.945312 Z M 159.398438 112.242188 C 159.429688 113.175781 159.542969 114.453125 159.632812 115.085938 C 160.273438 119.625 162.273438 124.789062 164.40625 127.433594 L 165.09375 128.289062 L 164.117188 128.644531 C 163.582031 128.84375 162.496094 129.320312 161.707031 129.710938 L 160.253906 130.410156 L 159.910156 129.457031 C 159.476562 128.265625 159.066406 126.890625 157.976562 123.101562 C 156.644531 118.417969 156.167969 115.863281 156.265625 113.742188 C 156.335938 112.265625 156.566406 111.699219 157.289062 111.277344 C 157.765625 111 158.898438 110.574219 159.199219 110.566406 C 159.277344 110.554688 159.34375 111.132812 159.398438 112.242188 Z M 231.320312 112.796875 C 234.074219 116.527344 235.273438 119.914062 235.285156 123.957031 C 235.285156 124.902344 235.074219 127.101562 234.894531 127.945312 C 234.785156 128.476562 231.84375 130.519531 229.722656 131.53125 C 227.945312 132.386719 226.691406 132.820312 224.992188 133.164062 C 221.996094 133.765625 217.789062 133.699219 214.238281 132.988281 L 213.679688 132.863281 L 213.425781 132.085938 C 212.847656 130.277344 211.171875 127.433594 209.652344 125.691406 L 208.863281 124.789062 L 209.242188 123.96875 C 210.207031 121.859375 210.539062 118.40625 210.140625 114.585938 C 210.039062 113.695312 209.984375 112.941406 210.019531 112.917969 C 210.105469 112.832031 210.59375 113.886719 210.839844 114.675781 C 211.140625 115.640625 211.273438 116.660156 211.472656 119.492188 C 211.738281 123.179688 212.117188 124.992188 213.027344 126.824219 C 213.292969 127.367188 213.738281 128.089844 214.003906 128.410156 C 216.679688 131.644531 221.441406 131.320312 224.539062 127.6875 C 226.148438 125.777344 227.347656 123.003906 227.746094 120.238281 C 227.945312 118.828125 227.824219 115.652344 227.523438 114.308594 L 227.28125 113.230469 L 228.046875 112.476562 C 228.46875 112.0625 228.957031 111.453125 229.132812 111.132812 L 229.457031 110.542969 L 229.988281 111.132812 C 230.277344 111.453125 230.875 112.207031 231.320312 112.796875 Z M 171.121094 111.832031 C 175.648438 112.285156 179.3125 113.019531 183.953125 114.394531 C 187.925781 115.5625 191.558594 116.996094 195.375 118.882812 C 202.179688 122.257812 206.753906 125.546875 209.429688 128.988281 C 210.59375 130.488281 211.894531 132.429688 211.726562 132.429688 C 211.472656 132.429688 208.121094 131.507812 205.089844 130.621094 C 200.90625 129.386719 198.027344 128.609375 195.042969 127.933594 C 188.195312 126.390625 184.386719 125.878906 179.535156 125.878906 C 175.449219 125.878906 172.351562 126.257812 168.621094 127.210938 C 167.65625 127.457031 166.859375 127.644531 166.847656 127.632812 C 166.65625 127.410156 165.425781 124.902344 164.925781 123.714844 C 163.105469 119.449219 162.09375 115.796875 161.941406 112.976562 L 161.875 111.675781 L 162.304688 111.632812 C 163.238281 111.519531 169.457031 111.652344 171.121094 111.832031 Z M 164.570312 133.609375 C 168.011719 134.742188 170.585938 136.363281 171.886719 138.21875 C 172.351562 138.882812 172.785156 139.816406 172.664062 139.917969 C 172.609375 139.960938 170.042969 139.695312 168.511719 139.484375 C 166.535156 139.207031 165.027344 138.894531 161.851562 138.152344 C 160.207031 137.761719 158.386719 137.351562 157.832031 137.25 C 157.265625 137.140625 156.800781 137.019531 156.800781 136.960938 C 156.800781 136.917969 157.234375 136.496094 157.777344 136.03125 C 158.832031 135.097656 160.253906 134.109375 161.496094 133.417969 C 162.441406 132.898438 162.40625 132.898438 164.570312 133.609375 Z M 154.414062 133.207031 C 154.847656 133.265625 155.355469 133.34375 155.558594 133.375 L 155.921875 133.441406 L 155.058594 134.363281 C 154.582031 134.863281 154.070312 135.53125 153.914062 135.828125 C 153.757812 136.128906 153.625 136.394531 153.613281 136.40625 C 153.601562 136.429688 152.980469 136.363281 152.226562 136.261719 C 151.472656 136.164062 150.117188 136.019531 149.230469 135.953125 L 147.609375 135.820312 L 148.265625 134.761719 C 148.628906 134.1875 149.03125 133.574219 149.152344 133.398438 L 149.375 133.097656 L 151.503906 133.097656 C 152.683594 133.097656 153.992188 133.152344 154.414062 133.207031 Z M 206.710938 148.765625 C 208.976562 148.976562 212.382812 149.765625 214.058594 150.457031 C 214.980469 150.832031 216.066406 151.621094 216.457031 152.1875 C 217.433594 153.585938 216.535156 154.929688 213.992188 155.917969 C 213.449219 156.128906 212.683594 156.351562 212.292969 156.40625 C 211.363281 156.5625 206.933594 156.5625 205.554688 156.40625 C 204.433594 156.285156 203.070312 155.898438 202.46875 155.519531 C 202.28125 155.40625 202.058594 155.308594 201.980469 155.308594 C 201.726562 155.308594 200.460938 154.320312 199.871094 153.675781 C 198.894531 152.566406 198.441406 151.300781 198.761719 150.53125 C 199.339844 149.132812 202.746094 148.378906 206.710938 148.765625 Z M 152.125 160.828125 C 147.875 166.234375 146.53125 167.800781 143.980469 170.390625 C 140.59375 173.832031 138.140625 175.953125 136.121094 177.175781 L 135.1875 177.730469 L 134.644531 177.207031 C 134.34375 176.917969 133.023438 175.917969 131.710938 174.988281 C 129.125 173.144531 128.714844 172.964844 128.714844 173.652344 C 128.714844 174.03125 129.160156 174.855469 129.96875 175.953125 C 130.578125 176.785156 131.070312 177.253906 132.300781 178.164062 C 133.53125 179.074219 133.632812 179.273438 133.265625 179.984375 C 132.933594 180.628906 132 181.859375 131.144531 182.78125 L 130.425781 183.550781 L 129.636719 182.339844 C 127.949219 179.738281 127.703125 179.019531 127.0625 174.574219 C 126.574219 171.253906 126.140625 169.367188 125.386719 167.136719 C 124.996094 165.96875 124.875 166.167969 126.472656 165.226562 C 130.480469 162.859375 135.34375 161.28125 140.480469 160.707031 C 143.167969 160.40625 147.796875 160.148438 151.339844 160.105469 L 152.714844 160.082031 Z M 278.253906 216.019531 C 278.710938 216.410156 278.898438 216.875 278.976562 217.851562 C 279.109375 219.417969 278.878906 220.90625 277.46875 227.546875 C 275.980469 234.535156 275.558594 237.34375 275.546875 240.320312 C 275.535156 242.453125 275.667969 243.183594 276.289062 244.515625 C 277.402344 246.914062 278.6875 247.804688 284.015625 249.8125 C 285.027344 250.191406 285.894531 250.535156 285.9375 250.589844 C 286.058594 250.703125 283.640625 252.902344 282.21875 253.980469 C 280.1875 255.523438 278.820312 256.175781 277.667969 256.1875 C 276.945312 256.199219 276.914062 256.1875 276.492188 255.765625 C 275.371094 254.691406 274.691406 252.480469 274.347656 248.882812 C 274.257812 247.902344 274.238281 246.214844 274.28125 243.496094 C 274.390625 236.855469 274.890625 231.492188 276.144531 223.550781 C 277.089844 217.566406 277.46875 215.722656 277.757812 215.722656 C 277.832031 215.722656 278.054688 215.855469 278.253906 216.019531 Z M 283.039062 217.71875 C 282.972656 218.785156 282.453125 223.050781 282.175781 224.816406 C 281.753906 227.570312 281.109375 230.746094 280.074219 235.265625 C 279.566406 237.5 279.109375 239.628906 279.066406 240.007812 C 278.910156 241.417969 279.511719 242.527344 280.574219 242.816406 C 281.609375 243.09375 282.550781 242.785156 287.679688 240.484375 C 292.566406 238.296875 294.207031 237.441406 295.707031 236.300781 C 296.074219 236.03125 296.382812 235.820312 296.40625 235.84375 C 296.460938 235.898438 294.273438 239.699219 293.273438 241.261719 C 291.988281 243.304688 289.632812 246.515625 288.15625 248.25 L 287.847656 248.613281 L 287.457031 248.394531 C 287.246094 248.257812 286.25 247.859375 285.238281 247.503906 C 280.519531 245.792969 279.5 245.207031 278.710938 243.71875 C 278.121094 242.628906 277.988281 241.808594 278.054688 239.652344 C 278.144531 236.765625 278.609375 233.921875 280.21875 226.492188 C 281.285156 221.605469 281.398438 220.839844 281.40625 218.597656 L 281.40625 216.644531 L 282.242188 216.929688 L 283.074219 217.21875 Z M 286.625 218.886719 C 288.15625 219.773438 289 220.351562 291.597656 222.316406 C 294.863281 224.773438 296.515625 225.859375 298.679688 226.949219 C 299.292969 227.25 299.78125 227.515625 299.78125 227.546875 C 299.78125 227.570312 299.203125 228.480469 298.492188 229.570312 C 296.40625 232.769531 294.828125 234.15625 291.398438 235.820312 C 289.554688 236.722656 282.40625 239.886719 281.984375 239.984375 C 281.53125 240.109375 281.519531 240.207031 282.863281 234.066406 C 284.050781 228.625 284.496094 225.75 284.683594 222.230469 C 284.78125 220.320312 284.773438 219.453125 284.628906 218.253906 L 284.570312 217.84375 L 285.039062 218.042969 C 285.304688 218.152344 286.015625 218.53125 286.625 218.886719 Z M 286.625 218.886719 " fill-opacity="1" fill-rule="nonzero"/></g><path fill="#000000" d="M 214.335938 79.257812 C 214.371094 79.703125 214.480469 80.46875 214.570312 80.957031 C 214.859375 82.433594 215.003906 85.476562 214.859375 86.898438 C 214.625 89.296875 214.046875 91.542969 213.304688 92.941406 C 212.761719 93.960938 212.738281 94.230469 213.183594 94.230469 C 213.980469 94.230469 215.136719 92.628906 215.789062 90.621094 C 216.757812 87.632812 216.976562 84.734375 216.421875 82.511719 C 216.113281 81.300781 215.234375 79.214844 214.871094 78.804688 C 214.371094 78.25 214.269531 78.335938 214.335938 79.257812 Z M 214.335938 79.257812 " fill-opacity="1" fill-rule="nonzero"/><path fill="#000000" d="M 185.929688 87.277344 C 185.886719 87.453125 185.984375 87.875 186.207031 88.453125 C 186.726562 89.796875 187.605469 92.71875 187.9375 94.164062 C 188.09375 94.863281 188.339844 96.417969 188.480469 97.617188 C 188.617188 98.816406 188.792969 99.847656 188.859375 99.914062 C 189.226562 100.28125 189.792969 99.238281 190.003906 97.78125 C 190.167969 96.640625 190.082031 94.128906 189.824219 92.785156 C 189.4375 90.742188 188.835938 89.429688 187.671875 88.109375 C 186.738281 87.054688 186.074219 86.734375 185.929688 87.277344 Z M 185.929688 87.277344 " fill-opacity="1" fill-rule="nonzero"/><path fill="#000000" d="M 107.191406 109.554688 C 106.292969 109.742188 105.304688 110.296875 104.648438 110.976562 C 103.9375 111.699219 103.472656 112.507812 102.972656 113.886719 C 102.792969 114.40625 102.503906 115.152344 102.351562 115.539062 C 101.695312 117.09375 100.839844 120.636719 100.628906 122.601562 C 100.328125 125.445312 101.183594 127.421875 103.160156 128.421875 C 104.449219 129.078125 107.3125 129.378906 111.453125 129.300781 C 113.527344 129.253906 113.851562 129.234375 114.394531 129.011719 C 116.226562 128.289062 117.070312 126.84375 117.757812 123.269531 C 118.546875 119.203125 118.414062 116.726562 117.28125 114.574219 C 116.714844 113.484375 116.015625 112.6875 114.90625 111.851562 C 113.796875 111.042969 111.839844 110.078125 110.675781 109.765625 C 109.675781 109.511719 107.921875 109.398438 107.191406 109.554688 Z M 110.042969 112.5625 C 111.996094 113.074219 114.015625 114.519531 114.695312 115.894531 C 114.828125 116.171875 115.027344 116.71875 115.128906 117.105469 C 115.570312 118.859375 114.894531 124.378906 114.050781 125.757812 C 113.640625 126.421875 113.351562 126.480469 110.121094 126.390625 C 105.046875 126.269531 104.117188 126.058594 103.605469 124.914062 C 103.226562 124.046875 103.304688 122.878906 103.960938 119.9375 C 104.269531 118.527344 104.660156 116.929688 104.804688 116.382812 C 105.859375 112.574219 106.980469 111.753906 110.042969 112.5625 Z M 110.042969 112.5625 " fill-opacity="1" fill-rule="nonzero"/><path fill="#000000" d="M 118.667969 95.0625 C 117.113281 95.304688 114.726562 96.0625 113.339844 96.75 C 111.164062 97.839844 108.957031 99.582031 108.957031 100.214844 C 108.957031 100.503906 109.945312 100.25 112.175781 99.394531 C 116.203125 97.828125 118.015625 97.40625 120.667969 97.394531 C 122.066406 97.394531 122.609375 97.4375 123.21875 97.605469 C 124.398438 97.925781 126.316406 98.714844 127.527344 99.394531 C 128.757812 100.082031 129.382812 100.203125 129.382812 99.75 C 129.382812 99.117188 127.839844 97.328125 126.5625 96.472656 C 125.628906 95.851562 123.796875 95.195312 122.464844 95.019531 C 121.355469 94.863281 119.800781 94.882812 118.667969 95.0625 Z M 118.667969 95.0625 " fill-opacity="1" fill-rule="nonzero"/><path fill="#000000" d="M 136.496094 117.105469 C 134.953125 117.804688 133.167969 120.902344 131.769531 125.324219 C 130.359375 129.753906 129.804688 131.03125 127.726562 134.6875 C 125.429688 138.71875 124.707031 140.527344 124.707031 142.257812 C 124.695312 143.769531 125.316406 144.980469 125.929688 144.648438 C 126.0625 144.582031 126.160156 144.503906 126.160156 144.46875 C 126.160156 144.4375 126.371094 143.601562 126.617188 142.613281 C 127.195312 140.347656 127.582031 139.472656 129.304688 136.40625 C 131.835938 131.886719 132.402344 130.585938 133.542969 126.632812 C 134.210938 124.300781 135.097656 121.570312 135.753906 119.828125 C 135.917969 119.394531 136.308594 118.605469 136.617188 118.070312 C 136.929688 117.515625 137.140625 117.050781 137.085938 116.996094 C 137.03125 116.9375 136.773438 116.984375 136.496094 117.105469 Z M 136.496094 117.105469 " fill-opacity="1" fill-rule="nonzero"/></svg>