<svg xmlns="http://www.w3.org/2000/svg" xmlns:xlink="http://www.w3.org/1999/xlink" width="500" zoomAndPan="magnify" viewBox="0 0 375 374.999991" height="500" preserveAspectRatio="xMidYMid meet" version="1.0"><defs><clipPath id="e2940bea65"><path d="M 14.53125 0 L 360 0 L 360 375 L 14.53125 375 Z M 14.53125 0 " clip-rule="nonzero"/></clipPath></defs><g clip-path="url(#e2940bea65)"><path fill="#000000" d="M 176.554688 145.050781 L 178.566406 145.824219 C 175.425781 150.257812 167.113281 152.050781 165.96875 148.976562 C 167.875 148.671875 169.921875 149.910156 171.726562 148.511719 L 170.902344 148 C 171.675781 147.570312 172.375 148.347656 173.21875 147.824219 C 172.492188 147.1875 172.023438 146.398438 171.804688 145.460938 C 170.347656 146.171875 169.003906 146.742188 167.753906 147.46875 C 166.371094 148.242188 165.234375 147.878906 164.023438 147.113281 C 163.175781 146.574219 163.253906 145.96875 163.691406 145.269531 C 164.023438 144.789062 164.425781 144.347656 164.804688 143.878906 C 161.933594 142.332031 161.339844 140.886719 164.898438 137.558594 C 163.507812 136.015625 164.433594 135.296875 165.753906 134.046875 C 169.316406 130.777344 173.433594 128.519531 178.105469 127.273438 C 177.164062 123.511719 176.175781 119.855469 175.363281 116.164062 C 174.816406 113.695312 174.59375 111.152344 174.097656 108.671875 C 173.410156 105.320312 173.1875 105.230469 169.828125 104.949219 C 166.140625 104.632812 162.480469 104.105469 158.851562 103.367188 C 157.378906 108.054688 155.710938 112.542969 153.015625 116.574219 C 150.945312 119.695312 148.628906 122.625 146.070312 125.355469 C 145.296875 126.195312 144.464844 126.96875 143.566406 127.671875 C 139.933594 130.421875 138.867188 130.113281 136.164062 126.523438 C 132.667969 121.886719 128.941406 117.417969 125.296875 112.890625 C 121.4375 108.109375 118.882812 102.804688 118.226562 96.609375 C 117.996094 94.808594 118.082031 93.019531 118.480469 91.246094 C 118.875 89.472656 119.5625 87.820312 120.542969 86.289062 C 122.726562 82.847656 124.6875 79.253906 124.941406 75.066406 C 125.183594 71.558594 125.03125 68.070312 124.476562 64.59375 C 124.191406 65.492188 124.664062 66.640625 123.511719 67.238281 C 123.058594 66.710938 123.992188 65.359375 122.386719 65.390625 C 121.890625 66.933594 123.15625 67.855469 124.09375 69.183594 C 122.410156 68.613281 122.175781 67.128906 121.082031 66.332031 C 119.175781 68.464844 116.890625 70 113.855469 69.632812 C 111.957031 69.398438 110.082031 68.921875 108.207031 68.527344 C 107.429688 68.417969 106.8125 68.050781 106.34375 67.421875 C 104.609375 64.480469 102.023438 61.785156 102.085938 58.199219 C 102.085938 55.882812 102.269531 53.566406 102.316406 51.179688 C 102.335938 50.433594 102.492188 49.722656 102.792969 49.042969 C 103.09375 48.359375 103.515625 47.761719 104.050781 47.25 C 104.222656 47.125 104.367188 46.976562 104.480469 46.800781 C 104.59375 46.625 104.671875 46.433594 104.710938 46.226562 C 104.753906 46.019531 104.753906 45.8125 104.714844 45.605469 C 104.675781 45.402344 104.597656 45.207031 104.484375 45.03125 C 106.027344 46.28125 106.800781 45.164062 107.820312 44.808594 C 107.300781 43.71875 106.652344 44.855469 106.097656 44.539062 C 106.136719 44.289062 106.21875 44.054688 106.339844 43.835938 C 106.464844 43.617188 106.621094 43.425781 106.808594 43.257812 C 107 43.09375 107.210938 42.96875 107.445312 42.878906 C 107.679688 42.789062 107.921875 42.742188 108.175781 42.738281 C 109.578125 42.589844 110.097656 41.796875 110.191406 40.480469 C 110.265625 39.214844 110.414062 37.957031 110.644531 36.707031 C 110.84375 35.699219 111.132812 34.71875 111.515625 33.765625 C 111.898438 32.8125 112.367188 31.90625 112.921875 31.039062 C 113.476562 30.175781 114.105469 29.371094 114.8125 28.625 C 115.519531 27.882812 116.289062 27.210938 117.121094 26.609375 C 117.953125 26.011719 118.835938 25.492188 119.765625 25.0625 C 120.695312 24.628906 121.660156 24.285156 122.65625 24.035156 C 123.648438 23.785156 124.660156 23.628906 125.683594 23.566406 C 126.707031 23.507812 127.730469 23.542969 128.746094 23.675781 C 130.570312 23.898438 132.304688 23.335938 134.113281 23.429688 C 136.808594 23.457031 139.394531 24.011719 141.871094 25.089844 C 142.441406 23.730469 143.003906 22.410156 143.550781 21.089844 C 143.863281 20.316406 143.9375 19.398438 144.464844 18.894531 C 148.59375 14.957031 150.984375 9.234375 156.675781 6.894531 C 157.242188 6.648438 157.683594 6.261719 158.003906 5.734375 C 161.050781 1.324219 164.640625 0.0585938 169.699219 1.5625 C 169.945312 1.671875 170.203125 1.734375 170.46875 1.75 C 178.785156 1.070312 182.875 6.507812 186.21875 12.808594 C 188.535156 17.242188 188.902344 22.261719 189.816406 27.105469 C 190.015625 28.148438 190.316406 29.175781 190.492188 30.195312 C 190.902344 32.597656 191.945312 34.132812 194.714844 34.195312 C 196.328125 34.195312 197.417969 35.476562 198.238281 36.867188 C 198.878906 37.957031 199.710938 38.945312 200.25 40.082031 C 201.472656 42.589844 203.878906 43.222656 206.179688 44.058594 C 206.496094 44.199219 206.820312 44.226562 207.152344 44.136719 C 207.488281 44.046875 207.753906 43.859375 207.957031 43.578125 C 208.222656 43.21875 208.539062 42.910156 208.90625 42.652344 C 209.269531 42.394531 209.667969 42.199219 210.097656 42.070312 C 210.527344 41.941406 210.964844 41.886719 211.414062 41.898438 C 211.863281 41.910156 212.296875 41.996094 212.71875 42.152344 C 214.378906 42.597656 216.308594 42.152344 218.121094 41.972656 C 222.3125 41.480469 227.421875 45.703125 227.609375 49.929688 C 227.609375 50.5625 227.609375 51.164062 228.328125 51.402344 C 231.128906 52.324219 232.132812 54.800781 233.226562 57.15625 C 235.285156 61.800781 236.929688 66.589844 238.167969 71.515625 C 240.738281 80.960938 243.574219 90.324219 246.210938 99.746094 C 247.886719 105.738281 247.570312 111.925781 246.761719 118.066406 C 246.699219 118.617188 246.566406 119.148438 246.367188 119.664062 C 246.167969 120.179688 245.90625 120.664062 245.582031 121.109375 C 245.257812 121.558594 244.878906 121.957031 244.453125 122.308594 C 244.023438 122.660156 243.558594 122.949219 243.054688 123.179688 C 238.894531 125.300781 234.804688 127.558594 230.648438 129.695312 C 230.167969 129.914062 229.792969 130.253906 229.527344 130.710938 C 229.261719 131.171875 229.15625 131.664062 229.207031 132.191406 C 228.960938 137.179688 231.167969 141.699219 231.808594 146.519531 C 232.578125 152.28125 234.371094 157.804688 235.921875 163.394531 C 238.097656 171.25 238.113281 179.375 238.460938 187.445312 C 238.507812 188.488281 238.507812 189.246094 239.8125 189.6875 C 247.007812 192.101562 254.261719 193.988281 261.96875 193.222656 C 267.195312 192.707031 272.125 191.082031 277.050781 189.363281 C 293.4375 183.722656 310.097656 178.957031 326.847656 174.539062 C 327.273438 174.40625 327.6875 174.445312 328.082031 174.648438 L 322.609375 176.253906 C 306.625 180.972656 290.824219 186.296875 275.144531 191.910156 C 262.972656 196.273438 251.058594 195.824219 239.171875 191.230469 C 222.75 184.835938 207.359375 176.535156 192.996094 166.320312 C 192.375 166.035156 192.003906 165.554688 191.875 164.886719 L 198.578125 169.101562 L 198.785156 168.894531 C 196.585938 165.71875 194.332031 162.570312 192.183594 159.355469 C 189.867188 155.910156 187.714844 152.402344 185.429688 148.945312 C 183.691406 146.316406 183.59375 146.273438 180.960938 148.09375 C 179.152344 149.34375 177.347656 150.804688 175.234375 151.183594 C 173.566406 151.46875 171.96875 153.339844 170.097656 151.753906 C 169.953125 151.582031 169.828125 151.394531 169.730469 151.191406 C 169.945312 151.03125 170.191406 150.710938 170.332031 150.75 C 173.273438 151.585938 175.734375 150.148438 178.050781 148.835938 C 181.136719 147.097656 183.972656 144.972656 186.988281 143.136719 C 188.171875 142.417969 188.277344 141.707031 187.761719 140.527344 C 186.125 136.660156 184.535156 132.769531 182.992188 128.855469 C 182.9375 128.683594 182.851562 128.523438 182.738281 128.382812 C 182.625 128.238281 182.488281 128.125 182.332031 128.03125 C 182.175781 127.941406 182.007812 127.878906 181.828125 127.851562 C 181.648438 127.824219 181.46875 127.828125 181.292969 127.867188 C 178.785156 127.921875 176.492188 128.792969 174.152344 129.605469 C 170.710938 130.785156 168.316406 133.402344 165.582031 135.667969 C 168.839844 135.597656 170.894531 132.671875 173.859375 131.867188 C 172.378906 133.777344 170.558594 135.273438 168.394531 136.347656 C 166.222656 137.3125 165.019531 139.21875 163.523438 140.851562 C 163.386719 141.011719 163.328125 141.199219 163.34375 141.40625 C 163.359375 141.617188 163.449219 141.792969 163.609375 141.929688 C 163.871094 142.160156 164.175781 142.28125 164.523438 142.304688 C 164.867188 142.324219 165.1875 142.238281 165.476562 142.046875 C 167.160156 141.097656 168.824219 140.125 170.5 139.160156 C 170.792969 138.988281 171.078125 138.8125 171.375 138.65625 C 171.851562 138.402344 172.40625 138.070312 172.800781 138.65625 C 173.304688 139.429688 172.648438 139.792969 172.144531 140.0625 C 169.828125 141.320312 167.929688 143.113281 165.824219 144.640625 C 165.296875 145.019531 164.617188 145.28125 164.574219 146.503906 C 168.789062 146.28125 171.882812 143.414062 176.035156 141.871094 C 174.222656 143.792969 176.136719 144.1875 176.628906 145.121094 C 175.566406 145.273438 175.085938 144.179688 174.097656 143.9375 C 173.726562 144.164062 173.394531 144.4375 173.09375 144.75 C 172.632812 145.359375 173.003906 145.976562 173.265625 146.542969 C 173.449219 146.9375 173.898438 147.230469 174.238281 146.972656 C 175 146.339844 176.328125 146.363281 176.554688 145.050781 Z M 114.757812 58.640625 C 114.757812 58.546875 114.757812 58.449219 114.757812 58.355469 C 114.066406 57.195312 114.574219 55.480469 113.078125 54.695312 L 112.769531 54.695312 C 112.1875 54.382812 112.242188 54.03125 112.644531 53.605469 C 113.367188 52.871094 113.710938 51.988281 113.671875 50.957031 C 113.304688 51.027344 112.960938 51.160156 112.636719 51.34375 C 112.3125 51.53125 112.027344 51.761719 111.78125 52.039062 C 111.53125 52.320312 111.335938 52.628906 111.1875 52.972656 C 111.042969 53.316406 110.953125 53.671875 110.921875 54.042969 C 110.730469 55.203125 110.921875 56.300781 112.359375 56.671875 L 111.917969 57.921875 C 111.269531 57.976562 111.378906 57.148438 110.890625 57.027344 C 109.410156 54.074219 110.484375 51.8125 112.945312 49.972656 C 111.695312 49.078125 111.695312 49.078125 111.207031 49.664062 C 108.5 52.980469 108.121094 55.691406 110.011719 57.890625 C 110.660156 59.472656 111.554688 60.71875 113.53125 60.433594 C 112.691406 59.730469 111.78125 59.148438 111.886719 57.882812 C 112.960938 57.769531 112.953125 59.800781 114.320312 59.121094 Z M 132.515625 35.46875 C 132.515625 35.902344 131.796875 36.035156 132.003906 36.613281 C 132.410156 36.523438 132.6875 36.285156 132.847656 35.902344 C 134.859375 34.265625 136.707031 32.511719 137.222656 29.808594 C 137.855469 29.21875 138.296875 28.507812 138.542969 27.679688 C 138.792969 26.851562 138.816406 26.015625 138.613281 25.175781 C 137.300781 24.878906 136.117188 24.488281 134.753906 24.949219 C 136.367188 24.949219 136.519531 25.9375 136.390625 27.113281 C 136.296875 27.886719 136.1875 28.65625 136.089844 29.476562 Z M 122.480469 47.054688 C 122.441406 47.582031 121.589844 47.355469 121.605469 47.957031 C 123.859375 48.414062 127.210938 46.910156 127.734375 45.117188 C 125.820312 45.511719 124.363281 46.953125 122.433594 47.09375 C 124.371094 45.550781 126.957031 44.90625 128.832031 42.96875 C 127.027344 42.699219 122.261719 45.195312 120.859375 47.046875 Z M 151.171875 14.359375 C 153.195312 12.667969 155.472656 14.707031 157.679688 14.050781 C 156.566406 12.816406 154.929688 13.226562 153.757812 12.375 C 154.53125 11.796875 155.425781 12.375 156.195312 11.945312 L 155.308594 11.574219 L 155.308594 11.332031 L 158.683594 11.332031 C 157.757812 10.816406 157.070312 10.792969 156.730469 10.304688 C 157.726562 9.210938 158.589844 11.078125 159.53125 10.222656 C 156.542969 8.492188 152.28125 10.609375 151 14.414062 C 148.6875 15.503906 147.082031 17.375 145.289062 19.636719 C 146.59375 19.636719 147.808594 19.3125 148.941406 18.664062 C 148.777344 17.992188 148.167969 18.269531 147.929688 17.890625 C 149.566406 17.738281 151.125 18.308594 153.015625 18.484375 C 152.121094 17.550781 151.171875 17.472656 149.890625 17.078125 L 152.207031 16.855469 L 152.207031 16.671875 L 149.535156 16.421875 C 150.398438 16.183594 151.273438 16.207031 152.105469 16.039062 C 152.605469 15.945312 152.824219 15.1875 153.648438 15.542969 C 154.421875 15.773438 155.210938 15.902344 156.019531 15.921875 C 155.40625 15.238281 154.664062 14.753906 153.789062 14.46875 C 152.917969 14.1875 152.03125 14.144531 151.132812 14.339844 Z M 153.277344 47.101562 C 152.035156 46.597656 151.597656 45.015625 150.191406 44.785156 C 148.332031 46.476562 147.9375 46.390625 145.898438 43.949219 C 146.332031 42.839844 148.039062 43.0625 148.214844 41.765625 C 147.234375 40.621094 146.078125 41.625 144.839844 41.492188 C 145.9375 39.949219 147.558594 39.5625 149.070312 39.128906 C 147.828125 36.226562 146.640625 33.460938 145.421875 30.636719 C 144.214844 36.9375 141.429688 42.058594 136.320312 45.78125 C 135.144531 46.636719 133.933594 47.242188 134.074219 49.164062 C 134.164062 50.335938 133.078125 49.988281 132.390625 49.417969 C 132.90625 48.277344 131.886719 48.644531 131.441406 48.453125 C 129.503906 49.226562 129.480469 50.570312 130.214844 52.167969 C 130.425781 52.625 130.703125 53.039062 131.039062 53.414062 C 131.378906 53.789062 131.761719 54.105469 132.195312 54.367188 C 132.625 54.628906 133.085938 54.820312 133.574219 54.945312 C 134.0625 55.066406 134.558594 55.117188 135.0625 55.09375 C 135.222656 55.914062 134.667969 56.054688 134.113281 55.921875 C 131.117188 55.242188 129.640625 53.0625 128.871094 50.207031 C 127.945312 50.578125 127.945312 51.234375 127.96875 51.914062 C 127.96875 52.910156 127.96875 53.914062 128.042969 54.917969 C 128.152344 57.636719 128.042969 60.324219 125.9375 62.386719 C 125.414062 62.910156 125.75 63.5 125.835938 64.085938 C 126.832031 70.960938 126.609375 77.65625 123.265625 83.980469 C 121.226562 87.84375 121.722656 90.011719 125.15625 93.0625 C 125.296875 91.90625 125.40625 90.746094 125.574219 89.65625 C 125.96875 87.007812 126.777344 84.539062 129.132812 82.976562 C 131.820312 81.195312 134.730469 79.90625 137.855469 79.117188 C 140.519531 78.429688 143.058594 79.191406 145.835938 79.570312 C 141.976562 75.769531 141.28125 71.316406 141.902344 66.441406 C 142.15625 64.519531 143.175781 63.515625 145.226562 63.4375 C 147.027344 63.300781 148.8125 63.070312 150.585938 62.742188 C 151.441406 62.617188 152.304688 62.179688 152.128906 61.242188 C 151.75 59.097656 152.40625 56.429688 149.574219 55.304688 C 149.386719 55.234375 149.320312 54.886719 149.203125 54.679688 C 149.859375 53.644531 151.265625 54.222656 151.835938 53.296875 C 151.988281 53.074219 152.089844 52.828125 152.140625 52.5625 C 152.191406 52.296875 152.1875 52.035156 152.128906 51.769531 C 152.066406 51.507812 151.957031 51.265625 151.796875 51.050781 C 151.636719 50.832031 151.4375 50.65625 151.203125 50.523438 C 154.25 49.242188 154.25 49.242188 153.210938 47.054688 C 154.089844 47.503906 154.789062 48.148438 155.300781 48.992188 C 154.660156 50.609375 152.839844 51.179688 152.984375 53.496094 C 153.132812 55.8125 152.53125 58.039062 152.984375 60.324219 C 153.347656 62.085938 152.722656 63.152344 151 63.628906 C 149.175781 64.03125 147.328125 64.289062 145.460938 64.402344 C 144.394531 64.535156 143.445312 64.8125 143.144531 65.945312 C 142.492188 68.410156 142.578125 70.847656 143.398438 73.261719 L 145.476562 72.011719 C 148.5 70.242188 150.878906 67.636719 153.59375 65.507812 C 158.148438 61.96875 163.261719 59.390625 168.792969 56.839844 C 166.765625 56.839844 165.398438 56.128906 165.097656 54.523438 C 164.679688 52.308594 162.007812 51.574219 161.917969 49.234375 C 161.917969 49.179688 161.707031 49.09375 161.59375 49.078125 C 160.226562 48.917969 159.453125 48.144531 159.386719 46.515625 C 158.804688 48.382812 157.441406 48.058594 156.296875 47.875 C 154.890625 47.65625 154.921875 46.4375 154.890625 45.363281 C 154.839844 43.554688 154.839844 41.75 154.777344 39.957031 C 154.777344 39.238281 154.777344 38.480469 153.8125 38.21875 C 152.160156 37.761719 151.695312 36.367188 151.28125 34.90625 C 150.507812 32.234375 149.691406 29.578125 148.878906 26.890625 C 146.308594 28.921875 146.238281 29.082031 147.273438 31.800781 C 148.238281 34.351562 149.734375 36.820312 150.113281 39.449219 C 150.5 42.382812 151.332031 44.90625 153.277344 47.101562 Z M 192.601562 148.28125 C 193.691406 147.761719 194.53125 147.375 195.363281 146.96875 C 201.949219 143.730469 208.914062 141.25 215.125 137.289062 C 223.800781 131.609375 232.808594 126.511719 242.144531 121.996094 C 242.609375 121.800781 243.039062 121.546875 243.433594 121.234375 C 243.828125 120.917969 244.171875 120.558594 244.46875 120.148438 C 244.765625 119.742188 245 119.300781 245.171875 118.828125 C 245.347656 118.351562 245.453125 117.867188 245.496094 117.363281 C 246.359375 110.464844 246.21875 103.628906 244.082031 96.941406 C 242.839844 93.078125 241.410156 89.265625 240.285156 85.355469 C 239.25 81.765625 237.96875 78.3125 237.457031 74.464844 C 236.488281 68.074219 234.5 62.019531 231.492188 56.300781 C 229.40625 52.230469 228.789062 52.007812 224.730469 53.835938 C 224.675781 53.835938 224.550781 53.726562 224.460938 53.675781 C 224.652344 53.0625 225.539062 53.125 225.648438 52.4375 C 223.820312 52.113281 222.003906 52.175781 220.199219 52.617188 C 218.398438 53.058594 216.761719 53.847656 215.289062 54.980469 C 213.683594 56.175781 212.109375 57.621094 210.285156 58.261719 C 206.734375 59.503906 205.144531 62.054688 204.304688 65.40625 C 204.074219 66.308594 203.71875 67.183594 203.476562 68.085938 C 200.644531 78.542969 197.535156 88.863281 191.898438 98.261719 C 190.054688 101.351562 187.976562 103.667969 184.417969 104.292969 C 182.644531 104.625 182.273438 105.707031 182.273438 107.3125 C 182.273438 111.269531 182.890625 115.167969 183.300781 119.085938 C 183.5 120.992188 183.152344 122.945312 183.917969 125.007812 L 194.375 119.015625 C 195.820312 118.1875 197.257812 117.128906 198.929688 117.039062 C 203.855469 116.753906 207.042969 112.953125 211.175781 111.066406 C 213.035156 110.21875 214.578125 108.613281 216.761719 108.171875 C 217.132812 108.125 217.480469 108.007812 217.800781 107.820312 C 218.125 107.628906 218.394531 107.382812 218.613281 107.082031 C 218.832031 106.777344 218.984375 106.445312 219.0625 106.078125 C 219.144531 105.714844 219.148438 105.347656 219.078125 104.980469 C 218.902344 103.445312 218.464844 101.984375 217.765625 100.601562 C 216.71875 98.355469 215.945312 96.011719 215.449219 93.582031 C 214.53125 88.800781 214.023438 83.957031 213.296875 79.144531 C 212.625 74.652344 214.277344 70.332031 216.191406 66.242188 C 215.652344 70.265625 214.144531 74.132812 214.269531 78.234375 C 214.394531 82.335938 215.480469 86.265625 215.773438 90.335938 C 216.144531 94.503906 217.359375 98.402344 219.425781 102.039062 C 220.667969 98.558594 222.523438 95.449219 224.992188 92.703125 C 223.285156 96.933594 219.835938 100.523438 220.359375 105.613281 C 224.636719 104.015625 227.640625 104.292969 228.851562 106.921875 C 223.871094 103.359375 221.085938 106.921875 218.042969 109.460938 C 218.320312 110.628906 219.914062 110.710938 220.304688 111.964844 C 219.441406 112.101562 219.203125 111.523438 218.855469 111.191406 C 216.300781 108.695312 215.242188 108.550781 212.8125 111.191406 C 211.636719 112.464844 210.171875 112.84375 208.851562 113.648438 C 205.164062 115.855469 201.292969 117.65625 197.234375 119.054688 C 192.664062 120.683594 188.519531 123.640625 184.425781 126.429688 C 184.246094 126.507812 184.089844 126.617188 183.957031 126.761719 C 183.824219 126.90625 183.726562 127.070312 183.660156 127.253906 C 183.597656 127.441406 183.578125 127.632812 183.597656 127.828125 C 183.613281 128.023438 183.671875 128.207031 183.769531 128.375 C 186.125 135.21875 189.628906 141.523438 192.59375 148.296875 Z M 147.628906 100.394531 C 148.214844 100.160156 148.800781 100.160156 149.386719 100.394531 C 156.476562 101.699219 163.5 103.367188 170.71875 103.878906 C 175.875 104.238281 181 104.480469 185.960938 102.5625 C 187.367188 102.023438 188.65625 101.390625 189.40625 99.992188 C 192.65625 93.929688 196.222656 88.019531 198.253906 81.378906 C 200.003906 75.632812 201.804688 69.902344 203.601562 64.171875 C 204.496094 61.304688 205.988281 58.996094 209.074219 57.992188 C 210.144531 57.585938 211.125 57.019531 212.015625 56.300781 C 216.191406 53.210938 220.507812 50.476562 226.132812 51.070312 C 223.539062 48.34375 220.066406 50.238281 216.824219 49.234375 C 219.914062 47.875 222.808594 47.6875 226.179688 47.8125 C 223.253906 43.132812 219.109375 45.03125 215.472656 44.515625 L 221.292969 43.671875 C 220.375 42.5 219.324219 42.777344 218.269531 42.847656 C 215.851562 43.015625 213.445312 44.167969 211.003906 42.847656 C 210.230469 42.4375 209.824219 43.222656 209.375 43.679688 C 207.785156 45.300781 206.289062 47.070312 204.605469 48.554688 C 200.835938 51.859375 197.917969 55.796875 195.851562 60.363281 C 191.171875 70.320312 184.679688 79.199219 178.785156 88.421875 C 178.589844 88.78125 178.339844 89.09375 178.035156 89.359375 C 177.726562 89.628906 177.382812 89.832031 177 89.972656 C 176.621094 90.117188 176.226562 90.1875 175.820312 90.183594 C 175.414062 90.183594 175.019531 90.113281 174.636719 89.96875 C 172.074219 89.195312 169.519531 88.421875 166.964844 87.648438 C 161.722656 86.105469 156.328125 85.078125 151.339844 82.722656 C 148.722656 81.496094 145.988281 80.644531 143.136719 80.164062 C 135.128906 78.785156 130.367188 82.445312 131.269531 90.578125 C 131.59375 93.382812 132.320312 96.082031 133.445312 98.675781 C 134.574219 101.265625 136.054688 103.636719 137.886719 105.785156 C 141.050781 109.609375 145.171875 111.015625 150.035156 110.417969 C 151.671875 110.226562 153.179688 109.730469 154.160156 108.273438 C 155.207031 106.542969 156.105469 104.742188 156.851562 102.867188 C 153.890625 101.628906 150.578125 101.96875 147.621094 100.378906 Z M 201.957031 166.699219 C 200.945312 167.09375 200.3125 166.40625 199.820312 167.085938 C 199.699219 167.257812 199.65625 167.445312 199.691406 167.648438 C 199.722656 167.855469 199.824219 168.019531 199.988281 168.144531 C 201.300781 169.441406 202.210938 171.070312 203.847656 172.152344 C 210.78125 176.707031 218.039062 180.65625 225.632812 183.992188 C 229.296875 185.757812 233.054688 187.289062 236.910156 188.589844 C 236.65625 181.257812 236.695312 174.152344 235.242188 167.210938 C 233.699219 159.910156 231.382812 152.796875 230.613281 145.3125 C 230.382812 142.449219 229.726562 139.6875 228.636719 137.027344 C 223.78125 139.875 219.007812 142.671875 214.246094 145.484375 C 210.070312 147.953125 205.585938 149.585938 200.800781 150.378906 C 198.074219 150.84375 195.394531 151.332031 192.710938 151.792969 C 195.03125 157.230469 198.109375 162.191406 201.949219 166.683594 Z M 173.347656 54.933594 C 172.171875 56.261719 170.753906 57.246094 169.097656 57.882812 C 167.035156 58.824219 164.972656 59.785156 162.921875 60.6875 C 162.011719 61.054688 161.222656 61.601562 160.5625 62.324219 C 159.898438 63.046875 159.425781 63.878906 159.136719 64.820312 C 157.679688 69.53125 157.132812 74.347656 157.492188 79.269531 C 157.453125 79.71875 157.527344 80.152344 157.714844 80.5625 C 157.898438 80.976562 158.171875 81.316406 158.535156 81.585938 C 162.636719 84.175781 166.5625 86.992188 171.503906 87.972656 C 177.085938 89.046875 176.460938 90.144531 179.949219 84.722656 C 185.300781 76.40625 190.933594 68.273438 195.257812 59.34375 C 197.417969 54.582031 200.503906 50.53125 204.519531 47.1875 C 205.25 46.722656 205.804688 46.101562 206.1875 45.324219 L 202.242188 43.957031 C 199.15625 49.242188 194.871094 53.125 190.191406 56.617188 C 189.535156 57.101562 188.886719 57.449219 189.058594 58.46875 C 189.265625 59.730469 188.480469 60.015625 187.460938 59.738281 C 185.835938 59.347656 184.242188 58.863281 182.675781 58.292969 C 181.261719 57.746094 180.761719 58.292969 180.40625 59.558594 C 179.5 62.726562 179.726562 65.914062 180.003906 69.121094 C 180.164062 71.082031 180.375 73.035156 180.566406 74.992188 C 179.425781 69.585938 178.066406 64.179688 179.300781 58.554688 C 176.40625 59.226562 175.980469 59.636719 175.789062 62.59375 C 175.65625 64.511719 175.789062 66.457031 175.789062 68.371094 C 175.363281 65.761719 175.015625 63.167969 175.65625 60.578125 C 175.765625 60.140625 175.851562 59.351562 175.65625 59.234375 C 174.003906 58.308594 174.269531 56.445312 173.347656 54.933594 Z M 162.265625 36.621094 C 161.714844 38.058594 161.027344 39.285156 159.476562 39.609375 C 157.386719 36.835938 157.160156 36.730469 155.179688 37.777344 C 156.019531 40.273438 155.664062 42.90625 155.949219 45.503906 C 156.152344 47.195312 156.769531 47.480469 158.117188 46.523438 C 158.515625 46.191406 158.964844 45.976562 159.46875 45.882812 C 159.972656 45.785156 160.46875 45.8125 160.960938 45.972656 C 160.960938 50.269531 164.257812 46.878906 165.5 48.042969 C 165.382812 48.429688 164.972656 48.359375 164.726562 48.515625 C 164.210938 48.824219 163.277344 48.515625 163.246094 49.550781 C 163.253906 49.886719 163.355469 50.199219 163.546875 50.476562 C 163.738281 50.757812 163.992188 50.960938 164.300781 51.09375 C 165.390625 51.789062 165.746094 52.972656 166.164062 54.089844 C 166.671875 55.480469 167.613281 55.867188 169.011719 55.503906 C 170.046875 55.203125 170.976562 54.703125 171.804688 54.015625 C 175.664062 51.023438 178.921875 47.625 180.035156 42.628906 C 180.421875 45.0625 179.132812 46.992188 178.242188 49.03125 C 177.671875 50.335938 178.242188 51.3125 179.65625 51.347656 C 180.285156 51.351562 180.832031 51.140625 181.292969 50.707031 C 185.589844 47.171875 189.496094 43.246094 193.011719 38.929688 C 193.328125 38.527344 193.742188 38.117188 193.652344 37.523438 C 193.464844 36.375 190.300781 33.847656 189.082031 33.910156 C 186.363281 34.039062 184.449219 32.914062 183.414062 30.363281 C 183.246094 29.949219 183.207031 29.445312 182.707031 29.222656 C 181.601562 34.984375 180.4375 36.574219 178.074219 35.191406 C 178.589844 35.183594 179.070312 35.046875 179.515625 34.78125 C 179.960938 34.515625 180.3125 34.160156 180.566406 33.707031 C 181.964844 31.269531 181.417969 26.925781 179.410156 24.925781 C 178.996094 24.46875 178.488281 24.167969 177.886719 24.027344 C 177.285156 23.886719 176.695312 23.929688 176.121094 24.15625 C 175.84375 24.234375 175.589844 24.359375 175.351562 24.523438 C 175.117188 24.6875 174.914062 24.886719 174.742188 25.117188 C 174.570312 25.347656 174.441406 25.601562 174.355469 25.875 C 174.265625 26.148438 174.226562 26.429688 174.230469 26.71875 C 174.09375 28.515625 173.398438 30.058594 172.144531 31.351562 C 170.214844 33.671875 169.472656 33.722656 167.867188 31.152344 C 167.621094 30.699219 167.3125 30.289062 166.941406 29.925781 C 166.574219 29.5625 166.164062 29.257812 165.707031 29.011719 C 165.25 28.769531 164.769531 28.59375 164.261719 28.492188 C 163.753906 28.386719 163.242188 28.359375 162.726562 28.402344 C 162 28.402344 161.277344 28.332031 160.703125 28.308594 C 160.050781 27.207031 160.660156 25.320312 159.253906 25.21875 C 156.105469 25.003906 152.863281 24.332031 149.757812 25.675781 C 150.269531 28.269531 150.957031 30.8125 151.828125 33.308594 C 152.992188 37.167969 152.984375 37.097656 156.597656 35.492188 C 158.449219 34.660156 160.367188 33.722656 162.734375 34.394531 C 161.964844 35.253906 161.027344 35.039062 160.335938 35.421875 C 159.640625 35.808594 158.699219 35.878906 157.832031 36.699219 C 158.945312 36.699219 158.820312 37.785156 159.609375 38.101562 Z M 121.535156 89.914062 C 123.707031 105.058594 131.195312 116.84375 142.117188 127.0625 C 134.496094 125.617188 121.816406 101.714844 120.941406 87.671875 C 120.1875 88.660156 119.738281 89.769531 119.597656 91.003906 C 118.496094 97.367188 120.371094 103.003906 123.796875 108.265625 C 127.734375 114.335938 132.792969 119.546875 136.921875 125.480469 C 139.554688 129.25 139.367188 129.992188 143.566406 126.253906 C 146.726562 123.480469 149.464844 120.34375 151.789062 116.839844 C 154.109375 113.335938 155.929688 109.589844 157.253906 105.597656 C 157.425781 105.089844 157.863281 104.59375 157.402344 103.863281 C 156.875 104.898438 156.359375 105.824219 155.941406 106.789062 C 154.4375 110.25 151.75 111.585938 148.082031 111.375 C 144.046875 111.144531 140.363281 110.007812 137.839844 106.742188 C 132.273438 99.414062 127.96875 91.71875 132.257812 82.121094 C 125.171875 84.644531 125.773438 90.761719 125.75 96.925781 Z M 228.28125 131.148438 C 227.40625 131.613281 226.796875 131.984375 226.148438 132.277344 C 222.242188 134.039062 219.394531 137.273438 215.921875 139.644531 C 215.867188 139.644531 215.828125 139.738281 215.765625 139.769531 C 212.679688 141.492188 209.855469 143.589844 206.589844 144.914062 C 205.222656 145.46875 203.863281 145.992188 202.527344 146.621094 C 200.304688 147.660156 198.191406 149.019531 195.582031 148.9375 C 195.253906 148.910156 194.960938 149 194.699219 149.199219 C 194.441406 149.402344 194.28125 149.664062 194.222656 149.988281 C 194.472656 150.066406 194.730469 150.113281 194.996094 150.132812 C 195.457031 150.132812 195.921875 150.070312 196.390625 150.03125 C 208.203125 149.105469 217.589844 142.535156 227.269531 136.71875 C 227.578125 136.585938 227.820312 136.378906 228 136.097656 C 228.179688 135.816406 228.265625 135.507812 228.257812 135.171875 C 228.242188 133.945312 228.28125 132.6875 228.28125 131.164062 Z M 156.746094 80.605469 C 156.398438 77.636719 156.40625 74.664062 156.761719 71.695312 C 157.121094 68.726562 157.824219 65.839844 158.867188 63.035156 C 153.109375 66.410156 149.367188 71.699219 143.621094 74.3125 C 143.898438 75.761719 144.609375 76.542969 145.882812 76.699219 C 149.816406 77.140625 153.4375 78.449219 156.746094 80.621094 Z M 116.117188 32.203125 C 114.40625 35.445312 114.699219 39.199219 113.410156 42.628906 C 114.90625 41.085938 117.269531 40.503906 118.25 38.511719 C 119.792969 35.421875 121.9375 32.78125 123.921875 30.015625 C 125.15625 28.285156 127.011719 27.320312 128.476562 25.699219 C 121.867188 25.234375 117.097656 28.300781 113.175781 32.9375 C 111.214844 35.253906 111.410156 38.234375 113.363281 39.765625 C 114.003906 37.113281 114.257812 34.371094 116.117188 32.203125 Z M 116.804688 44.558594 C 119.238281 43.578125 121.683594 42.683594 124.046875 41.59375 C 125.859375 40.832031 127.433594 39.726562 128.769531 38.28125 C 129.695312 37.207031 130.515625 36.011719 130.121094 34.566406 C 129.933594 33.765625 130.011719 32.992188 130.359375 32.25 C 131.164062 30.316406 131.789062 28.328125 132.242188 26.285156 C 131.03125 26.417969 130.699219 27.304688 130.253906 27.960938 C 128.105469 30.921875 126.832031 34.367188 122.980469 36.164062 C 119.636719 37.710938 117.476562 41.332031 114.15625 43.292969 L 118.28125 41.832031 C 118.007812 42.992188 116.226562 42.839844 116.804688 44.597656 Z M 186.402344 51.511719 C 186.390625 51.558594 186.390625 51.609375 186.402344 51.660156 C 186.402344 51.660156 186.503906 51.726562 186.550781 51.726562 C 187.746094 51.660156 188.179688 52.339844 188.324219 53.410156 C 188.460938 54.167969 188.640625 54.914062 188.863281 55.652344 C 192.40625 53.371094 195.574219 50.652344 198.367188 47.496094 C 201.734375 43.734375 201.734375 43.253906 198.546875 39.386719 C 198.417969 39.292969 198.28125 39.21875 198.136719 39.160156 C 196.183594 45.21875 190.789062 47.882812 186.402344 51.574219 Z M 193.351562 35 C 195.046875 36.011719 195.125 37.078125 194.355469 38.273438 C 193.761719 39.238281 193.117188 40.164062 192.417969 41.054688 C 189.269531 44.714844 185.875 48.121094 182.226562 51.28125 C 181.378906 52.050781 180.976562 53.71875 179.140625 52.824219 C 180.773438 54.023438 182.132812 53.359375 183.367188 52.398438 C 186.457031 50.027344 189.484375 47.632812 192.460938 45.164062 C 194.234375 43.78125 195.597656 42.070312 196.554688 40.035156 C 197.804688 37.277344 196.910156 35.695312 193.351562 35.058594 Z M 180.960938 106.957031 C 181.539062 109.003906 179.6875 110.449219 179.894531 112.304688 C 179.457031 112.496094 179.054688 111.917969 178.628906 112.542969 C 178.527344 115.679688 178.359375 118.953125 179.625 122.375 C 182.027344 117.886719 182.027344 117.886719 180.960938 107.019531 Z M 144.980469 77.339844 C 150.316406 81.617188 156.027344 83.886719 162.125 85.308594 C 156.84375 82.128906 151.953125 78.074219 144.980469 77.402344 Z M 135.347656 36.1875 C 138.257812 33.539062 141.082031 30.84375 142.371094 26.972656 C 141.664062 26.203125 140.789062 25.789062 139.746094 25.730469 C 139.402344 27.617188 138.800781 29.421875 137.941406 31.136719 C 137.015625 32.789062 135.800781 34.242188 135.347656 36.1875 Z M 116.503906 63.21875 C 113.75 65.230469 110.96875 64.765625 108.175781 63.21875 C 108.46875 66.308594 110.492188 67.675781 113.75 67.222656 C 114.203125 67.144531 114.621094 66.984375 115.011719 66.738281 C 115.398438 66.488281 115.722656 66.175781 115.984375 65.796875 C 116.242188 65.417969 116.417969 65 116.507812 64.550781 C 116.597656 64.097656 116.597656 63.648438 116.503906 63.199219 Z M 168.554688 6.105469 C 169.828125 5.988281 170.539062 5.867188 171.257812 5.867188 C 176.199219 5.867188 179.253906 8.917969 181.917969 12.59375 C 182.644531 13.605469 182.90625 15.019531 184.320312 15.621094 C 183.640625 8.863281 174.753906 3.285156 168.554688 6.082031 Z M 173.960938 15.675781 C 171.824219 15.277344 169.679688 15.191406 167.519531 15.410156 C 165.363281 15.632812 163.277344 16.152344 161.269531 16.972656 C 160.757812 17.15625 160.335938 17.46875 160.007812 17.902344 C 159.679688 18.335938 159.496094 18.824219 159.453125 19.367188 C 164.441406 18.191406 168.71875 15.195312 173.9375 15.652344 Z M 106.617188 49.148438 C 104.144531 50.507812 103.195312 52.238281 103.597656 54.261719 C 103.851562 55.582031 104.863281 55.488281 106.390625 55.898438 C 104.429688 53.304688 106.191406 51.355469 106.617188 49.148438 Z M 167.503906 5.703125 C 170.59375 4.351562 173.464844 3.71875 176.976562 4.832031 C 173.875 1.804688 169.730469 2.390625 167.503906 5.703125 Z M 102.910156 51.496094 C 104.105469 48.941406 106.3125 47.464844 108.832031 46.296875 C 105.582031 45.828125 103.644531 47.589844 102.910156 51.496094 Z M 168.070312 7.703125 C 170.917969 8.273438 173.472656 7.402344 175.609375 9.03125 L 176.066406 7.734375 C 173.597656 6.589844 171.109375 6.589844 168.070312 7.703125 Z M 164.859375 6.523438 C 164.324219 5.386719 165.4375 5.222656 165.136719 4.582031 C 162.820312 2.753906 161.183594 3.039062 159.730469 5.648438 C 161.460938 4.890625 163.089844 4.636719 164.859375 6.523438 Z M 163.714844 12.617188 C 166.671875 12.277344 169.597656 11.605469 172.601562 11.9375 C 169.566406 10.855469 166.632812 11.636719 163.714844 12.617188 Z M 105.875 61.027344 C 104.484375 59.90625 104.03125 58.363281 102.996094 56.996094 C 102.460938 60.277344 103.328125 61.636719 105.875 61.027344 Z M 170.515625 21.375 C 172.832031 21.453125 175.148438 20.71875 177.464844 20.601562 C 175.054688 20.03125 172.800781 20.726562 170.515625 21.375 Z M 168.292969 2.574219 C 166.363281 1.546875 164.710938 1.902344 162.980469 2.628906 C 164.765625 3.585938 166.441406 3.917969 168.292969 2.574219 Z M 167.882812 19.746094 C 170.078125 20.175781 172.058594 19.210938 174.128906 18.785156 C 171.945312 18.445312 169.863281 18.769531 167.882812 19.753906 Z M 149.164062 21.667969 C 147.117188 21.058594 145.574219 20.894531 144.117188 22.8125 C 146.101562 22.933594 147.265625 21.613281 149.164062 21.675781 Z M 166.078125 10.011719 C 167.621094 9.519531 169.34375 9.945312 171.1875 8.667969 C 169.363281 8.65625 167.660156 9.109375 166.078125 10.019531 Z M 229.066406 365.582031 C 228.949219 366.394531 228.5625 367.042969 227.902344 367.527344 L 236.578125 367.527344 L 236.578125 367.945312 L 228.789062 367.945312 C 229.769531 368.71875 230.640625 368.191406 231.328125 368.539062 C 229.714844 369.398438 227.785156 367.765625 226.195312 369.429688 L 238.097656 369.429688 L 238.097656 369.898438 L 226.089844 369.898438 L 226.089844 370.324219 L 252.527344 370.324219 L 252.527344 370.796875 C 246.800781 370.796875 241.070312 370.796875 235.34375 370.796875 C 229.515625 370.691406 223.71875 371.070312 217.953125 371.929688 L 220.976562 371.929688 L 220.976562 372.238281 L 219.164062 372.480469 L 219.164062 372.671875 L 222.5 372.671875 L 222.5 373.25 C 219.726562 373.25 216.941406 373.082031 214.183594 373.25 C 209.265625 373.636719 204.441406 374.917969 199.472656 374.875 C 197.261719 374.9375 195.066406 374.78125 192.886719 374.402344 C 189.90625 373.769531 189.367188 372.410156 191.15625 369.914062 C 191.652344 369.210938 192.191406 368.539062 192.878906 367.636719 C 189.492188 368.265625 186.175781 368.007812 182.929688 366.863281 C 181.316406 366.300781 179.71875 366.824219 178.203125 367.242188 C 174.222656 368.355469 170.113281 367.859375 166.101562 368.410156 C 165.660156 368.46875 165.234375 368.632812 164.277344 368.878906 C 167.226562 369.929688 169.773438 369.429688 172.136719 369.652344 C 166.488281 370.238281 161.453125 369.761719 160.328125 368.394531 C 160.226562 369.058594 160.132812 369.621094 160.042969 370.207031 C 153.71875 371.359375 147.367188 371.1875 141.027344 371.289062 C 136.148438 371.367188 131.261719 371.414062 126.363281 371.398438 C 124.894531 371.398438 123.273438 371.613281 122.378906 369.851562 C 122.164062 369.429688 121.050781 369.351562 120.339844 369.304688 C 115.917969 368.996094 111.523438 368.128906 107.0625 368.394531 C 105.601562 368.5 104.148438 368.691406 102.710938 368.964844 C 99.980469 369.449219 97.234375 369.542969 94.476562 369.242188 C 91.722656 368.945312 89.0625 368.265625 86.5 367.203125 C 86.289062 367.117188 85.996094 367.25 85.664062 367.28125 C 85.972656 367.472656 86.199219 367.605469 86.4375 367.753906 C 86.4375 367.753906 86.4375 367.867188 86.4375 367.753906 L 59.875 367.753906 L 59.875 367.226562 L 80.4375 367.226562 L 80.4375 366.917969 L 53.558594 366.253906 C 58.617188 366.617188 63.472656 364.585938 68.636719 365.34375 C 72.621094 365.929688 76.75 365.457031 80.816406 365.210938 C 71.359375 364.375 61.890625 364.128906 52.410156 364.035156 C 58.136719 363.15625 63.910156 364.46875 69.671875 363.597656 L 65.519531 363.597656 L 65.519531 363.148438 L 75.730469 363.148438 L 75.730469 362.785156 L 73.414062 362.664062 C 75.167969 362.308594 76.925781 362.308594 78.679688 362.664062 C 77.375 361.671875 76.246094 362.214844 75.3125 361.726562 C 76.386719 361.28125 77.628906 361.9375 78.671875 361 C 77.589844 356.777344 74.8125 354.351562 70.683594 353.316406 C 74.703125 353.417969 77.511719 355.425781 79.375 358.902344 C 79.796875 359.886719 80.351562 360.796875 81.035156 361.628906 C 82.4375 363.070312 83.835938 363.078125 85.285156 361.628906 L 85.410156 362.886719 C 86.898438 362.507812 88.777344 363.234375 89.441406 360.878906 C 87.558594 359.339844 85.921875 357.574219 84.535156 355.582031 C 83.144531 353.589844 82.054688 351.445312 81.265625 349.144531 C 85.21875 353.183594 87.332031 358.800781 92.070312 362.324219 L 90.527344 361.488281 C 89.671875 363.085938 88.808594 364.6875 87.828125 366.5 C 91.910156 367.597656 95.816406 368.425781 99.890625 368.121094 C 100.484375 368.085938 101.210938 367.945312 101.351562 367.265625 C 101.882812 364.601562 102.972656 361.945312 101.503906 358.769531 C 105.257812 361.859375 109.488281 363.34375 113.285156 365.78125 C 112.140625 366.074219 111.347656 365.148438 109.941406 365.21875 C 112.820312 366.816406 115.65625 367.296875 118.433594 367.835938 C 119.28125 368 120.15625 368.054688 121.003906 368.207031 C 122.417969 368.46875 123.320312 368.09375 123.460938 366.355469 L 116.882812 366.355469 C 117.382812 365.234375 116.378906 364.191406 117.238281 363.265625 C 117.585938 364.40625 118.046875 363.378906 118.316406 363.265625 C 122.367188 361.296875 126.636719 360.425781 131.132812 360.644531 C 131.652344 360.691406 132.167969 360.78125 132.675781 360.910156 C 133.089844 361.066406 133.492188 361.25 133.878906 361.464844 C 128.261719 361.464844 123.027344 361.085938 118.441406 365.085938 L 124.617188 365.527344 C 125.148438 366.40625 124.554688 367.117188 124.269531 367.796875 C 123.636719 369.296875 124.101562 369.90625 125.667969 369.976562 C 132.8125 370.425781 139.960938 370.480469 147.109375 370.136719 C 150.640625 369.90625 154.207031 370.0625 157.679688 369.234375 C 157.996094 369.15625 158.3125 369.066406 158.675781 368.964844 C 158.859375 367.125 158.097656 365.519531 157.964844 363.675781 C 153.980469 363.890625 150.144531 365.660156 145.914062 364.222656 C 147.207031 363.695312 148.542969 363.539062 149.921875 363.757812 C 152.5 364.199219 154.921875 363.226562 157.402344 362.746094 C 160.34375 362.175781 163.269531 361.519531 166.292969 362.167969 C 163.777344 362.523438 161.207031 362.625 158.765625 363.519531 C 159.03125 364.476562 159.738281 364.292969 160.3125 364.292969 C 162.980469 364.292969 165.644531 364.191406 168.308594 364.089844 C 171.210938 363.984375 174.144531 364.570312 177.054688 364.863281 C 181.015625 365.304688 184.914062 364.695312 189.003906 364.347656 C 188.621094 362.355469 188.023438 360.433594 187.214844 358.578125 L 174.152344 360.691406 C 176.296875 359.203125 178.359375 359.015625 180.328125 358.691406 C 182.386719 358.472656 184.417969 358.09375 186.417969 357.558594 C 187.898438 357.078125 189.507812 356.429688 190.167969 355.0625 C 191.210938 352.976562 192.808594 352.875 194.691406 353.109375 C 195.078125 353.15625 195.464844 353.175781 195.984375 353.222656 C 196.035156 350.8125 195.488281 348.589844 195.472656 346.273438 C 196.960938 350.335938 196.933594 354.707031 197.964844 358.847656 C 198.105469 358.910156 198.246094 359.03125 198.335938 359.007812 C 202.035156 357.890625 205.183594 360.089844 208.566406 360.785156 C 211.371094 361.34375 214.199219 361.707031 217.054688 361.867188 L 213.195312 361.867188 C 213.875 363.636719 215.757812 364.183594 216.285156 365.804688 C 216.066406 365.851562 215.855469 365.820312 215.65625 365.722656 C 215.453125 365.621094 215.304688 365.46875 215.210938 365.265625 C 212.125 361.1875 207.359375 361.574219 203.078125 360.691406 C 201.894531 360.453125 201.53125 361.574219 200.761719 362.019531 C 197.917969 363.816406 195.371094 365.960938 193.117188 368.453125 C 192.226562 369.261719 191.648438 370.253906 191.390625 371.429688 C 193.410156 372.855469 195.8125 372.828125 198.089844 372.972656 C 201.839844 373.234375 205.566406 373.042969 209.265625 372.402344 C 213.574219 371.699219 216.894531 369.3125 219.773438 366.339844 C 221.363281 364.699219 223.402344 364.214844 225.175781 363.171875 C 227.65625 361.734375 227.769531 361.820312 226.976562 358.984375 C 225.972656 355.386719 224.84375 351.816406 224.542969 348.058594 C 224.558594 347.636719 224.394531 347.304688 224.058594 347.058594 C 223.355469 346.542969 222.589844 346.144531 221.761719 345.863281 C 220.9375 345.585938 220.089844 345.433594 219.214844 345.417969 C 218.34375 345.398438 217.488281 345.511719 216.652344 345.753906 C 215.8125 346 215.03125 346.367188 214.308594 346.851562 C 210.625 349.277344 206.996094 351.78125 203.339844 354.242188 C 202.875 354.609375 202.347656 354.820312 201.757812 354.867188 C 202.171875 354.476562 202.527344 354.042969 203.007812 353.695312 C 206.558594 350.96875 210.132812 348.289062 213.683594 345.539062 C 214.496094 344.859375 215.425781 344.425781 216.46875 344.238281 C 217.511719 344.050781 218.535156 344.128906 219.535156 344.480469 C 221.234375 344.980469 222.898438 345.578125 224.527344 346.273438 C 227.238281 347.523438 229.714844 347.046875 232.164062 345.65625 C 236.101562 343.375 238.894531 340.015625 241.210938 336.195312 C 243.65625 332.140625 245.78125 327.867188 249.546875 324.761719 C 251.816406 322.882812 254.230469 321.222656 256.796875 319.773438 C 260.71875 317.578125 264.886719 318.089844 269.332031 318.398438 C 257.636719 318.136719 250.125 324.261719 244.460938 333.445312 C 241.21875 338.695312 237.875 343.855469 232.171875 346.875 C 231.207031 347.429688 230.175781 347.808594 229.082031 348.011719 C 227.992188 348.214844 226.894531 348.234375 225.792969 348.066406 C 225.988281 351.152344 226.984375 354.042969 227.792969 356.953125 C 228.257812 358.613281 229.011719 360.199219 228.867188 362.003906 C 228.773438 363.132812 229.640625 363.496094 230.558594 363.550781 C 231.773438 363.523438 232.96875 363.644531 234.15625 363.914062 L 229.699219 363.914062 L 229.699219 364.371094 L 234.742188 364.371094 C 232.566406 365.296875 230.496094 363.945312 229.035156 365.644531 Z M 188.527344 357.859375 C 189.367188 361.210938 189.597656 361.433594 192.5625 360.949219 C 194.105469 360.691406 195.75 360.699219 197.308594 359.996094 C 196.847656 358.105469 196.398438 356.257812 195.953125 354.4375 C 195.054688 354.375 194.324219 354.367188 193.636719 354.273438 C 192.949219 354.183594 192.175781 354.011719 191.773438 354.9375 C 191.066406 356.328125 189.980469 357.300781 188.527344 357.859375 Z M 200.875 360.421875 C 196.925781 360.285156 193.597656 361.773438 190.070312 361.835938 C 190.160156 362.566406 190.417969 363.234375 190.839844 363.835938 C 194.324219 363.804688 197.519531 362.632812 200.851562 360.445312 Z M 102.65625 365.054688 C 103.277344 364.761719 103.910156 364.503906 104.5625 364.285156 C 105.535156 363.992188 106.878906 364.136719 107.015625 365.003906 C 107.511719 367.984375 109.695312 366.769531 111.292969 367.050781 C 108.445312 365.335938 106.570312 362.269531 103.203125 361.296875 C 102.65625 362.390625 102.710938 363.589844 102.632812 365.0625 Z M 178.652344 365.96875 L 168.378906 364.808594 C 167.691406 366.59375 168.648438 366.957031 169.835938 366.996094 C 172.8125 367.023438 175.742188 366.683594 178.628906 365.976562 Z M 159.578125 365.714844 C 159.972656 367.542969 162.964844 368.097656 167.144531 367.21875 C 167.390625 366.046875 166.835938 365.675781 165.730469 365.675781 C 163.707031 365.75 161.707031 365.722656 159.554688 365.722656 Z M 227.730469 363.0625 L 223.871094 365.132812 C 223.5 365.335938 223.164062 365.566406 223.253906 366.046875 C 223.347656 366.523438 223.664062 366.640625 224.113281 366.71875 C 226.1875 367.066406 227.886719 365.503906 227.710938 363.070312 Z M 67.492188 366.03125 L 67.539062 366.214844 L 79.210938 366.214844 L 79.210938 366.03125 Z M 95.5625 218.78125 C 93.578125 221.515625 90.699219 223.289062 88.242188 225.523438 C 83.296875 230.027344 77.808594 233.839844 72.394531 237.765625 C 70.734375 238.960938 69.039062 238.761719 67.386719 239.261719 C 59.449219 241.820312 51.375 243.820312 43.164062 245.273438 C 36.6875 246.457031 30.164062 246.851562 23.59375 246.445312 C 22.761719 246.382812 21.917969 246.445312 20.507812 246.445312 C 25.910156 249.574219 26.257812 254.472656 26.433594 259.382812 C 26.695312 266.457031 26.867188 273.53125 27.082031 280.683594 C 26.371094 279.402344 26.480469 278.042969 26.425781 276.714844 C 26.148438 269.5 25.941406 262.273438 25.214844 255.089844 C 24.804688 251.019531 23.03125 248.5 20.027344 247.164062 C 19.195312 250.601562 16.359375 253.464844 17.25 257.273438 C 16.308594 256.726562 16.066406 256.347656 16.390625 254.957031 C 17.121094 252.242188 18.140625 249.636719 19.441406 247.140625 C 19.964844 246.035156 20.984375 245.804688 22.121094 245.78125 C 28.273438 245.746094 34.394531 245.285156 40.484375 244.40625 C 48.921875 243.046875 57.082031 240.5 65.433594 238.824219 C 68.664062 238.136719 71.636719 236.847656 74.347656 234.960938 C 80.105469 231.097656 85.226562 226.78125 89.183594 220.902344 C 96.828125 209.574219 106.375 199.757812 115.253906 189.40625 C 123.042969 180.324219 130.253906 170.785156 137.484375 161.261719 C 139.847656 158.171875 142.117188 154.96875 145.304688 151.996094 C 139.601562 154.535156 131.339844 148.09375 131.09375 142.882812 C 130.902344 138.648438 131.410156 134.871094 134.792969 131.992188 C 137.878906 129.332031 141.253906 129.734375 142.84375 132.902344 C 143.15625 133.578125 143.316406 134.289062 143.324219 135.03125 C 143.332031 135.777344 143.191406 136.488281 142.894531 137.171875 C 145.210938 137.746094 147.597656 137.761719 149.070312 139.859375 C 150.300781 141.621094 151.65625 143.304688 152.5 145.492188 C 150.957031 146.0625 150.007812 146.980469 149.984375 148.671875 C 149.957031 148.984375 149.839844 149.261719 149.636719 149.496094 C 149.429688 149.734375 149.175781 149.886719 148.871094 149.957031 C 148.730469 149.476562 149.148438 148.90625 148.625 148.480469 C 145.21875 149.050781 141.863281 150.289062 138.34375 149.183594 C 138.617188 148.835938 138.976562 148.699219 139.414062 148.773438 C 142.261719 149.167969 144.964844 148.320312 147.707031 147.808594 C 148.476562 147.660156 149.15625 147.429688 148.847656 146.316406 C 145.203125 145.910156 141.382812 146.9375 137.847656 145.28125 C 142.371094 145.4375 146.847656 145.144531 151.84375 145.027344 C 149.480469 142.078125 146.5 143.628906 144.363281 142.300781 C 143.984375 143.320312 144.886719 143.847656 144.261719 144.773438 C 143.808594 142.578125 142.277344 142.457031 140.527344 142.269531 C 138.9375 142.085938 137.175781 141.699219 136.089844 139.953125 C 142.867188 141.660156 146.726562 141.875 148.4375 140.679688 C 148.261719 140.195312 147.972656 139.792969 147.570312 139.472656 C 147.167969 139.148438 146.710938 138.957031 146.199219 138.886719 C 142.59375 138.203125 139.089844 137.171875 135.6875 135.796875 C 133.910156 135.027344 132.847656 135.796875 133.015625 137.699219 C 133.410156 142.125 134.058594 146.511719 138.351562 149.160156 C 140.007812 151.292969 141.929688 152.203125 144.734375 151.207031 C 146.085938 150.679688 147.46875 150.25 148.878906 149.917969 C 141.523438 156.683594 136.109375 165.015625 130.414062 173.085938 C 125.78125 179.636719 122.15625 186.796875 118.835938 194.089844 C 117.476562 197.070312 115.746094 199.835938 114.242188 202.738281 L 113.832031 203.292969 C 113.347656 202.667969 113.726562 202.128906 114.042969 201.632812 C 116.25 197.960938 118.179688 194.144531 119.832031 190.1875 C 122.285156 184.71875 125.652344 179.753906 128.429688 174.4375 C 115.222656 192.125 99.011719 207.347656 86.382812 225.988281 C 87.007812 225.484375 87.347656 225.214844 87.703125 224.929688 C 90.328125 222.890625 92.691406 220.503906 95.5625 218.78125 Z M 138.621094 135.367188 C 139.324219 135.289062 139.324219 134.523438 139.839844 134.332031 C 140.21875 134.761719 139.253906 135.414062 140.007812 135.722656 C 141.160156 136.199219 141.4375 134.710938 142.386719 134.734375 C 141.613281 131.992188 140.378906 131.148438 138.140625 131.804688 C 138.101562 132.996094 137.59375 134.261719 138.613281 135.359375 Z M 137.421875 131.953125 C 135.5 132.664062 135 133.148438 134.289062 134.894531 L 137.5625 135.179688 C 137.320312 134.109375 137.277344 133.03125 137.421875 131.945312 Z M 353.867188 217.683594 C 354.339844 218.128906 354.675781 218.660156 354.871094 219.277344 C 355.070312 219.894531 355.109375 220.523438 354.984375 221.160156 C 354.847656 222.464844 355.160156 223.65625 355.917969 224.726562 C 356.355469 225.347656 356.699219 226.011719 356.953125 226.722656 C 357.207031 227.4375 357.359375 228.167969 357.417969 228.921875 C 357.472656 229.675781 357.425781 230.425781 357.28125 231.167969 C 357.132812 231.90625 356.890625 232.617188 356.554688 233.292969 C 355.5625 235.1875 354.457031 237.011719 353.242188 238.769531 C 351.3125 241.78125 350.199219 245.101562 350.824219 248.664062 C 352.089844 255.929688 350.347656 262.441406 346.332031 268.449219 C 345.324219 269.890625 344.664062 271.476562 344.355469 273.207031 C 343.9375 276.039062 342.890625 278.613281 341.214844 280.933594 C 337.929688 285.273438 335.308594 289.988281 333.355469 295.074219 C 332.847656 296.410156 332.074219 297.578125 331.046875 298.574219 C 330.015625 299.566406 328.820312 300.296875 327.464844 300.757812 C 324.378906 301.917969 321.800781 304.023438 318.78125 305.300781 C 318.296875 305.507812 318.140625 305.957031 317.902344 306.351562 C 315.445312 310.40625 311.882812 313.433594 308.390625 316.515625 C 307.648438 317.121094 306.804688 317.480469 305.851562 317.59375 C 304.535156 317.777344 303.25 318.082031 301.992188 318.507812 C 297.207031 319.929688 292.953125 321.960938 290.96875 327.101562 C 288.722656 332.949219 284.199219 335.800781 278.054688 336.230469 C 277.398438 336.277344 276.757812 336.230469 276.277344 336.894531 C 274.859375 338.914062 273.445312 339.429688 271.0625 338.773438 C 270.617188 338.59375 270.179688 338.613281 269.75 338.828125 C 268.160156 339.683594 266.566406 338.757812 264.96875 338.789062 C 264.320312 338.789062 263.75 338.179688 263.320312 337.5 C 262.105469 335.605469 261.535156 333.476562 260.800781 331.398438 C 260.160156 329.605469 259.699219 327.707031 258.246094 326.300781 C 257.90625 326.6875 258.152344 326.964844 258.246094 327.265625 C 259.511719 330.570312 259.304688 331.1875 256.230469 332.972656 C 255.460938 333.40625 254.6875 333.746094 253.917969 334.132812 C 253.460938 334.355469 253.027344 334.585938 252.953125 335.21875 C 255.46875 334.070312 258.140625 333.414062 259.730469 330.742188 C 260.59375 333.210938 261.273438 335.484375 262.191406 337.691406 C 262.964844 339.613281 264.183594 340.867188 266.605469 340.664062 C 267.886719 340.558594 269.292969 340.015625 270.390625 340.285156 C 272.804688 340.875 274.6875 340.0625 276.496094 338.820312 C 277.550781 338.128906 278.695312 337.65625 279.929688 337.398438 C 285.652344 336.007812 290.335938 333.265625 292.480469 327.402344 C 292.746094 326.625 293.097656 325.890625 293.539062 325.199219 C 293.976562 324.503906 294.492188 323.875 295.085938 323.304688 C 295.675781 322.734375 296.324219 322.242188 297.035156 321.828125 C 297.742188 321.414062 298.488281 321.089844 299.273438 320.855469 C 301.296875 320.191406 303.34375 319.601562 305.375 318.960938 C 307.402344 318.320312 309.148438 317.617188 310.5 316.003906 C 312.433594 313.792969 314.492188 311.707031 316.675781 309.742188 C 317.441406 309.164062 318.011719 308.433594 318.394531 307.554688 C 318.710938 306.695312 319.300781 306.113281 320.164062 305.808594 C 323.175781 304.265625 326.03125 302.378906 329.15625 300.980469 C 332.28125 299.585938 333.949219 296.757812 335.015625 293.660156 C 336.378906 289.425781 338.4375 285.566406 341.191406 282.074219 C 343.210938 279.664062 344.507812 276.910156 345.089844 273.816406 C 345.414062 272.238281 346.042969 270.792969 346.972656 269.476562 C 350.738281 263.617188 353.148438 257.34375 352.007812 250.167969 C 351.726562 248.648438 351.699219 247.121094 351.921875 245.59375 C 352.148438 244.0625 352.609375 242.609375 353.3125 241.234375 C 354.222656 239.464844 355.394531 237.820312 356.445312 236.121094 C 359.015625 231.996094 359.371094 227.871094 356.382812 223.761719 C 355.960938 223.128906 355.828125 222.441406 355.980469 221.699219 C 356.121094 220.023438 356.335938 218.109375 354.832031 217.066406 C 353.179688 215.90625 352.738281 214.710938 353.621094 212.855469 C 351.328125 215.375 351.320312 215.382812 353.867188 217.691406 Z M 62.074219 345.972656 C 61.472656 344.351562 60.855469 342.664062 59.289062 341.730469 C 57.472656 340.65625 55.566406 339.816406 55.429688 337.273438 C 55.429688 336.710938 54.726562 336.171875 54.300781 335.660156 C 52.558594 333.691406 50.5 332.148438 48.125 331.027344 C 44.445312 329.097656 41.820312 326.253906 41.59375 321.882812 C 41.503906 320.644531 41.21875 319.453125 40.738281 318.308594 C 40.257812 317.164062 39.605469 316.125 38.785156 315.191406 C 35.390625 310.953125 30.84375 307.824219 27.578125 303.460938 C 26.96875 302.828125 26.5625 302.085938 26.351562 301.238281 C 26.3125 300.808594 26.160156 300.429688 25.894531 300.09375 C 25.628906 299.757812 25.289062 299.523438 24.882812 299.390625 C 22.566406 298.339844 22.328125 296.710938 24.058594 294.835938 C 25.742188 293.019531 27.566406 291.351562 29.523438 289.828125 C 33.882812 286.375 39.132812 284.640625 44.027344 282.207031 C 45.5 281.480469 46.960938 280.722656 48.417969 279.980469 C 45.507812 280.847656 42.863281 282.296875 40.089844 283.347656 C 34.039062 285.710938 28.511719 288.753906 24.066406 293.652344 C 21.632812 296.300781 21.507812 298.101562 24.480469 300.171875 C 24.734375 300.3125 24.953125 300.492188 25.140625 300.710938 C 25.328125 300.929688 25.472656 301.175781 25.574219 301.445312 C 25.675781 301.714844 25.726562 301.992188 25.726562 302.28125 C 25.730469 302.570312 25.683594 302.851562 25.585938 303.121094 C 23.269531 302.976562 21.417969 303.972656 19.609375 305.089844 C 17 306.707031 16.46875 309.238281 18.167969 311.789062 C 19.210938 313.332031 20.714844 314.5 22.113281 315.75 C 25.617188 318.894531 30.734375 319.71875 33.589844 323.78125 C 33.628906 323.84375 33.835938 323.78125 33.96875 323.78125 C 32.292969 321.640625 30.609375 319.679688 27.886719 318.597656 C 24.441406 317.113281 21.535156 314.914062 19.171875 312.003906 C 17.125 309.625 17.625 307.300781 20.335938 305.691406 C 21.460938 304.976562 22.648438 304.382812 23.894531 303.910156 C 25 303.539062 26.425781 303.207031 27.261719 304.296875 C 30.433594 308.472656 34.769531 311.523438 38.066406 315.59375 C 39.464844 317.332031 40.824219 319.171875 40.824219 321.472656 C 40.824219 326.105469 43.503906 328.996094 46.9375 331.414062 C 49.5 333.210938 52.25 334.75 54.402344 337.089844 C 54.757812 337.484375 55.445312 337.863281 55.28125 338.347656 C 54.511719 340.472656 56.246094 340.78125 57.449219 341.4375 C 60.476562 343.105469 61.023438 344.171875 60.253906 347.082031 Z M 186.125 354.535156 C 188.863281 351.847656 190.863281 348.582031 193.070312 345.484375 C 197.242188 339.652344 202.289062 334.957031 209.136719 332.417969 C 212.832031 331.042969 216.40625 329.28125 220.53125 329.804688 C 223 330.121094 224.113281 332.480469 222.605469 334.503906 C 221.71875 335.59375 220.746094 336.605469 219.6875 337.53125 C 218.378906 338.617188 217.3125 339.90625 216.484375 341.390625 C 219.0625 339.800781 221.28125 337.8125 223.148438 335.429688 C 225.347656 332.402344 223.917969 329.328125 220.296875 328.878906 C 219.160156 328.710938 218.03125 328.75 216.910156 329.003906 C 209.554688 330.824219 202.851562 333.914062 197.28125 339.261719 C 192.191406 344.164062 189.003906 350.558594 183.886719 356.003906 C 184.78125 355.742188 185.527344 355.25 186.125 354.535156 Z M 358.753906 200.476562 C 360.335938 192.683594 357.835938 185.800781 353.757812 179.335938 C 353.375 178.667969 352.828125 178.195312 352.113281 177.914062 C 350.777344 177.460938 349.9375 176.441406 349.027344 175.472656 C 347.484375 173.875 346.054688 172.199219 343.984375 171.234375 C 346.179688 173.753906 348.515625 176.132812 350.996094 178.371094 C 352.777344 179.914062 353.773438 181.714844 353.597656 184.132812 C 353.566406 185.417969 353.808594 186.652344 354.320312 187.832031 C 354.199219 186.1875 354.113281 185.121094 354.035156 184.046875 C 359.910156 192.382812 358.226562 200.898438 354.855469 209.480469 C 356.703125 206.714844 358 203.714844 358.753906 200.476562 Z M 289.140625 264.085938 C 293.046875 269.832031 296.859375 275.671875 302.402344 280.019531 C 303.53125 281.070312 304.5625 282.210938 305.488281 283.441406 C 305.996094 283.980469 306.417969 284.578125 306.765625 285.230469 C 307.109375 285.882812 307.363281 286.570312 307.527344 287.292969 C 307.6875 288.011719 307.75 288.742188 307.71875 289.480469 C 307.683594 290.21875 307.554688 290.941406 307.328125 291.644531 C 307.210938 292.078125 306.769531 292.5 307.328125 292.996094 C 307.890625 291.769531 308.21875 290.480469 308.316406 289.132812 C 308.699219 285.417969 306.648438 282.707031 304.355469 280.289062 C 298.09375 273.710938 291.949219 267.042969 286.824219 259.507812 C 285.132812 256.859375 283.128906 254.472656 280.808594 252.355469 C 283.542969 256.261719 286.40625 260.125 289.140625 264.085938 Z M 49.902344 341.808594 C 53.878906 346.621094 58.386719 350.867188 63.425781 354.550781 C 65.089844 355.9375 66.984375 356.855469 69.097656 357.308594 C 65.238281 356.335938 64.011719 352.621094 61.457031 350.304688 C 60.574219 349.398438 60.140625 348.3125 60.160156 347.046875 C 58.996094 347.980469 60.160156 349.214844 59.78125 350.390625 C 58.566406 349.644531 57.46875 348.753906 56.492188 347.71875 C 53.953125 345.210938 51.417969 342.695312 48.890625 340.171875 C 48.820312 340.964844 49.492188 341.304688 49.902344 341.808594 Z M 117.238281 363.265625 C 117.519531 362.304688 117.75 361.335938 117.933594 360.351562 C 119.253906 350.558594 120.804688 340.796875 121.792969 330.957031 C 122.117188 327.660156 122.5 324.367188 122.863281 321.070312 C 121.203125 331.496094 119.726562 341.9375 118.433594 352.390625 C 117.976562 356.019531 117.136719 359.613281 117.285156 363.304688 C 117.265625 363.292969 117.25 363.28125 117.238281 363.265625 Z M 90.050781 369.304688 L 59.984375 369.304688 C 70.019531 370.316406 80.054688 370 90.089844 369.929688 Z M 83.804688 342.347656 L 96.671875 314.921875 C 91.980469 323.875 87.148438 332.78125 83.804688 342.347656 Z M 338.390625 218.480469 C 339.546875 215.753906 341.019531 213.210938 343.40625 211.382812 C 345.792969 209.550781 348.316406 208.144531 351.9375 209.898438 C 350.71875 208.460938 349.691406 208.066406 348.507812 208.152344 C 343.351562 208.53125 337.523438 214.964844 337.75 220.324219 C 337.964844 219.707031 338.132812 219.074219 338.390625 218.480469 Z M 163.3125 326.730469 C 165.753906 335.453125 168.191406 344.175781 170.625 352.898438 C 168.871094 343.988281 166.433594 335.265625 163.3125 326.730469 Z M 56.136719 329.097656 C 51.421875 324.5 48.039062 318.960938 44.730469 313.339844 C 47.347656 319.417969 50.882812 324.878906 56.136719 329.097656 Z M 63.601562 336.046875 C 68.960938 339.300781 74 342.984375 78.726562 347.105469 C 76.179688 343.128906 66.960938 336.402344 63.601562 336.03125 Z M 272.660156 329.589844 C 276.566406 328.355469 277.976562 326.269531 278.101562 322.175781 C 278.136719 320.746094 277.941406 319.351562 277.515625 317.988281 C 277.257812 318.503906 277.21875 319.035156 277.40625 319.582031 C 278.117188 325.488281 276.632812 327.644531 271 329.488281 C 268.296875 330.367188 266.042969 331.898438 264.230469 334.085938 C 266.9375 332.371094 269.546875 330.5625 272.660156 329.574219 Z M 106.191406 210.703125 C 108.90625 208.246094 111.648438 205.8125 114.375 203.363281 C 114.636719 203.125 115.144531 202.753906 114.242188 202.707031 L 113.824219 203.265625 C 113.214844 203.355469 112.703125 203.625 112.28125 204.074219 C 109.703125 206.390625 107.09375 208.65625 104.5 210.941406 C 105.046875 210.949219 105.628906 211.1875 106.191406 210.703125 Z M 23.886719 296.488281 C 28.109375 295.195312 31.867188 294.941406 34.640625 298.804688 C 32.539062 294.371094 26.679688 292.980469 23.886719 296.488281 Z M 341.191406 168.398438 C 339.492188 166.855469 337.578125 165.859375 335.1875 166.691406 C 332.289062 167.710938 330.246094 169.605469 329.117188 173.132812 C 334.914062 166.546875 335.457031 166.3125 341.191406 168.398438 Z M 339.648438 275.117188 C 338.730469 279.703125 336.40625 283.710938 334.375 287.820312 C 335.933594 286.054688 337.164062 284.082031 338.066406 281.90625 C 338.972656 279.730469 339.5 277.46875 339.65625 275.117188 Z M 168.515625 306.394531 C 170.828125 311.03125 173.144531 315.683594 175.464844 320.359375 C 173.71875 315.421875 171.40625 310.769531 168.523438 306.394531 Z M 70.945312 325.242188 C 73.636719 321.101562 76.585938 317.125 78.664062 312.605469 L 70.472656 324.964844 Z M 328.070312 267.445312 C 327.296875 272.082031 325.597656 276.40625 324.371094 280.960938 C 326.59375 276.726562 327.828125 272.222656 328.074219 267.445312 Z M 137.523438 332.515625 C 137.523438 327.21875 136.636719 321.980469 136.589844 316.683594 C 136.296875 322.003906 137.066406 327.25 137.523438 332.515625 Z M 236.332031 274.082031 L 224.660156 266.28125 L 224.367188 266.742188 L 235.945312 274.46875 Z M 47.105469 337.855469 C 45.742188 336.21875 43.734375 335.3125 42.375 333.636719 C 41.246094 332.253906 40.613281 330.546875 39.289062 329.320312 C 40.46875 333.460938 43.207031 336.230469 47.105469 337.855469 Z M 161.097656 370.59375 L 177.210938 370.59375 L 177.210938 370.433594 L 161.105469 370.433594 Z M 42.304688 362.664062 L 57.660156 362.664062 L 57.660156 362.492188 L 42.3125 362.492188 Z M 181.007812 332.964844 C 179.902344 329.023438 178.265625 325.320312 176.097656 321.851562 Z M 229.074219 365.582031 C 229.507812 366.015625 230.054688 365.929688 230.582031 365.9375 L 245 365.9375 L 245 365.582031 L 229.035156 365.582031 Z M 139.382812 346.691406 C 139.769531 350.589844 140.679688 354.359375 142.117188 358.003906 C 141.160156 354.234375 140.339844 350.453125 139.382812 346.691406 Z M 234.871094 298.503906 L 224.683594 293.289062 L 224.46875 293.722656 L 234.671875 298.90625 Z M 90.976562 348.457031 C 92.351562 350.035156 93.832031 351.507812 95.414062 352.875 C 94.3125 350.882812 93.453125 348.691406 91.097656 347.753906 C 91.0625 347.996094 91.015625 348.226562 90.976562 348.457031 Z M 238.578125 372.53125 L 226.042969 372.53125 L 226.042969 372.671875 L 238.578125 372.671875 Z M 83.417969 345.160156 C 86.121094 345.816406 88.628906 346.914062 90.945312 348.449219 C 90.984375 348.21875 91.03125 347.988281 91.070312 347.75 C 88.808594 346.132812 86.390625 344.859375 83.449219 345.167969 Z M 348.964844 221.28125 C 348.023438 224.257812 347.503906 227.339844 346.402344 230.328125 C 348.125 227.5625 348.988281 224.550781 348.996094 221.289062 Z M 15.953125 283.757812 C 17.28125 281.386719 16.414062 278.460938 17.828125 276.113281 C 15.996094 278.359375 15.875 281.039062 15.953125 283.757812 Z M 302.386719 290.269531 C 298.929688 292.316406 297.5 296.09375 299.136719 297.863281 C 298.503906 294.839844 300.269531 292.726562 302.386719 290.269531 Z M 248.503906 338.203125 C 246.875 340.78125 244.46875 342.464844 242.019531 344.109375 C 244.960938 343.035156 247.339844 341.3125 248.503906 338.203125 Z M 295.957031 300.625 C 293.71875 302.945312 293.640625 305.910156 293.507812 308.859375 C 294.140625 306.0625 294.621094 303.222656 295.957031 300.625 Z M 14.6875 284.699219 C 15.765625 287.566406 16.128906 291.132812 20.777344 290.402344 C 16.34375 290.925781 16.601562 286.707031 14.6875 284.699219 Z M 136.09375 290.988281 L 136.09375 300.703125 L 136.296875 300.703125 L 136.296875 290.988281 Z M 65.941406 370.539062 L 56.785156 370.539062 L 56.785156 370.585938 L 65.941406 370.585938 Z M 141.429688 258.0625 C 141.445312 260.882812 142.035156 263.574219 143.207031 266.140625 C 142.617188 263.4375 142.027344 260.734375 141.429688 258.03125 Z M 16.414062 270.003906 C 15.542969 267.476562 15.496094 265.097656 17.574219 263.050781 C 14.800781 264.953125 14.5625 267.308594 16.414062 270.003906 Z M 131.472656 48.390625 C 130.902344 49.265625 130.453125 50.160156 131.292969 51.101562 C 131.570312 51.453125 131.914062 51.71875 132.324219 51.890625 C 132.738281 52.0625 133.164062 52.125 133.609375 52.074219 C 134.203125 51.992188 134.113281 51.417969 133.972656 50.933594 C 133.472656 50.933594 133.054688 51.882812 132.507812 51.0625 C 132.128906 50.507812 131.695312 49.953125 132.453125 49.355469 C 132.9375 48.214844 131.917969 48.585938 131.472656 48.390625 Z M 112.753906 54.710938 C 112.496094 55.171875 112.480469 55.644531 112.707031 56.121094 C 113.0625 56.648438 113.972656 57.019531 113.183594 57.851562 C 113.207031 58.066406 113.289062 58.253906 113.429688 58.414062 C 113.570312 58.574219 113.746094 58.679688 113.957031 58.726562 C 114.148438 57.265625 113.507812 55.984375 113.070312 54.664062 Z M 114.757812 58.640625 C 114.757812 58.546875 114.757812 58.449219 114.757812 58.355469 L 114.328125 58.757812 Z M 135.199219 54.222656 C 135.710938 55.722656 136.171875 57.15625 135.476562 58.757812 C 135.046875 59.746094 135.363281 60.472656 136.636719 60.363281 C 136.730469 60.363281 136.804688 60.214844 136.921875 60.109375 L 136.148438 59.660156 C 137.824219 58.261719 137.308594 54.253906 135.007812 51 C 135.441406 52.058594 134.84375 53.179688 135.199219 54.222656 Z M 178.753906 29.941406 C 178.308594 29.085938 178.207031 28.195312 178.453125 27.265625 C 178.558594 26.417969 178.589844 25.484375 177.570312 25.066406 C 177.269531 24.898438 176.945312 24.847656 176.605469 24.914062 C 176.261719 24.980469 175.984375 25.148438 175.765625 25.421875 C 175.613281 25.582031 175.496094 25.765625 175.417969 25.972656 C 175.335938 26.179688 175.292969 26.394531 175.292969 26.613281 C 175.292969 26.835938 175.335938 27.050781 175.417969 27.257812 C 175.496094 27.460938 175.613281 27.644531 175.765625 27.808594 C 177.03125 29.269531 178.273438 30.65625 177.417969 32.921875 C 178.808594 32.195312 179.585938 31.335938 178.753906 29.941406 Z M 126.46875 26.316406 C 122.5 28.03125 119.453125 30.695312 117.800781 34.8125 C 120.085938 31.359375 123.273438 28.835938 126.4375 26.316406 Z M 113.910156 58.710938 L 114.359375 59.15625 L 114.359375 58.710938 Z M 113.191406 57.851562 L 113.136719 57.851562 L 113.246094 57.851562 Z M 113.191406 57.851562 " fill-opacity="1" fill-rule="nonzero"/></g></svg>