<svg xmlns="http://www.w3.org/2000/svg" xmlns:xlink="http://www.w3.org/1999/xlink" width="500" zoomAndPan="magnify" viewBox="0 0 375 374.999991" height="500" preserveAspectRatio="xMidYMid meet" version="1.0"><defs><clipPath id="54e780a2b5"><path d="M 0 70.234375 L 375 70.234375 L 375 304.984375 L 0 304.984375 Z M 0 70.234375 " clip-rule="nonzero"/></clipPath></defs><g clip-path="url(#54e780a2b5)"><path fill="#1e1e1e" d="M 179.222656 71.257812 C 171.074219 72.960938 167.191406 74.640625 159.445312 79.808594 C 154.226562 83.289062 152.6875 84.683594 151.761719 86.761719 C 150.464844 89.675781 149.253906 101.019531 150.128906 102.074219 C 150.804688 102.890625 149.992188 103.277344 148.859375 102.675781 C 147.488281 101.953125 144.351562 99.128906 137.738281 92.679688 C 130.679688 85.796875 126.941406 83.339844 120.089844 81.085938 C 115.203125 79.476562 112.425781 79.039062 109.695312 79.449219 L 107.894531 79.722656 L 107.332031 84.65625 C 106.703125 90.207031 106.621094 96.179688 107.078125 103.324219 L 107.386719 108.175781 L 104.25 108.0625 C 101.945312 107.984375 99.996094 108.230469 96.878906 108.996094 C 94.546875 109.570312 92.003906 110.136719 91.226562 110.253906 C 90.449219 110.375 89.085938 110.800781 88.199219 111.207031 C 87.3125 111.609375 85.222656 112.152344 83.558594 112.410156 C 76.351562 113.527344 69.789062 115.742188 65.613281 118.464844 C 62.617188 120.417969 60.710938 121.113281 56.15625 121.902344 C 51.367188 122.734375 44.554688 124.984375 40.160156 127.1875 C 35.550781 129.496094 31.699219 132.378906 28.753906 135.730469 C 26.855469 137.886719 25.75 138.707031 22.605469 140.292969 C 17.742188 142.742188 14.605469 145.105469 10.660156 149.296875 C 3.738281 156.648438 0.0625 164.710938 0.015625 172.652344 C -0.00390625 175.496094 0.753906 179.492188 1.472656 180.328125 C 1.847656 180.769531 2.019531 182.160156 2.019531 184.816406 C 2.019531 186.9375 2.199219 189.648438 2.421875 190.847656 C 3.289062 195.492188 6.757812 200.59375 11.339844 203.960938 C 12.441406 204.769531 13.636719 206.003906 13.992188 206.703125 C 16.121094 210.867188 25.851562 221.089844 30.128906 223.660156 C 36.992188 227.785156 48.128906 232.003906 52.183594 232.011719 C 53.136719 232.011719 62.375 236.277344 63.582031 237.273438 C 63.808594 237.460938 65.574219 238.25 67.511719 239.03125 C 73.28125 241.359375 83.957031 243.355469 95.867188 244.332031 C 101.652344 244.804688 103.460938 245.125 107.375 246.355469 C 109.925781 247.160156 113.285156 248.101562 114.839844 248.441406 C 119.457031 249.460938 128.546875 249.589844 138.242188 248.777344 C 142.972656 248.382812 147.164062 248.179688 147.550781 248.328125 C 148.199219 248.574219 148.238281 249.195312 148.039062 255.761719 C 147.917969 259.699219 147.703125 263.214844 147.558594 263.574219 C 147.390625 263.980469 147.699219 264.710938 148.378906 265.515625 C 149.238281 266.539062 149.71875 266.777344 150.710938 266.683594 C 151.921875 266.5625 151.976562 266.472656 152.402344 263.859375 C 152.878906 260.953125 153.949219 259.003906 156.710938 256 C 157.976562 254.628906 158.621094 254.234375 159.621094 254.234375 C 160.328125 254.234375 161.253906 253.980469 161.675781 253.671875 C 162.429688 253.121094 162.429688 253.058594 161.699219 250.742188 C 161.292969 249.441406 160.871094 248.152344 160.765625 247.875 C 160.613281 247.484375 162.980469 247.382812 171.613281 247.414062 C 183.957031 247.453125 187.644531 247.089844 198.644531 244.75 C 202.285156 243.976562 207.167969 243.0625 209.5 242.714844 C 216.683594 241.644531 219.765625 240.628906 227.378906 236.804688 C 229.804688 235.585938 231.460938 234.5 231.578125 234.050781 C 231.6875 233.640625 232.277344 233.210938 232.914062 233.085938 C 233.539062 232.957031 235.140625 231.886719 236.464844 230.703125 C 238.707031 228.699219 244.429688 225.539062 249.460938 223.527344 C 260.390625 219.152344 267.417969 214.445312 275.457031 206.117188 C 278.585938 202.871094 282.40625 199.242188 283.941406 198.046875 C 287.179688 195.527344 291 190.613281 292.183594 187.449219 C 294.683594 180.757812 294.269531 169.726562 291.28125 163.609375 L 290.335938 161.667969 L 292.605469 160.535156 C 296.601562 158.535156 298.898438 157.941406 300.550781 158.484375 C 301.339844 158.746094 302.589844 158.847656 303.320312 158.710938 C 306.023438 158.203125 306.78125 156.128906 306.777344 149.226562 C 306.777344 146.425781 306.585938 143.449219 306.351562 142.609375 C 305.738281 140.386719 303.851562 138.472656 300.800781 136.972656 C 298.472656 135.824219 297.710938 135.652344 295.082031 135.664062 C 293.414062 135.675781 291.683594 135.90625 291.238281 136.179688 C 290.574219 136.585938 290.9375 136.628906 293.296875 136.417969 C 295.707031 136.203125 296.472656 136.300781 298.109375 137.023438 C 301.042969 138.324219 303.449219 140.472656 303.9375 142.230469 C 304.492188 144.226562 304.414062 152.566406 303.820312 154.800781 C 303.109375 157.488281 302.414062 157.695312 299.839844 155.988281 C 298.070312 154.808594 297.367188 153.96875 295.929688 151.296875 C 294.390625 148.429688 293.671875 147.613281 289.917969 144.472656 C 287.574219 142.507812 284.9375 140.523438 284.058594 140.058594 L 282.460938 139.21875 L 285.636719 138.445312 C 287.964844 137.875 288.851562 137.480469 288.949219 136.960938 C 289.117188 136.042969 287.964844 136.039062 285.113281 136.9375 C 283.011719 137.601562 282.898438 137.59375 281.242188 136.777344 C 280.300781 136.316406 277.90625 134.660156 275.917969 133.09375 C 271.292969 129.460938 270.339844 129.191406 263.382812 129.550781 C 257.636719 129.851562 257.046875 129.738281 255.113281 127.953125 C 254.558594 127.441406 251.664062 125.921875 248.683594 124.574219 C 242.167969 121.632812 239.253906 119.285156 242.117188 119.285156 C 242.738281 119.285156 244.78125 118.535156 246.65625 117.617188 C 248.53125 116.699219 251.242188 115.652344 252.675781 115.292969 C 254.730469 114.777344 255.417969 114.40625 255.894531 113.550781 C 256.230469 112.953125 256.410156 112.371094 256.296875 112.253906 C 255.886719 111.847656 245.199219 111.175781 243.011719 111.421875 C 238.777344 111.894531 233.71875 113.78125 230.425781 116.105469 C 229.773438 116.566406 228.664062 116.863281 227.589844 116.863281 C 226.617188 116.863281 224.828125 117.136719 223.613281 117.472656 C 222.402344 117.808594 220.851562 118.148438 220.171875 118.234375 C 219.492188 118.316406 217.511719 119.039062 215.773438 119.84375 C 214.035156 120.648438 212.523438 121.304688 212.414062 121.304688 C 212.304688 121.304688 213.046875 120.414062 214.066406 119.324219 C 219.027344 114.015625 223.222656 104.425781 223.222656 98.402344 C 223.222656 95.679688 222.542969 95.582031 220.773438 98.050781 C 220.066406 99.039062 217.671875 101.449219 215.457031 103.40625 C 211.175781 107.183594 208.382812 110.675781 207.078125 113.886719 C 206.636719 114.96875 205.746094 118.058594 205.09375 120.757812 C 203.871094 125.839844 203.164062 127.636719 202.019531 128.585938 C 201.121094 129.332031 189.992188 135.046875 189.804688 134.859375 C 189.722656 134.777344 190.285156 134.011719 191.054688 133.160156 C 191.824219 132.308594 192.746094 130.90625 193.105469 130.042969 C 194.015625 127.859375 196.546875 124.402344 202.671875 116.984375 C 207.339844 111.328125 208.257812 109.953125 210.722656 104.929688 C 212.253906 101.8125 213.730469 98.308594 214 97.136719 C 214.601562 94.53125 215.480469 94.460938 216.34375 96.957031 C 216.949219 98.707031 217.8125 99.410156 218.503906 98.71875 C 218.753906 98.464844 218.550781 97.636719 217.929688 96.382812 C 217.191406 94.894531 216.71875 94.410156 215.910156 94.316406 C 214.953125 94.203125 214.835938 93.992188 214.632812 92.027344 C 214.507812 90.835938 214.199219 89.464844 213.941406 88.984375 C 213.492188 88.148438 213.433594 88.140625 212.703125 88.804688 C 212.28125 89.1875 211.371094 90.5 210.679688 91.722656 C 209.503906 93.808594 207.386719 96.121094 202.277344 100.902344 C 198.789062 104.164062 194.730469 110.53125 192.695312 115.945312 C 191.671875 118.667969 190.132812 126.550781 189.9375 130.066406 C 189.859375 131.472656 189.53125 132.53125 188.933594 133.296875 C 187.523438 135.109375 183.234375 139.449219 181.960938 140.359375 C 180.871094 141.136719 180.910156 141.015625 182.546875 138.578125 C 187.769531 130.777344 191.332031 121.234375 191.402344 114.839844 C 191.441406 111.207031 190.621094 106.773438 189.855469 106.476562 C 188.804688 106.074219 184.828125 108.558594 182.417969 111.121094 C 181.101562 112.523438 179.484375 114.738281 178.824219 116.046875 C 176.960938 119.738281 174.109375 128.417969 171.988281 136.839844 C 170.925781 141.054688 169.894531 144.535156 169.695312 144.578125 C 167.234375 145.125 160.253906 147.574219 158.144531 148.632812 C 155.632812 149.890625 154.199219 150.304688 154.199219 149.777344 C 154.199219 149.128906 164.996094 134.269531 168.386719 130.253906 C 170.570312 127.664062 172.355469 125.320312 172.359375 125.042969 C 172.359375 124.765625 173.519531 122.855469 174.9375 120.800781 C 176.351562 118.746094 178.425781 115.425781 179.546875 113.425781 C 181.570312 109.820312 183.886719 107.3125 190.574219 101.507812 C 192.835938 99.542969 194.96875 96.867188 194.96875 95.992188 C 194.96875 95.691406 194.605469 95.445312 194.160156 95.445312 C 193.714844 95.445312 193.351562 95.613281 193.351562 95.8125 C 193.351562 96.589844 189.601562 100.742188 187.789062 101.972656 C 184.535156 104.179688 180.605469 107.867188 179.132812 110.089844 C 178.355469 111.257812 176.523438 114.054688 175.058594 116.300781 C 173.59375 118.546875 171.566406 121.398438 170.5625 122.636719 C 169.554688 123.875 168.722656 125.21875 168.71875 125.621094 C 168.710938 126.027344 167.515625 127.8125 166.058594 129.589844 C 164.601562 131.367188 160.972656 136.492188 157.992188 140.980469 C 155.011719 145.46875 152.402344 149.25 152.191406 149.378906 C 151.984375 149.507812 151.910156 149.871094 152.027344 150.179688 C 152.164062 150.535156 151.746094 151 150.898438 151.425781 C 150.160156 151.800781 148.582031 152.835938 147.390625 153.726562 C 145.238281 155.332031 140.445312 158.195312 140.265625 157.984375 C 140.214844 157.921875 140.792969 155.78125 141.550781 153.226562 C 144.105469 144.59375 143.785156 134.285156 140.695312 126.035156 L 139.277344 122.242188 L 142.558594 117.234375 C 144.367188 114.480469 146.628906 110.898438 147.589844 109.277344 C 148.550781 107.652344 150.066406 105.453125 150.957031 104.394531 C 152.675781 102.355469 152.972656 101.507812 151.976562 101.507812 C 151.644531 101.507812 151.371094 101.242188 151.371094 100.921875 C 151.371094 99.152344 153.085938 88.851562 153.570312 87.703125 C 154.339844 85.875 157.046875 83.355469 160.453125 81.289062 C 162.007812 80.347656 163.824219 79.160156 164.492188 78.652344 C 168.394531 75.675781 177.714844 72.550781 183.964844 72.125 C 191.023438 71.644531 193.761719 74.425781 193.753906 82.074219 C 193.75 85.164062 193.621094 85.773438 192.578125 87.589844 C 190.761719 90.757812 190.578125 90.835938 187.617188 89.660156 C 185.039062 88.640625 180.433594 87.621094 176.398438 87.175781 C 172.914062 86.792969 163.886719 88.367188 163.886719 89.355469 C 163.886719 90.109375 165.027344 90.046875 168.101562 89.128906 C 171.953125 87.980469 176.570312 87.867188 181.121094 88.808594 C 185.320312 89.679688 188.617188 90.949219 188.367188 91.601562 C 188.230469 91.949219 188.703125 92.207031 189.792969 92.382812 C 190.816406 92.546875 191.863281 93.085938 192.621094 93.84375 C 193.277344 94.503906 194.078125 95.042969 194.394531 95.042969 C 195.335938 95.042969 195.042969 93.570312 193.957031 92.855469 L 192.945312 92.191406 L 194.332031 90.972656 C 196.539062 89.035156 197.792969 86.097656 197.792969 82.863281 C 197.792969 75.546875 195.402344 72.125 189.398438 70.851562 C 186.40625 70.214844 183.675781 70.324219 179.222656 71.257812 Z M 110.746094 79.964844 C 110.269531 80.0625 109.757812 80.539062 109.609375 81.023438 C 109.464844 81.511719 109.242188 85.183594 109.121094 89.183594 C 108.945312 94.835938 109.089844 98.53125 109.753906 105.75 C 111.324219 122.726562 111.796875 130.335938 111.3125 130.914062 C 111.070312 131.207031 110.410156 131.394531 109.84375 131.328125 C 108.503906 131.167969 108.269531 130.25 108.222656 124.898438 C 108.199219 122.539062 108.070312 119.796875 107.933594 118.800781 C 107.695312 117.082031 107.589844 116.953125 105.8125 116.316406 C 104.574219 115.871094 102.671875 115.644531 100.171875 115.648438 C 96.628906 115.648438 96.253906 115.734375 93.914062 117.042969 C 92.546875 117.808594 89.625 119.183594 87.421875 120.101562 C 84.097656 121.484375 82.796875 121.8125 79.808594 122.003906 C 76.414062 122.226562 76.058594 122.335938 73.722656 123.925781 C 68.507812 127.476562 63.441406 130.199219 59.941406 131.332031 C 56.132812 132.5625 49.066406 135.945312 44.625 138.664062 C 43.1875 139.546875 40.929688 140.816406 39.613281 141.480469 C 36.953125 142.824219 27.8125 149.539062 25.089844 152.148438 C 22.878906 154.269531 18.085938 160.988281 17.261719 163.125 C 16.917969 164.011719 16.417969 166.113281 16.148438 167.792969 C 15.730469 170.386719 15.757812 171.441406 16.335938 174.835938 C 16.871094 177.976562 16.960938 180.132812 16.757812 184.917969 L 16.5 191.003906 L 17.691406 193.03125 C 19.632812 196.339844 22.503906 199.199219 26.816406 202.117188 C 29.421875 203.882812 32.472656 206.488281 35.320312 209.382812 C 37.761719 211.867188 40.757812 214.675781 41.980469 215.625 C 44.199219 217.347656 46.773438 218.863281 47.039062 218.601562 C 47.117188 218.523438 46.371094 217.28125 45.386719 215.84375 C 42.886719 212.183594 42.65625 210.242188 44.332031 206.859375 C 45.796875 203.898438 49.382812 199.808594 53.121094 196.828125 C 55.597656 194.855469 55.726562 194.679688 54.953125 194.265625 C 54.003906 193.757812 51.152344 190.085938 50.050781 187.949219 C 47.546875 183.105469 47.410156 175.652344 49.703125 169.394531 C 51.234375 165.214844 54.207031 160.015625 56.441406 157.597656 C 59.417969 154.382812 64.472656 150.371094 68.421875 148.09375 C 70.195312 147.070312 72.648438 145.558594 73.871094 144.734375 C 78.398438 141.679688 83.078125 139.695312 94.039062 136.199219 C 101.296875 133.882812 107.617188 132.324219 108.035156 132.742188 C 108.152344 132.859375 107.183594 133.164062 105.890625 133.425781 C 102.621094 134.082031 87.25 139.179688 82.90625 141.042969 C 80.933594 141.890625 77.382812 143.84375 75.015625 145.378906 C 72.648438 146.917969 69.398438 148.992188 67.789062 149.992188 C 66.183594 150.992188 62.992188 153.597656 60.703125 155.777344 C 56.753906 159.542969 56.417969 160 54.113281 164.667969 C 51.148438 170.664062 50.4375 173.292969 50.417969 178.277344 C 50.40625 182.183594 51.523438 187.179688 52.550781 187.816406 C 52.867188 188.011719 52.917969 187.804688 52.71875 187.125 C 52.5625 186.59375 52.335938 183.882812 52.210938 181.105469 C 51.820312 172.179688 53.617188 167.195312 60.273438 158.714844 C 64.046875 153.910156 64.0625 153.898438 69.867188 150.320312 C 78.261719 145.15625 84.484375 142.074219 88.882812 140.910156 C 93.96875 139.5625 106.40625 137.0625 108.027344 137.0625 C 109.15625 137.0625 109.355469 136.910156 109.464844 135.953125 C 109.621094 134.601562 111.140625 134.175781 111.730469 135.320312 C 112.46875 136.753906 112.640625 140.351562 112.179688 144.742188 C 111.625 150.050781 112.152344 155.398438 113.664062 159.867188 C 114.199219 161.4375 114.632812 162.765625 114.636719 162.820312 C 114.636719 162.875 114.824219 162.921875 115.050781 162.921875 C 115.773438 162.921875 118.90625 157.628906 121.269531 152.417969 C 122.53125 149.640625 124.324219 145.820312 125.253906 143.933594 C 126.789062 140.820312 127.070312 140.484375 128.203125 140.375 L 129.457031 140.253906 L 129.730469 135.074219 C 130 129.90625 131.613281 119.542969 132.363281 118.140625 C 133.527344 115.960938 135.109375 116.09375 136.703125 118.503906 C 137.277344 119.371094 137.894531 119.988281 138.078125 119.875 C 138.949219 119.335938 140.878906 115.933594 140.554688 115.507812 C 140.355469 115.242188 140.375 113.375 140.597656 111.167969 C 141.097656 106.269531 140.253906 100.574219 138.570312 97.449219 C 136.949219 94.445312 129.339844 87.222656 125.230469 84.785156 C 120.707031 82.101562 112.957031 79.523438 110.746094 79.964844 Z M 212.527344 91.40625 C 212.390625 91.628906 212.46875 91.8125 212.703125 91.8125 C 212.9375 91.8125 213.132812 91.628906 213.132812 91.40625 C 213.132812 91.183594 213.050781 91.003906 212.953125 91.003906 C 212.855469 91.003906 212.664062 91.183594 212.527344 91.40625 Z M 209.769531 99.109375 C 206.476562 105.65625 204.671875 108.304688 199.636719 113.992188 C 197.984375 115.855469 196.085938 118.410156 195.417969 119.667969 C 194.125 122.089844 191.4375 129.058594 192.054688 128.375 C 192.257812 128.15625 193.515625 126.519531 194.855469 124.742188 C 196.191406 122.960938 199.402344 119.054688 201.984375 116.054688 C 205.917969 111.488281 207.101562 109.777344 209.261719 105.546875 C 212.128906 99.941406 213.242188 96.648438 213.054688 94.351562 C 212.9375 92.898438 212.765625 93.144531 209.769531 99.109375 Z M 200.617188 94.8125 C 199.621094 95.09375 197.984375 95.707031 196.984375 96.175781 C 195.515625 96.871094 195.363281 97.03125 196.179688 97.027344 C 197.859375 97.011719 204.054688 94.804688 203.261719 94.5 C 202.882812 94.355469 202.539062 94.25 202.503906 94.269531 C 202.464844 94.292969 201.617188 94.535156 200.617188 94.8125 Z M 209.320312 95.894531 C 208.742188 96.585938 206.582031 98.652344 204.523438 100.484375 C 198.796875 105.589844 194.898438 111.730469 193.1875 118.335938 C 192.292969 121.785156 192.347656 121.824219 194.050781 118.941406 C 194.878906 117.539062 197.246094 114.542969 199.308594 112.285156 C 203.574219 107.613281 204.855469 105.804688 207.964844 100.058594 C 211.050781 94.355469 211.324219 93.511719 209.320312 95.894531 Z M 221.289062 99.386719 C 221.003906 99.886719 220.871094 100.296875 220.992188 100.296875 C 221.117188 100.296875 220.738281 101.054688 220.152344 101.976562 C 219.570312 102.902344 218.308594 105.316406 217.351562 107.34375 C 216.394531 109.367188 214.15625 113.429688 212.378906 116.367188 C 210.601562 119.304688 209.253906 121.710938 209.382812 121.710938 C 210.113281 121.710938 213.871094 118.328125 215.445312 116.253906 C 218.804688 111.824219 222.316406 102.816406 221.9375 99.589844 L 221.804688 98.476562 Z M 141.683594 100.316406 C 141.683594 100.640625 141.878906 101.542969 142.113281 102.320312 C 142.351562 103.09375 142.667969 105.820312 142.820312 108.375 L 143.097656 113.023438 L 145.050781 109.789062 C 146.128906 108.011719 147.570312 105.96875 148.261719 105.246094 L 149.511719 103.933594 L 148.195312 103.933594 C 146.496094 103.933594 145.503906 103.40625 143.398438 101.375 C 142.375 100.390625 141.683594 99.960938 141.683594 100.316406 Z M 215.011719 105.359375 C 210.546875 109.171875 208.886719 111.449219 207.707031 115.378906 C 206.359375 119.878906 205.386719 123.789062 205.570312 123.972656 C 205.765625 124.167969 211.703125 115.144531 213.839844 111.40625 C 215.714844 108.125 218.457031 102.71875 218.246094 102.71875 C 218.164062 102.71875 216.707031 103.90625 215.011719 105.359375 Z M 223.492188 103.796875 C 223.050781 104.238281 223.1875 107.148438 223.691406 108.101562 C 224.335938 109.304688 225.199219 109.890625 226.785156 110.191406 C 227.824219 110.386719 228.257812 110.757812 228.707031 111.835938 C 229.148438 112.890625 229.53125 113.226562 230.292969 113.226562 C 231.464844 113.226562 231.46875 113.207031 230.738281 111.453125 C 230.273438 110.347656 229.847656 110.027344 228.304688 109.640625 C 226.089844 109.082031 224.84375 107.425781 224.839844 105.042969 C 224.839844 103.617188 224.234375 103.054688 223.492188 103.796875 Z M 187.820312 108.582031 C 187.304688 108.945312 187.042969 109.464844 187.160156 109.910156 C 187.453125 111.03125 186.191406 117.667969 185.015625 121.1875 C 184.4375 122.917969 182.433594 127.882812 180.5625 132.214844 C 176.308594 142.066406 176.433594 141.644531 178.371094 139.503906 C 180.835938 136.777344 186.0625 127.714844 187.382812 123.886719 C 189.082031 118.945312 189.8125 114.726562 189.503906 111.578125 C 189.179688 108.226562 188.9375 107.796875 187.820312 108.582031 Z M 102.730469 108.640625 C 100.464844 108.9375 95.875 110.105469 93.851562 110.898438 C 92.742188 111.332031 89.472656 112.125 86.585938 112.664062 C 77.113281 114.421875 72.195312 116.15625 67.488281 119.398438 C 65.121094 121.027344 61.648438 122.269531 57.519531 122.960938 C 51.195312 124.019531 41.65625 128.175781 36.828125 131.972656 C 35.53125 132.992188 33.605469 134.828125 32.550781 136.050781 C 31.265625 137.542969 30.324219 138.277344 29.707031 138.277344 C 28.640625 138.277344 22.082031 141.746094 19.324219 143.769531 C 16.289062 146 10.425781 152.414062 8.273438 155.871094 C 3.902344 162.890625 2.367188 169.960938 3.757812 176.683594 C 4.238281 179.011719 4.292969 180.160156 3.976562 181.53125 C 3.195312 184.941406 4.257812 191.296875 6.28125 195.296875 C 7.492188 197.6875 11.191406 201.714844 13.542969 203.203125 C 14.703125 203.933594 15.335938 204.625 15.335938 205.15625 C 15.339844 206.75 19.726562 211.988281 25.882812 217.746094 C 29.839844 221.445312 30.847656 222.148438 35.867188 224.699219 C 42.417969 228.023438 44.574219 228.867188 49.347656 229.976562 C 51.289062 230.425781 53.195312 230.957031 53.585938 231.152344 C 53.972656 231.351562 55.746094 232.109375 57.519531 232.835938 C 59.296875 233.5625 62.023438 234.839844 63.574219 235.679688 C 67.582031 237.839844 72.019531 239.527344 75.691406 240.285156 C 81.597656 241.507812 89.398438 242.554688 93.898438 242.730469 C 96.371094 242.824219 98.859375 243.082031 99.429688 243.300781 C 100 243.515625 102.429688 244.15625 104.828125 244.714844 C 107.226562 245.277344 110.734375 246.203125 112.621094 246.773438 C 116.988281 248.09375 124.800781 248.710938 130.304688 248.171875 C 132.457031 247.960938 136.757812 247.585938 139.867188 247.339844 C 147.71875 246.722656 147.480469 246.789062 147.171875 245.242188 C 146.71875 242.960938 143.804688 237.480469 141.449219 234.464844 C 140.183594 232.847656 137.449219 230.113281 135.371094 228.390625 L 131.59375 225.261719 L 127.457031 224.988281 C 112.933594 224.023438 97.785156 221.59375 94.457031 219.691406 C 93.65625 219.234375 93.597656 219.109375 94.171875 219.097656 C 94.574219 219.089844 95.390625 219.332031 95.988281 219.632812 C 99.261719 221.285156 120.230469 224.335938 128.296875 224.335938 L 130.097656 224.335938 L 127.113281 222.203125 C 125.46875 221.03125 121.945312 218.628906 119.28125 216.867188 L 114.4375 213.664062 L 110.804688 213.773438 C 106.746094 213.894531 102.164062 214.546875 101.464844 215.105469 C 101.214844 215.304688 99.398438 215.996094 97.429688 216.636719 C 95.460938 217.28125 92.125 218.523438 90.015625 219.398438 C 84.4375 221.714844 79.769531 222.664062 69.492188 223.578125 C 64.472656 224.019531 60.300781 224.449219 60.21875 224.53125 C 59.925781 224.824219 62.261719 226.089844 64.824219 227.019531 C 68.660156 228.414062 73.726562 229.183594 79.070312 229.1875 C 84.667969 229.191406 87.582031 229.820312 96.511719 232.957031 C 99.972656 234.171875 104.199219 235.390625 105.910156 235.667969 C 109.425781 236.234375 120.402344 235.980469 122.695312 235.277344 C 124.347656 234.773438 125.171875 235.261719 124.488281 236.347656 C 123.832031 237.390625 122.167969 237.707031 116.050781 237.953125 C 108.070312 238.269531 104.652344 237.722656 96.746094 234.867188 C 86.765625 231.257812 86.386719 231.171875 79.320312 230.785156 C 69.1875 230.234375 62.882812 228.523438 60.144531 225.582031 C 59.011719 224.367188 58.339844 224.011719 56.746094 223.796875 C 55.65625 223.648438 53.476562 222.902344 51.902344 222.140625 C 50.332031 221.378906 47.730469 220.453125 46.125 220.078125 C 42.152344 219.160156 40.394531 217.90625 33.101562 210.773438 C 29.5 207.25 25.625 203.875 23.976562 202.820312 C 20.589844 200.652344 17.472656 197.636719 15.414062 194.527344 L 13.925781 192.28125 L 13.800781 183.5625 C 13.734375 178.765625 13.648438 172.933594 13.609375 170.597656 C 13.503906 163.980469 14.710938 161.097656 20.453125 154.257812 C 22.917969 151.320312 24.351562 150.089844 30.996094 145.195312 C 36.972656 140.796875 52.535156 132.539062 57.726562 131.015625 C 61.128906 130.015625 65.828125 127.613281 71.320312 124.058594 C 75.015625 121.671875 75.042969 121.660156 78.988281 121.335938 C 83.296875 120.984375 86.542969 119.890625 92.453125 116.804688 L 95.597656 115.164062 L 100.777344 115.363281 C 103.628906 115.476562 106.324219 115.628906 106.769531 115.707031 C 107.53125 115.84375 107.570312 115.660156 107.460938 112.4375 C 107.398438 110.5625 107.308594 108.992188 107.261719 108.949219 C 106.996094 108.722656 103.773438 108.503906 102.730469 108.640625 Z M 184.59375 111.289062 C 182.285156 113.6875 180.4375 117.371094 178.449219 123.527344 C 176.421875 129.804688 173.785156 140.742188 174.085938 141.617188 C 174.410156 142.554688 181.707031 126.75 183.914062 120.324219 C 184.910156 117.433594 186.246094 111.074219 186.007812 110.363281 C 185.933594 110.140625 185.296875 110.558594 184.59375 111.289062 Z M 241.1875 113.476562 C 236.8125 114.339844 235.59375 114.691406 233.316406 115.75 L 230.691406 116.972656 L 232.066406 117.28125 C 233.1875 117.535156 234 117.335938 236.503906 116.183594 C 238.191406 115.40625 240.839844 114.503906 242.386719 114.175781 C 243.9375 113.847656 245.285156 113.5 245.382812 113.402344 C 245.59375 113.191406 242.34375 113.25 241.1875 113.476562 Z M 243.113281 114.644531 C 240.800781 115.148438 236.011719 116.996094 235.183594 117.707031 C 234.988281 117.875 235.546875 118.226562 236.421875 118.488281 C 237.945312 118.945312 238.066406 118.914062 239.265625 117.710938 C 240.351562 116.625 240.804688 116.457031 242.667969 116.453125 C 244.617188 116.449219 249.058594 114.921875 249.058594 114.253906 C 249.058594 113.863281 245.695312 114.082031 243.113281 114.644531 Z M 222.414062 119.230469 C 220.75 119.785156 218.964844 120.804688 218.351562 121.550781 C 217.824219 122.191406 217.863281 122.230469 218.785156 121.976562 C 220.660156 121.464844 225.824219 120.804688 230.085938 120.535156 C 234.242188 120.269531 234.292969 120.253906 232.710938 119.753906 C 230.722656 119.125 223.792969 118.773438 222.414062 119.230469 Z M 134.300781 120.375 C 134.195312 120.554688 134.535156 122.378906 135.054688 124.433594 C 137.027344 132.214844 137.117188 140.527344 135.414062 157.21875 C 134.671875 164.515625 134.667969 167.023438 135.40625 168.792969 C 136.257812 170.832031 136.84375 170.558594 136.574219 168.253906 C 136.347656 166.34375 137.277344 162.359375 140.746094 150.398438 C 141.59375 147.476562 141.75 146.054688 141.789062 140.902344 C 141.824219 136.570312 141.648438 133.992188 141.167969 131.871094 C 140.488281 128.851562 138.269531 123.523438 137.476562 123.003906 C 137.238281 122.847656 136.761719 122.175781 136.421875 121.511719 C 135.816406 120.332031 134.6875 119.722656 134.300781 120.375 Z M 237.816406 121.425781 C 236.671875 122.109375 235.378906 122.28125 229.34375 122.558594 C 220.800781 122.945312 217.117188 123.515625 215.34375 124.71875 C 213.542969 125.945312 212.226562 126.394531 208.792969 126.957031 C 207.179688 127.222656 205.964844 127.605469 206.089844 127.808594 C 206.214844 128.007812 206.046875 128.175781 205.714844 128.175781 C 205.109375 128.175781 201.023438 130.554688 201.023438 130.910156 C 201.023438 131.015625 202.15625 131.003906 203.546875 130.886719 C 204.988281 130.765625 209.164062 131.039062 213.289062 131.523438 C 219.855469 132.292969 220.601562 132.3125 221.5625 131.742188 C 223.953125 130.328125 225.210938 129.839844 228.640625 129.007812 C 232.390625 128.09375 243.226562 126.5625 246.03125 126.554688 C 248.953125 126.539062 248.929688 125.960938 245.960938 124.699219 C 244.445312 124.054688 242.480469 122.972656 241.589844 122.296875 C 239.269531 120.53125 239.296875 120.539062 237.816406 121.425781 Z M 213.535156 122.703125 C 211.425781 123.691406 209.171875 124.59375 208.523438 124.707031 C 207.878906 124.820312 207.152344 125.125 206.910156 125.382812 C 206.582031 125.734375 206.773438 125.789062 207.683594 125.601562 C 208.347656 125.464844 209.894531 125.152344 211.113281 124.910156 C 212.335938 124.667969 213.882812 124.132812 214.550781 123.71875 C 215.671875 123.03125 217.9375 120.898438 217.542969 120.90625 C 217.449219 120.90625 215.644531 121.714844 213.535156 122.703125 Z M 132.574219 127.878906 C 131.957031 131.78125 131.792969 134.902344 131.792969 142.71875 C 131.792969 152.085938 132.402344 159.285156 133.191406 159.285156 C 133.484375 159.285156 134.003906 154.835938 134.867188 144.941406 C 135.394531 138.90625 135.128906 131.023438 134.238281 126.398438 C 133.902344 124.644531 133.566406 123.148438 133.492188 123.074219 C 133.417969 122.996094 133.003906 125.160156 132.574219 127.878906 Z M 244.214844 127.648438 C 240.609375 127.921875 232.378906 128.976562 232.164062 129.191406 C 231.898438 129.460938 240.0625 129.042969 244.160156 128.578125 C 245.796875 128.390625 247.332031 128.042969 247.570312 127.804688 C 247.882812 127.488281 247.726562 127.386719 247.019531 127.4375 C 246.476562 127.476562 245.210938 127.570312 244.214844 127.648438 Z M 251.480469 128.066406 C 251.148438 128.171875 249.148438 129.050781 247.039062 130.023438 C 243.242188 131.769531 242.425781 131.960938 232.632812 133.386719 C 230.929688 133.632812 229.390625 134.207031 227.789062 135.191406 C 226.167969 136.191406 224.078125 136.964844 221.003906 137.703125 C 215.796875 138.953125 213.460938 138.867188 210.375 137.300781 C 207.597656 135.894531 207.25 135.957031 206.742188 137.960938 C 206.503906 138.898438 206.347656 139.679688 206.390625 139.703125 C 206.433594 139.722656 207.988281 139.953125 209.847656 140.210938 C 212.066406 140.519531 214.34375 141.1875 216.507812 142.15625 C 219.832031 143.652344 226.035156 145.890625 229.175781 146.738281 C 231.082031 147.25 231.398438 148.074219 229.984375 148.839844 C 228.699219 149.539062 220.769531 149.769531 217.167969 149.21875 C 214.132812 148.753906 202.617188 146.078125 198.765625 144.941406 C 196.058594 144.144531 196.121094 144.109375 197.085938 145.867188 C 198.46875 148.402344 197.027344 151.261719 193.691406 152.597656 C 190.953125 153.695312 186.527344 152.464844 185.039062 150.195312 C 184.394531 149.207031 184.390625 146.953125 185.035156 145.496094 C 185.25 145.011719 185.0625 144.773438 184.320312 144.585938 C 183.769531 144.449219 183.199219 143.972656 183.058594 143.527344 C 182.917969 143.082031 182.636719 142.71875 182.433594 142.71875 C 182.234375 142.71875 180.78125 143.660156 179.207031 144.808594 L 176.347656 146.898438 L 178.210938 147.609375 C 182.257812 149.144531 184.589844 151.851562 184.382812 154.773438 C 184.261719 156.515625 184.265625 156.519531 185.476562 156.3125 C 186.144531 156.199219 189.144531 155.894531 192.140625 155.636719 C 198.164062 155.117188 210.910156 155.539062 210.910156 156.253906 C 210.910156 156.925781 206.101562 159.082031 202.957031 159.824219 C 196.042969 161.449219 185.773438 162.027344 185.03125 160.828125 C 184.589844 160.109375 185.296875 159.9375 188.285156 160.03125 C 191.886719 160.148438 198.851562 159.46875 201.628906 158.730469 C 203.589844 158.210938 203.441406 158.1875 196.457031 157.882812 C 191.152344 157.652344 188.636719 157.703125 186.859375 158.082031 C 183.949219 158.699219 183.257812 158.382812 185.96875 157.671875 C 187.261719 157.335938 190.789062 157.1875 196.582031 157.222656 C 207.25 157.285156 210.453125 156.71875 201.828125 156.292969 C 195.832031 156 188.308594 156.449219 185.183594 157.292969 C 184.042969 157.597656 183.027344 158.269531 182.152344 159.292969 C 180.261719 161.503906 177.621094 162.671875 174.570312 162.644531 C 173.210938 162.632812 171.65625 162.382812 171.121094 162.089844 C 170.511719 161.757812 168.464844 161.523438 165.703125 161.472656 C 163.105469 161.421875 160.273438 161.117188 158.882812 160.730469 C 157.574219 160.371094 156.414062 160.167969 156.300781 160.277344 C 156.1875 160.390625 157.308594 161.050781 158.792969 161.746094 C 161.238281 162.890625 162.003906 163.039062 167.027344 163.308594 L 172.5625 163.609375 L 166.710938 163.660156 C 161.40625 163.703125 160.59375 163.613281 158.03125 162.695312 C 153.65625 161.125 153.707031 161.132812 153.230469 161.785156 C 152.984375 162.117188 152.074219 162.625 151.207031 162.910156 C 149.777344 163.382812 137.960938 170.980469 137.503906 171.71875 C 137.398438 171.890625 138.070312 171.957031 138.992188 171.871094 C 139.917969 171.785156 140.820312 171.460938 141 171.152344 C 142 169.421875 148.15625 167.496094 156.890625 166.175781 C 165.628906 164.855469 168.578125 164.578125 178.617188 164.128906 C 186.445312 163.78125 189.179688 163.5 192.847656 162.664062 C 198.078125 161.472656 199.585938 161.523438 205.035156 163.046875 C 221.902344 167.777344 236.691406 163.570312 252.886719 149.433594 C 261.902344 141.5625 267.132812 139.203125 274.691406 139.59375 C 276.6875 139.695312 278.097656 139.699219 277.820312 139.601562 C 277.105469 139.347656 277.1875 138.277344 277.917969 138.277344 C 278.859375 138.277344 278.636719 137.707031 277.414062 136.980469 C 276.804688 136.613281 274.695312 135.019531 272.730469 133.4375 L 269.152344 130.554688 L 262.839844 130.636719 C 256.46875 130.71875 254.972656 130.476562 253.917969 129.203125 C 253.15625 128.289062 252.203125 127.84375 251.480469 128.066406 Z M 234.222656 129.808594 C 230.011719 130.152344 226.734375 130.835938 225.242188 131.679688 C 224.324219 132.199219 224.449219 132.21875 226.65625 131.933594 C 227.988281 131.761719 230.074219 131.667969 231.296875 131.722656 C 234.4375 131.871094 240.453125 131.042969 242.597656 130.167969 L 244.414062 129.429688 L 241.1875 129.464844 C 239.410156 129.484375 236.277344 129.640625 234.222656 129.808594 Z M 207.203125 133.1875 C 208.636719 134.167969 211.054688 135.515625 212.578125 136.179688 C 215.089844 137.277344 215.5625 137.359375 217.570312 137.03125 C 218.792969 136.835938 220.609375 136.429688 221.609375 136.136719 L 223.425781 135.597656 L 219.996094 135.332031 C 216.4375 135.054688 208.410156 133.121094 206.304688 132.03125 C 204.207031 130.945312 204.519531 131.347656 207.203125 133.1875 Z M 208.085938 131.984375 C 209.878906 132.851562 217.320312 134.574219 220.914062 134.960938 C 223.820312 135.269531 224.171875 135.226562 225.65625 134.339844 C 226.539062 133.8125 227.261719 133.324219 227.261719 133.257812 C 227.261719 133.1875 226.035156 133.214844 224.535156 133.320312 C 222.289062 133.472656 212.722656 132.480469 207.882812 131.589844 C 206.984375 131.421875 207.007812 131.464844 208.085938 131.984375 Z M 197.445312 133.238281 C 195.730469 134.683594 195.164062 136.597656 195.921875 138.40625 C 197.15625 141.367188 199.238281 142.246094 201.835938 140.898438 C 203.085938 140.25 203.714844 139.339844 204.285156 137.347656 C 204.984375 134.910156 202.566406 132.214844 199.679688 132.214844 C 199.121094 132.214844 198.117188 132.675781 197.445312 133.238281 Z M 192.84375 135.144531 C 192.234375 135.609375 192.238281 135.71875 192.925781 136.550781 L 193.671875 137.449219 L 193.832031 136.046875 C 194.011719 134.515625 193.855469 134.375 192.84375 135.144531 Z M 188.914062 137.828125 C 188.914062 138.027344 189.175781 138.289062 189.496094 138.414062 C 189.886719 138.5625 190.007812 138.445312 189.859375 138.054688 C 189.613281 137.414062 188.914062 137.246094 188.914062 137.828125 Z M 102.328125 139.539062 C 100.328125 139.972656 96.515625 140.785156 93.851562 141.34375 C 88.40625 142.492188 83.078125 144.847656 74.476562 149.90625 C 67.492188 154.011719 66.777344 154.601562 62.867188 159.503906 C 55.929688 168.191406 53.796875 174.613281 54.875 183.535156 C 55.4375 188.207031 56.375 192.847656 56.851562 193.320312 C 57.050781 193.519531 58.589844 192.746094 60.40625 191.53125 C 63.878906 189.210938 65.390625 188.359375 79.117188 181.007812 C 84.113281 178.335938 90.832031 174.730469 94.050781 173 C 102.199219 168.617188 103.695312 168.058594 107.582031 167.972656 C 110.792969 167.902344 112.621094 167.359375 112.621094 166.476562 C 112.621094 166.222656 112.917969 165.6875 113.28125 165.289062 C 113.890625 164.613281 113.886719 164.480469 113.25 163.507812 C 112.195312 161.894531 110.71875 157.703125 110.1875 154.8125 C 109.925781 153.382812 109.726562 149.167969 109.75 145.449219 L 109.785156 138.679688 L 107.875 138.71875 C 106.820312 138.738281 104.324219 139.109375 102.328125 139.539062 Z M 186.09375 139.683594 C 184.378906 140.949219 184.113281 141.378906 184.378906 142.460938 C 184.808594 144.234375 186.523438 145.074219 187.027344 143.761719 C 187.148438 143.445312 187.667969 143.128906 188.179688 143.054688 C 188.960938 142.945312 189.105469 142.699219 189.050781 141.554688 C 189.011719 140.800781 188.640625 139.847656 188.226562 139.429688 C 187.484375 138.6875 187.4375 138.691406 186.09375 139.683594 Z M 278.929688 140.257812 C 278.929688 140.480469 277.402344 140.542969 275.179688 140.410156 C 268.339844 140.003906 264.671875 141.792969 255.058594 150.234375 C 247.996094 156.433594 242.714844 160.023438 237.246094 162.332031 C 229.660156 165.539062 222.648438 166.828125 214.949219 166.425781 L 210.507812 166.191406 L 212.929688 167.199219 C 218.089844 169.339844 221.738281 170.265625 225.875 170.488281 C 230.652344 170.746094 234.113281 170.230469 239.050781 168.523438 C 240.984375 167.855469 243.074219 167.371094 243.691406 167.445312 L 244.820312 167.582031 L 243.445312 168.457031 C 241.679688 169.582031 236.753906 170.90625 232.34375 171.449219 C 225.144531 172.328125 220.160156 171.296875 206.90625 166.171875 C 200.316406 163.625 198.878906 163.402344 194.644531 164.300781 C 192.078125 164.847656 188.226562 165.136719 180.335938 165.378906 C 164.492188 165.867188 150.328125 167.808594 145.015625 170.214844 C 143.628906 170.84375 142.492188 171.441406 142.492188 171.542969 C 142.492188 171.644531 143.992188 171.726562 145.820312 171.730469 C 149.601562 171.734375 151.472656 172.292969 155.148438 174.519531 C 158.527344 176.5625 161.578125 179.515625 163.976562 183.066406 L 165.984375 186.035156 L 183.605469 185.839844 C 203.539062 185.617188 206.703125 185.355469 223.628906 182.523438 C 236.289062 180.410156 238.628906 179.894531 248.550781 177.035156 C 263.488281 172.734375 273.617188 168.421875 282.15625 162.730469 C 286.507812 159.835938 289.828125 158.109375 293.054688 157.066406 C 296.089844 156.089844 296.078125 156.101562 294.949219 154.898438 C 294.398438 154.3125 293.484375 152.898438 292.917969 151.761719 C 291.804688 149.535156 290.980469 148.671875 285.992188 144.523438 C 282.789062 141.863281 278.929688 139.53125 278.929688 140.257812 Z M 205.058594 141.160156 C 204.117188 141.589844 204.238281 141.667969 206.875 142.320312 C 208.429688 142.707031 210.972656 143.519531 212.527344 144.125 C 214.082031 144.734375 216.714844 145.476562 218.378906 145.78125 C 222.226562 146.476562 223.488281 146.472656 221.570312 145.765625 C 220.773438 145.472656 218.078125 144.28125 215.578125 143.117188 C 210.730469 140.863281 207.167969 140.199219 205.058594 141.160156 Z M 191.335938 142.085938 C 191.335938 142.65625 191.5625 143.125 191.839844 143.128906 C 192.117188 143.132812 192.78125 143.253906 193.316406 143.394531 C 194.53125 143.722656 194.203125 143.09375 192.535156 141.902344 L 191.335938 141.050781 Z M 128.707031 142.359375 C 128.339844 142.921875 126.363281 146.730469 124.3125 150.828125 C 120.414062 158.625 117.5625 163.113281 116.234375 163.535156 C 114.417969 164.113281 115.695312 164.539062 119.238281 164.539062 C 123.773438 164.539062 127.144531 165.457031 130.335938 167.570312 C 131.53125 168.359375 132.601562 168.917969 132.714844 168.804688 C 132.824219 168.691406 132.238281 165.261719 131.410156 161.179688 C 130.25 155.460938 129.84375 152.339844 129.640625 147.550781 C 129.382812 141.582031 129.347656 141.375 128.707031 142.359375 Z M 198.761719 143.003906 C 199.925781 143.613281 211.28125 146.621094 216.160156 147.613281 C 220.003906 148.394531 227.453125 148.636719 227.851562 147.996094 C 228.175781 147.472656 225.394531 146.75 224.074219 147.015625 C 222.390625 147.351562 214.105469 145.621094 210.3125 144.140625 C 207.289062 142.957031 206.328125 142.777344 202.351562 142.65625 C 198.636719 142.542969 197.996094 142.605469 198.761719 143.003906 Z M 190.125 144.742188 C 189.789062 144.957031 189.121094 145.132812 188.640625 145.136719 C 187.546875 145.144531 186.085938 146.9375 186.085938 148.269531 C 186.085938 149.753906 188.511719 152.011719 190.101562 152.011719 C 191.710938 152.011719 193.445312 151.125 194.527344 149.746094 C 196.304688 147.480469 194.957031 144.332031 192.214844 144.34375 C 191.398438 144.347656 190.457031 144.523438 190.125 144.742188 Z M 166.914062 146.464844 C 165.582031 146.863281 163.128906 147.757812 161.464844 148.449219 C 159.796875 149.140625 157.03125 150.207031 155.316406 150.816406 C 153.597656 151.425781 151.328125 152.585938 150.269531 153.390625 C 149.210938 154.195312 147.5625 155.351562 146.601562 155.957031 C 145.644531 156.566406 143.785156 157.835938 142.464844 158.78125 C 141.144531 159.726562 139.921875 160.5 139.746094 160.5 C 139.347656 160.5 137.777344 165.324219 137.410156 167.667969 C 137.261719 168.613281 137.277344 169.386719 137.441406 169.386719 C 137.605469 169.386719 139.851562 168.054688 142.4375 166.421875 C 145.019531 164.792969 148.101562 162.9375 149.28125 162.304688 C 150.460938 161.667969 151.605469 160.820312 151.820312 160.417969 C 152.050781 159.980469 152.664062 159.691406 153.34375 159.691406 C 153.980469 159.691406 155.570312 158.984375 156.972656 158.074219 C 158.347656 157.183594 159.683594 156.457031 159.941406 156.457031 C 160.195312 156.457031 160.054688 156.179688 159.625 155.835938 C 158.691406 155.097656 158.335938 155.386719 164.480469 151.898438 C 168.6875 149.511719 168.921875 149.308594 169.230469 147.796875 C 169.410156 146.925781 169.503906 146.101562 169.445312 145.972656 C 169.382812 145.84375 168.246094 146.066406 166.914062 146.464844 Z M 172.476562 149.691406 C 169.953125 151.265625 169.132812 152.9375 169.132812 156.507812 C 169.132812 158.761719 169.246094 159.074219 170.503906 160.335938 C 171.289062 161.121094 172.285156 161.710938 172.828125 161.710938 C 177.027344 161.710938 181.648438 157.625 181.648438 153.910156 C 181.648438 151.402344 178.285156 148.375 175.5 148.375 C 174.992188 148.375 173.632812 148.96875 172.476562 149.691406 Z M 166.488281 153.183594 C 166.277344 153.378906 165.105469 154.070312 163.886719 154.714844 C 162.664062 155.359375 161.628906 156.03125 161.589844 156.207031 C 161.546875 156.386719 160.765625 157.015625 159.851562 157.605469 L 158.191406 158.679688 L 161.734375 159.003906 C 166.804688 159.46875 167.0625 159.359375 167.011719 156.761719 C 166.992188 155.59375 167.109375 154.230469 167.273438 153.730469 C 167.578125 152.804688 167.183594 152.527344 166.488281 153.183594 Z M 162.472656 160.058594 C 159.773438 160.257812 159.46875 160.347656 160.605469 160.597656 C 162.953125 161.121094 168.417969 160.976562 168.226562 160.398438 C 168.03125 159.804688 166.863281 159.734375 162.472656 160.058594 Z M 284.277344 165.484375 C 282.28125 166.6875 282.175781 166.832031 282.460938 167.972656 C 282.625 168.640625 282.742188 170.457031 282.710938 172.011719 C 282.667969 174.390625 282.332031 175.675781 280.59375 180.09375 C 278.882812 184.445312 278.003906 186.039062 275.476562 189.386719 C 271.523438 194.617188 270.875 195.292969 267.042969 198.160156 C 262.753906 201.375 261.386719 202.015625 256.796875 202.988281 C 251.984375 204.011719 251.113281 204.449219 249.179688 206.835938 C 246.09375 210.640625 234.257812 222.257812 232.015625 223.683594 C 229.3125 225.40625 220.910156 229.316406 218.582031 229.9375 C 216.265625 230.558594 210.269531 231.1875 203 231.574219 C 196.90625 231.898438 196.511719 231.972656 190.6875 233.949219 C 182.714844 236.65625 180.507812 236.949219 169.335938 236.792969 C 160.078125 236.660156 160.042969 236.65625 157.527344 235.492188 C 156.140625 234.851562 155.003906 234.089844 155.003906 233.800781 C 155.003906 233.429688 155.699219 233.597656 157.324219 234.359375 L 159.648438 235.449219 L 169.738281 235.363281 C 180.625 235.269531 183.695312 234.882812 188.078125 233.035156 C 193.140625 230.902344 197.328125 229.972656 203.644531 229.582031 C 211.390625 229.101562 216.042969 228.515625 218.582031 227.703125 C 221.808594 226.671875 230.089844 222.511719 232.507812 220.707031 C 234.691406 219.074219 245.371094 208.105469 248.371094 204.40625 C 250.289062 202.046875 251.417969 201.460938 255.984375 200.460938 C 260.195312 199.542969 261.96875 198.726562 265.609375 196.03125 C 268.824219 193.652344 270.824219 191.570312 273.9375 187.367188 C 277.316406 182.808594 277.386719 182.675781 279.515625 177.066406 C 281.105469 172.890625 281.402344 171.6875 281.25 170.089844 C 281.148438 169.027344 280.976562 168.070312 280.867188 167.960938 C 280.761719 167.855469 278.78125 168.652344 276.46875 169.734375 C 270.523438 172.523438 260.40625 176.027344 250.109375 178.867188 C 244.699219 180.359375 241.144531 181.542969 240.945312 181.914062 C 240.765625 182.246094 240.019531 183.792969 239.289062 185.347656 C 237.082031 190.039062 232.226562 194.464844 221.226562 201.804688 C 213.890625 206.703125 210.453125 208.6875 203.53125 212.046875 C 198.804688 214.339844 193.625 216.578125 192.023438 217.019531 C 190.425781 217.460938 187.933594 218.273438 186.492188 218.824219 L 183.867188 219.828125 L 185.472656 220.511719 C 189.339844 222.152344 195.160156 221.644531 199.882812 219.25 C 201.933594 218.210938 204.019531 217.980469 204.492188 218.742188 C 204.664062 219.019531 203.90625 219.949219 202.597656 221.066406 C 201.398438 222.085938 199.691406 223.613281 198.800781 224.453125 L 197.1875 225.984375 L 198.09375 226.625 C 199.480469 227.597656 199.195312 228.25 197.085938 228.929688 C 188.449219 231.714844 179.511719 230.261719 173.097656 225.03125 L 170.8125 223.167969 L 168.257812 223.535156 C 166.851562 223.738281 161.179688 224.089844 155.648438 224.316406 C 150.121094 224.542969 145.527344 224.800781 145.4375 224.886719 C 145.351562 224.976562 146.457031 225.980469 147.890625 227.125 C 153.222656 231.371094 157.65625 237.617188 159.636719 243.671875 L 160.347656 245.839844 L 172.105469 245.640625 C 184.539062 245.433594 186.460938 245.222656 196.378906 242.96875 C 199.265625 242.316406 204.328125 241.308594 207.625 240.730469 C 214.199219 239.582031 216.828125 238.675781 223.273438 235.351562 C 225.933594 233.980469 228.277344 233.058594 229.441406 232.925781 C 230.472656 232.808594 231.414062 232.558594 231.53125 232.363281 C 231.652344 232.171875 232.039062 232.015625 232.394531 232.015625 C 232.75 232.015625 234.074219 231.027344 235.339844 229.820312 C 237.667969 227.59375 237.84375 227.5 253.175781 220.15625 C 261.050781 216.386719 267.902344 210.835938 275.53125 202.050781 C 276.621094 200.792969 278.515625 198.976562 279.734375 198.015625 C 282.582031 195.773438 284.191406 194.019531 286.164062 191.003906 C 288.679688 187.15625 289.21875 184.761719 289.21875 177.46875 C 289.222656 171.664062 289.136719 170.945312 288.0625 167.667969 C 287.425781 165.726562 286.792969 164.152344 286.652344 164.171875 C 286.511719 164.191406 285.441406 164.78125 284.277344 165.484375 Z M 115.144531 167.160156 C 114.421875 167.476562 113.832031 167.894531 113.832031 168.09375 C 113.832031 168.292969 115.964844 168.570312 118.574219 168.710938 C 122.957031 168.945312 128.523438 170.230469 133.003906 172.039062 C 133.746094 172.339844 133.765625 172.304688 133.226562 171.582031 C 131.671875 169.507812 130.804688 168.789062 128.566406 167.71875 C 126.308594 166.636719 125.816406 166.558594 121.300781 166.574219 C 118.046875 166.585938 116.023438 166.777344 115.144531 167.160156 Z M 111.808594 171.507812 C 110.871094 173.046875 110.796875 173.960938 111.550781 174.589844 C 112.445312 175.332031 115.582031 175.574219 117.90625 175.074219 C 119.101562 174.816406 122.273438 174.4375 124.953125 174.234375 C 129.886719 173.855469 132.375 173.316406 131.1875 172.882812 C 125.847656 170.914062 121.957031 170.203125 116.550781 170.199219 L 112.609375 170.195312 Z M 107.375 171.054688 C 106.816406 171.28125 105.871094 171.363281 105.273438 171.246094 C 103.078125 170.8125 103.210938 170.75 72.398438 186.875 C 63.085938 191.746094 56.050781 196.484375 51.835938 200.71875 C 45.398438 207.195312 45.222656 210.878906 51.035156 217.351562 C 53.207031 219.773438 55.988281 221.246094 59.691406 221.953125 C 63.128906 222.605469 75.871094 221.8125 82.546875 220.527344 C 86.792969 219.707031 93.480469 217.570312 93.070312 217.160156 C 92.734375 216.820312 84.695312 218.457031 81.402344 219.535156 C 77.523438 220.800781 77.097656 220.882812 77.097656 220.339844 C 77.097656 219.320312 85.140625 216.84375 91.628906 215.867188 C 93.296875 215.613281 96.382812 214.980469 98.492188 214.453125 C 103.222656 213.269531 107.398438 212.625 110.476562 212.601562 L 112.824219 212.582031 L 111.007812 211.085938 C 103.273438 204.714844 100.523438 200.007812 99.855469 192 C 99.460938 187.273438 101.285156 180.714844 103.976562 177.183594 C 104.535156 176.453125 104.90625 175.851562 104.796875 175.851562 C 104.691406 175.851562 102.023438 177.496094 98.875 179.5 C 92.882812 183.320312 90.820312 184.820312 84.148438 190.210938 C 79.160156 194.242188 72.601562 198.8125 68.757812 200.9375 C 65.976562 202.476562 56.777344 205.75 55.238281 205.75 C 52.746094 205.75 55.730469 203.785156 67.207031 197.867188 C 74.734375 193.988281 80.824219 190.234375 86.339844 186.078125 C 87.316406 185.34375 88.371094 184.742188 88.683594 184.742188 C 88.996094 184.742188 91.144531 183.511719 93.453125 182.011719 C 106.191406 173.742188 106.816406 173.390625 107.933594 173.816406 C 108.511719 174.035156 108.988281 174.3125 108.988281 174.429688 C 108.988281 174.546875 108.246094 175.3125 107.339844 176.128906 C 104.804688 178.421875 103.054688 182.464844 102.128906 188.152344 C 101.644531 191.128906 102.511719 196.332031 104.132812 200.195312 C 106.542969 205.9375 109.316406 208.488281 122.710938 217.265625 C 132.976562 223.996094 137.503906 227.371094 141.617188 231.371094 C 145.578125 235.214844 147.136719 237.257812 149.058594 241.105469 C 151.9375 246.863281 152.433594 248.636719 152.738281 254.234375 C 152.828125 255.902344 152.921875 257.335938 152.945312 257.421875 C 152.96875 257.507812 153.976562 256.542969 155.191406 255.28125 L 157.394531 252.984375 L 156.246094 248.429688 C 154.085938 239.867188 151.578125 235.335938 145.894531 229.738281 C 142.878906 226.761719 136.863281 222.386719 133.207031 220.5 C 130.683594 219.199219 124.996094 215.1875 122.242188 212.761719 C 119.160156 210.050781 115.988281 206.550781 112.195312 201.675781 C 107.984375 196.269531 107.5 195.574219 106.308594 193.226562 C 105.335938 191.3125 105.175781 190.519531 105.167969 187.535156 C 105.152344 184.175781 105.203125 183.992188 106.703125 181.726562 C 107.558594 180.441406 109.035156 178.648438 109.992188 177.746094 L 111.726562 176.105469 L 110.109375 174.933594 C 108.582031 173.824219 108.507812 173.671875 108.746094 172.179688 C 109.015625 170.492188 108.933594 170.429688 107.375 171.054688 Z M 138.710938 172.535156 C 138.601562 172.710938 139.363281 173.160156 140.402344 173.535156 C 144.488281 175.015625 149.597656 180.023438 150.5625 183.5 C 151.472656 186.773438 150.921875 189.183594 148.46875 192.707031 C 147.734375 193.757812 146.9375 195.171875 146.695312 195.84375 C 146.253906 197.0625 146.25 197.0625 143.484375 196.921875 C 141.960938 196.84375 140.277344 196.613281 139.738281 196.410156 C 138.695312 196.011719 139.046875 195.75 130.785156 203.105469 C 129.121094 204.589844 126.941406 206.273438 125.941406 206.847656 C 121.953125 209.140625 122.144531 208.941406 122.980469 209.882812 C 125.394531 212.613281 130.324219 215.964844 140.472656 221.777344 L 144.710938 224.203125 L 156.710938 223.722656 C 164.640625 223.402344 168.902344 223.078125 169.28125 222.765625 C 169.761719 222.367188 169.582031 221.886719 168.171875 219.777344 C 165.800781 216.230469 165.125 213.765625 164.457031 206.15625 C 163.820312 198.925781 162.925781 194.945312 160.980469 190.699219 C 159.78125 188.082031 159.671875 187.972656 158.277344 187.945312 C 156.933594 187.921875 156.890625 187.882812 157.730469 187.480469 C 158.230469 187.238281 158.636719 186.824219 158.636719 186.554688 C 158.636719 185.667969 153.679688 180.636719 149.988281 177.78125 C 145.953125 174.660156 142.746094 172.863281 141.699219 173.136719 C 141.324219 173.234375 140.675781 173.066406 140.261719 172.765625 C 139.40625 172.136719 138.992188 172.078125 138.710938 172.535156 Z M 146.453125 173.378906 C 150.4375 175.640625 155.03125 179.226562 158.265625 182.597656 C 160.035156 184.445312 161.769531 185.953125 162.121094 185.953125 C 162.945312 185.953125 162.695312 185.324219 160.71875 182.410156 C 157.253906 177.300781 151.113281 173.0625 146.242188 172.417969 L 144.308594 172.160156 Z M 329.644531 174.1875 C 326.859375 176.601562 315.976562 186.511719 311.527344 190.6875 C 306.875 195.054688 298.09375 202.195312 296.195312 203.152344 C 294.496094 204.011719 292.738281 205.652344 292 207.0625 C 291.492188 208.035156 291.496094 208.324219 292.035156 209.367188 C 292.375 210.023438 292.652344 210.738281 292.652344 210.953125 C 292.652344 211.847656 291.347656 212.539062 289.140625 212.8125 C 287.851562 212.972656 286.164062 213.375 285.386719 213.707031 C 284.609375 214.042969 283.011719 214.65625 281.832031 215.070312 C 279.488281 215.894531 268.164062 222.980469 263.246094 226.695312 C 259.992188 229.152344 252.917969 233.996094 247.335938 237.582031 C 245.507812 238.757812 242.085938 240.980469 239.726562 242.523438 C 237.371094 244.0625 235.011719 245.492188 234.480469 245.699219 C 233.949219 245.902344 232.335938 246.75 230.894531 247.578125 C 228.148438 249.15625 222.714844 251.671875 216.558594 254.214844 C 206.558594 258.34375 201.699219 261.234375 199.390625 264.421875 C 197.933594 266.441406 197.875 267.957031 199.171875 270.175781 C 200.203125 271.9375 204.1875 275.328125 206.128906 276.09375 C 209.769531 277.53125 216.199219 275.285156 225.152344 269.449219 C 229.140625 266.847656 231.828125 264.683594 235.648438 260.992188 C 238.472656 258.261719 242.144531 254.851562 243.808594 253.417969 C 245.476562 251.980469 248.816406 249.019531 251.234375 246.839844 C 253.65625 244.65625 257.652344 241.304688 260.117188 239.390625 C 262.582031 237.476562 265.722656 234.960938 267.101562 233.796875 C 268.476562 232.636719 271.199219 230.695312 273.15625 229.484375 C 275.109375 228.273438 278.222656 226.25 280.074219 224.988281 C 285.605469 221.21875 295.609375 216.660156 298.355469 216.660156 C 299.050781 216.660156 301.273438 217.226562 303.296875 217.921875 C 309.425781 220.03125 315.714844 219.941406 320.304688 217.679688 C 323.148438 216.277344 326.765625 213.183594 329.863281 209.503906 C 332.804688 206.011719 339.328125 196.5 341.601562 192.390625 C 342.40625 190.929688 343.878906 188.632812 344.871094 187.28125 C 346.617188 184.910156 348.152344 182.308594 347.882812 182.179688 C 347.8125 182.144531 347.375 181.902344 346.910156 181.648438 C 346.445312 181.390625 345.890625 181.296875 345.675781 181.445312 C 344.921875 181.960938 334.988281 192.945312 332.519531 195.996094 C 327.242188 202.515625 323.164062 207.082031 321.601562 208.210938 C 320.113281 209.292969 318.890625 209.71875 318.890625 209.160156 C 318.890625 208.835938 326.917969 199.4375 330.921875 195.074219 C 332.765625 193.0625 335.390625 189.78125 336.757812 187.777344 C 338.121094 185.773438 340.019531 183.070312 340.972656 181.765625 C 341.925781 180.464844 342.707031 179.054688 342.707031 178.636719 C 342.707031 176.734375 341.066406 178.304688 334.433594 186.558594 C 331.042969 190.78125 327.019531 195.417969 325.496094 196.863281 C 322.519531 199.683594 315.445312 205.796875 314.703125 206.191406 C 312.820312 207.191406 312.433594 207.328125 312.433594 207.007812 C 312.433594 206.394531 323.703125 193.128906 331.304688 184.804688 C 332.828125 183.128906 337.054688 176.734375 337.054688 176.097656 C 337.054688 175.1875 335.339844 176.660156 329.433594 182.640625 C 325.742188 186.375 320.128906 191.875 316.957031 194.863281 C 313.78125 197.851562 310.5625 200.886719 309.796875 201.609375 C 307.527344 203.753906 307.242188 203.101562 309.445312 200.800781 C 310.566406 199.636719 312.738281 197.226562 314.277344 195.449219 C 315.8125 193.671875 318.617188 190.558594 320.503906 188.535156 C 322.390625 186.511719 325.015625 183.328125 326.335938 181.464844 C 327.65625 179.597656 329.519531 177.21875 330.476562 176.171875 C 333.273438 173.109375 332.640625 171.59375 329.644531 174.1875 Z M 139.59375 176.960938 C 143.003906 180.34375 143.945312 182.648438 144.433594 188.78125 C 144.730469 192.578125 144.816406 192.902344 145.242188 191.886719 C 146.585938 188.683594 144.90625 180.28125 142.371094 177.519531 C 140.976562 176 138.40625 174.234375 137.589844 174.234375 C 137.066406 174.234375 137.65625 175.039062 139.59375 176.960938 Z M 129.574219 177.058594 C 120.320312 183.519531 110.753906 188.773438 108.230469 188.777344 C 107.367188 188.78125 107.296875 188.910156 107.535156 190.089844 C 107.675781 190.808594 108.363281 192.335938 109.058594 193.484375 C 110.402344 195.707031 118.15625 205.183594 120.191406 207.09375 L 121.40625 208.234375 L 123.773438 207.035156 C 126.578125 205.621094 137.648438 196.265625 137.648438 195.3125 C 137.648438 194.949219 137.207031 193.289062 136.671875 191.617188 C 133.371094 181.355469 133.101562 180.199219 133.363281 177.367188 C 133.503906 175.867188 133.480469 174.644531 133.3125 174.652344 C 133.144531 174.65625 131.460938 175.742188 129.574219 177.058594 Z M 124.785156 175.492188 C 123.152344 175.683594 121.152344 176.023438 120.34375 176.246094 C 119.539062 176.472656 117.53125 176.65625 115.890625 176.65625 L 112.902344 176.660156 L 111.308594 178.378906 C 108.609375 181.292969 106.421875 185.949219 107.175781 187.171875 C 107.476562 187.65625 113.308594 185.113281 117.042969 182.867188 C 124.582031 178.335938 129.535156 174.839844 128.0625 175.097656 C 127.894531 175.125 126.421875 175.304688 124.785156 175.492188 Z M 142.824219 176.492188 C 145.214844 178.539062 146.480469 180.941406 147.324219 185.03125 C 148.03125 188.460938 148.070312 188.539062 148.539062 187.367188 C 149.296875 185.476562 148.789062 182.140625 147.425781 180.042969 C 146.300781 178.308594 142.472656 175.042969 141.570312 175.042969 C 141.332031 175.042969 141.894531 175.695312 142.824219 176.492188 Z M 135.167969 177.179688 C 135.058594 180.375 135.273438 181.367188 137.570312 188.203125 C 139.824219 194.917969 139.890625 195.046875 141.078125 195.164062 L 142.289062 195.28125 L 142.011719 189.683594 C 141.617188 181.832031 140.257812 178.445312 136.632812 176.308594 L 135.226562 175.476562 Z M 322.320312 182.59375 C 319.4375 185.15625 315.078125 189.035156 312.632812 191.21875 C 306.238281 196.933594 298.898438 202.769531 295.984375 204.460938 C 294.59375 205.265625 293.355469 206.246094 293.230469 206.644531 C 293.105469 207.039062 293.40625 208.082031 293.898438 208.957031 C 294.683594 210.355469 294.730469 210.695312 294.285156 211.773438 C 293.582031 213.472656 293.101562 213.777344 290.386719 214.265625 C 287.089844 214.851562 280.847656 217.585938 277.757812 219.789062 C 276.335938 220.804688 273.785156 222.5625 272.082031 223.691406 C 270.382812 224.824219 267.1875 227.15625 264.980469 228.878906 C 255.8125 236.019531 243.007812 244.890625 234.988281 249.65625 C 232.246094 251.285156 229.921875 252.621094 229.824219 252.621094 C 229.511719 252.621094 218.4375 257.792969 212.828125 260.5625 C 208.589844 262.648438 206.972656 263.695312 205.066406 265.574219 C 201.867188 268.726562 201.675781 269.585938 203.695312 271.675781 C 205.183594 273.21875 205.355469 273.289062 207.164062 273.082031 C 209.632812 272.796875 216.082031 270.089844 219.738281 267.796875 C 221.320312 266.804688 223.617188 265.367188 224.839844 264.597656 C 226.0625 263.828125 228.789062 261.609375 230.894531 259.664062 C 233.003906 257.71875 236.273438 254.84375 238.160156 253.273438 C 240.046875 251.707031 244.222656 248.226562 247.441406 245.539062 C 255.457031 238.855469 268.324219 229.292969 272.417969 226.980469 C 274.273438 225.933594 276.660156 224.453125 277.71875 223.691406 C 280.074219 221.996094 285.636719 219.230469 290.230469 217.472656 C 292.117188 216.75 294.257812 215.90625 294.988281 215.601562 C 297.054688 214.730469 300.152344 214.941406 304.714844 216.257812 C 312.625 218.542969 319.101562 217.617188 324.3125 213.453125 C 327.972656 210.53125 334.878906 201.125 339.492188 192.777344 C 340.648438 190.691406 342.234375 188.074219 343.023438 186.964844 C 344.25 185.226562 343.898438 185.484375 340.519531 188.78125 C 338.359375 190.890625 335.378906 194.074219 333.898438 195.851562 C 324.273438 207.417969 319.714844 211.71875 318.140625 210.730469 C 317.777344 210.503906 317.429688 209.878906 317.371094 209.347656 C 317.253906 208.277344 317.984375 207.296875 324.300781 200.039062 C 327.75 196.078125 327.945312 195.785156 325.714844 197.910156 C 324.292969 199.261719 321.679688 201.535156 319.90625 202.960938 C 318.132812 204.382812 315.613281 206.503906 314.304688 207.671875 C 312 209.726562 310.742188 210.246094 310.199219 209.363281 C 309.636719 208.453125 310.539062 206.871094 313.699219 203.25 C 320.398438 195.574219 325.648438 189.695312 329.09375 186.015625 C 334.039062 180.726562 334.308594 179.726562 329.53125 184.367188 C 327.34375 186.496094 323.824219 189.75 321.714844 191.601562 C 316.644531 196.050781 310.148438 202.335938 309.332031 203.582031 C 308.554688 204.769531 306.535156 205.898438 305.734375 205.589844 C 304.105469 204.964844 305.785156 202.835938 318.738281 189.132812 C 322.566406 185.085938 325.472656 181.578125 327.148438 178.984375 C 327.542969 178.371094 327.796875 177.886719 327.71875 177.902344 C 327.636719 177.921875 325.207031 180.03125 322.320312 182.59375 Z M 238.160156 181.925781 C 235.300781 182.605469 212.761719 185.914062 207.480469 186.429688 C 203.753906 186.792969 196.382812 186.941406 184.167969 186.898438 C 174.34375 186.863281 166.308594 186.882812 166.308594 186.949219 C 166.308594 187.011719 166.675781 187.894531 167.125 188.910156 C 167.574219 189.929688 168.84375 193.773438 169.949219 197.457031 C 172.710938 206.671875 176.210938 213.269531 180.429688 217.21875 L 182.421875 219.085938 L 185.570312 217.9375 C 187.300781 217.304688 189.714844 216.550781 190.933594 216.261719 C 192.152344 215.976562 194.550781 215.039062 196.265625 214.183594 C 197.976562 213.324219 201.246094 211.796875 203.53125 210.785156 C 208.671875 208.507812 211.191406 207.027344 221.496094 200.230469 C 232.734375 192.816406 237.105469 188.484375 239.378906 182.492188 C 239.585938 181.953125 239.710938 181.527344 239.664062 181.546875 C 239.613281 181.570312 238.9375 181.742188 238.160156 181.925781 Z M 162.269531 186.976562 C 162.269531 187.09375 162.75 188.136719 163.332031 189.289062 C 163.914062 190.441406 164.828125 192.480469 165.359375 193.820312 C 166.042969 195.550781 166.25 195.847656 166.070312 194.839844 C 165.710938 192.8125 164.328125 188.734375 163.644531 187.671875 C 163.117188 186.851562 162.269531 186.425781 162.269531 186.976562 Z M 333.371094 189.488281 C 332.871094 190.128906 332.882812 190.144531 333.523438 189.640625 C 334.195312 189.113281 334.410156 188.78125 334.078125 188.78125 C 333.992188 188.78125 333.675781 189.097656 333.371094 189.488281 Z M 331.972656 191.304688 L 331.203125 192.214844 L 332.109375 191.445312 C 332.964844 190.722656 333.203125 190.398438 332.878906 190.398438 C 332.804688 190.398438 332.394531 190.804688 331.972656 191.304688 Z M 129.375 194.714844 C 128.539062 195.976562 127.0625 197.859375 126.09375 198.894531 C 124.277344 200.835938 124.214844 201.304688 125.777344 201.304688 C 126.832031 201.304688 128.914062 199.039062 131.101562 195.503906 L 132.566406 193.140625 L 134.300781 193.335938 C 135.253906 193.441406 136.03125 193.390625 136.03125 193.222656 C 136.03125 192.785156 134.488281 192.429688 132.558594 192.421875 C 130.988281 192.417969 130.820312 192.539062 129.375 194.714844 Z M 96.574219 194.300781 C 96.296875 194.414062 96.070312 194.824219 96.070312 195.21875 C 96.070312 196.277344 91.804688 200.144531 88.804688 201.804688 C 85.695312 203.523438 80.589844 205.363281 74.945312 206.796875 C 69.777344 208.105469 65.570312 210.046875 61.964844 212.785156 C 60.410156 213.964844 58.636719 215.25 58.027344 215.640625 C 57.414062 216.03125 56.914062 216.601562 56.914062 216.914062 C 56.914062 217.839844 59.347656 216.609375 62.667969 214.007812 C 66.5 211.011719 69.136719 209.71875 74.933594 208.011719 C 84.253906 205.261719 88.878906 203.160156 93.5625 199.554688 C 95.625 197.964844 98.089844 195.113281 98.089844 194.316406 C 98.089844 194 97.339844 193.992188 96.574219 194.300781 Z M 67.1875 198.882812 C 60.238281 202.367188 59.328125 203.460938 65.507812 200.894531 C 69.09375 199.402344 75.773438 195.246094 74.578125 195.246094 C 74.496094 195.246094 71.167969 196.882812 67.1875 198.882812 Z M 166.339844 197.097656 C 166.359375 197.566406 166.453125 197.664062 166.582031 197.34375 C 166.699219 197.050781 166.683594 196.703125 166.550781 196.566406 C 166.417969 196.433594 166.320312 196.671875 166.339844 197.097656 Z M 362.984375 196.90625 C 357.835938 197.765625 347.542969 203.027344 342.988281 207.128906 C 341.613281 208.367188 337.992188 211.304688 334.945312 213.660156 C 328.003906 219.023438 324.394531 223.125 321.90625 228.476562 C 320.691406 231.085938 320.648438 232.691406 321.753906 233.871094 L 322.601562 234.773438 L 321.679688 235.265625 C 321.171875 235.539062 318.660156 237.792969 316.089844 240.273438 C 313.089844 243.179688 309.476562 246.128906 305.972656 248.53125 C 302.976562 250.585938 299.046875 253.484375 297.242188 254.96875 C 295.4375 256.453125 292.441406 258.46875 290.582031 259.445312 C 287.078125 261.28125 280.5625 265.332031 271.742188 271.152344 C 268.921875 273.015625 264.253906 275.894531 261.371094 277.558594 C 258.484375 279.21875 254.6875 281.492188 252.933594 282.609375 C 251.183594 283.726562 248.546875 285.171875 247.082031 285.816406 C 242.128906 287.996094 239.601562 289.867188 238.328125 292.296875 C 236.964844 294.890625 237.75 296.613281 242.074219 300.542969 C 246.136719 304.226562 247.421875 304.898438 250.46875 304.921875 C 253.773438 304.949219 256.078125 303.746094 259.910156 299.980469 C 261.601562 298.316406 265.371094 295.253906 268.292969 293.179688 C 271.210938 291.101562 274.84375 288.261719 276.367188 286.867188 C 277.886719 285.46875 281.308594 282.703125 283.972656 280.71875 C 286.636719 278.734375 290.453125 275.660156 292.449219 273.890625 C 294.449219 272.121094 298.082031 269.183594 300.523438 267.355469 C 302.964844 265.53125 306.328125 262.820312 307.992188 261.328125 C 309.65625 259.839844 312.175781 257.769531 313.589844 256.730469 C 315.003906 255.691406 317.25 254.039062 318.578125 253.058594 C 319.910156 252.074219 322.476562 249.882812 324.285156 248.191406 C 326.089844 246.496094 329.566406 243.582031 332.011719 241.71875 C 334.453125 239.851562 338.089844 236.855469 340.089844 235.050781 C 342.09375 233.25 345.632812 230.480469 347.960938 228.894531 C 350.679688 227.039062 353.636719 224.519531 356.234375 221.839844 C 358.460938 219.546875 362.363281 215.921875 364.914062 213.78125 C 371.867188 207.949219 375 204.226562 375 201.800781 C 375 200.777344 373.242188 199.210938 370.402344 197.714844 C 367.902344 196.394531 366.789062 196.273438 362.984375 196.90625 Z M 363.726562 198.296875 C 358.636719 199.402344 350.101562 204.175781 345.023438 208.761719 C 343.289062 210.328125 339.648438 213.441406 336.9375 215.675781 C 331.542969 220.128906 328.527344 223.535156 326.40625 227.570312 C 325.09375 230.058594 323.652344 234.144531 323.847656 234.816406 C 324.074219 235.601562 313.128906 246.035156 308.679688 249.277344 C 306.058594 251.183594 302.832031 253.714844 301.511719 254.894531 C 298.113281 257.929688 295.316406 259.949219 292.046875 261.722656 C 290.492188 262.570312 288.042969 264.105469 286.597656 265.136719 C 285.15625 266.164062 281.339844 268.765625 278.121094 270.914062 C 274.902344 273.058594 271.359375 275.464844 270.25 276.261719 C 269.140625 277.058594 266.050781 279.003906 263.386719 280.589844 C 260.722656 282.175781 257.363281 284.285156 255.921875 285.277344 C 254.476562 286.273438 251.660156 287.867188 249.664062 288.824219 C 245.84375 290.648438 245.109375 291.175781 243.304688 293.359375 C 241.695312 295.304688 241.835938 296.347656 243.828125 297.226562 C 244.882812 297.691406 245.832031 298.542969 246.507812 299.628906 C 247.082031 300.550781 247.601562 301.367188 247.664062 301.441406 C 248.105469 301.964844 252 299.429688 254.8125 296.792969 C 256.664062 295.054688 260.535156 292.054688 263.410156 290.128906 C 266.289062 288.203125 269.910156 285.5 271.464844 284.121094 C 273.015625 282.742188 276.660156 279.921875 279.5625 277.855469 C 282.464844 275.789062 286.285156 272.855469 288.050781 271.335938 C 291.316406 268.535156 293.429688 266.90625 298.527344 263.265625 C 300.09375 262.148438 303.089844 259.789062 305.1875 258.023438 C 307.285156 256.261719 310.816406 253.601562 313.039062 252.117188 C 315.257812 250.632812 318.511719 248.117188 320.265625 246.53125 C 322.023438 244.941406 324.835938 242.636719 326.523438 241.40625 C 332.542969 237.007812 334.066406 235.832031 336.972656 233.328125 C 338.589844 231.9375 342.132812 229.316406 344.84375 227.507812 C 348.011719 225.394531 351.355469 222.6875 354.210938 219.917969 C 356.652344 217.550781 360.195312 214.449219 362.082031 213.027344 C 369.839844 207.175781 373.136719 203.542969 372.898438 201.109375 C 372.796875 200.082031 372.4375 199.722656 370.558594 198.792969 C 368.050781 197.554688 367.375 197.503906 363.726562 198.296875 Z M 166.890625 199.285156 C 167.007812 200.0625 167.371094 203.15625 167.699219 206.15625 C 168.03125 209.15625 168.578125 212.53125 168.914062 213.660156 C 170.378906 218.570312 175.007812 223.609375 180.597656 226.382812 C 183.40625 227.777344 184.453125 228.074219 187.183594 228.261719 C 191.007812 228.527344 193.695312 228.15625 193 227.460938 C 192.246094 226.703125 192.480469 225.859375 193.835938 224.457031 L 195.125 223.125 L 190.910156 223.121094 C 183.988281 223.113281 180.769531 221.914062 176.800781 217.871094 C 173.460938 214.464844 169.894531 208.074219 168.03125 202.15625 C 167.289062 199.800781 166.777344 198.507812 166.890625 199.285156 Z M 366.460938 202.839844 C 366.304688 203.246094 356.507812 211.320312 352.394531 214.4375 C 350.953125 215.53125 347.742188 218.3125 345.265625 220.625 C 342.785156 222.933594 339.789062 225.550781 338.605469 226.441406 C 335.4375 228.816406 335.058594 229.992188 337.46875 229.992188 C 338.96875 229.992188 341.769531 227.765625 348.359375 221.324219 C 351.132812 218.613281 354.402344 215.597656 355.625 214.625 C 358.324219 212.476562 367.414062 204.515625 367.828125 203.941406 C 367.992188 203.714844 368.066406 203.347656 367.996094 203.125 C 367.828125 202.59375 366.644531 202.371094 366.460938 202.839844 Z M 214.644531 260.527344 C 213.644531 261.070312 213.351562 261.542969 213.484375 262.40625 C 213.507812 262.570312 213.074219 262.492188 212.519531 262.242188 C 211.226562 261.648438 210.785156 262.09375 211.683594 263.085938 C 212.363281 263.835938 212.289062 263.917969 209.488281 265.582031 C 206.3125 267.472656 205.753906 268.214844 206.886719 269.042969 C 208.105469 269.933594 209.242188 269.691406 212.953125 267.746094 C 215.433594 266.449219 216.601562 266.03125 216.902344 266.332031 C 218.117188 267.550781 219.589844 266.195312 218.675781 264.703125 C 218.238281 263.988281 218.335938 263.742188 219.453125 262.734375 L 220.730469 261.582031 L 219.832031 260.738281 C 218.757812 259.726562 216.304688 259.628906 214.644531 260.527344 Z M 253.722656 288.792969 C 253.292969 289.121094 252.179688 289.386719 251.25 289.386719 C 249.59375 289.386719 249.542969 289.429688 248.683594 291.507812 C 248.199219 292.675781 247.605469 294.027344 247.367188 294.511719 C 247.128906 294.996094 247.03125 295.65625 247.15625 295.976562 C 247.496094 296.863281 249.4375 297.210938 250.214844 296.523438 C 250.578125 296.203125 251.964844 295.394531 253.296875 294.722656 C 255.769531 293.476562 258.34375 291.289062 258.34375 290.429688 C 258.34375 290.167969 257.519531 289.554688 256.515625 289.0625 C 254.378906 288.027344 254.699219 288.054688 253.722656 288.792969 Z M 253.722656 288.792969 " fill-opacity="1" fill-rule="evenodd"/></g></svg>