<svg xmlns="http://www.w3.org/2000/svg" xmlns:xlink="http://www.w3.org/1999/xlink" width="500" zoomAndPan="magnify" viewBox="0 0 375 374.999991" height="500" preserveAspectRatio="xMidYMid meet" version="1.0"><defs><clipPath id="afd96f500f"><path d="M 10.78125 1 L 364 1 L 364 374 L 10.78125 374 Z M 10.78125 1 " clip-rule="nonzero"/></clipPath></defs><g clip-path="url(#afd96f500f)"><path fill="#000000" d="M 363.125 311.535156 C 362.132812 306.179688 360.757812 300.859375 361.136719 295.332031 C 361.492188 290.082031 360.289062 284.996094 359.40625 279.886719 C 357.398438 269.816406 355.691406 259.6875 353.835938 249.589844 C 351.140625 235.558594 345.660156 222.269531 342.941406 208.253906 C 341.179688 199.089844 340.742188 189.742188 338.859375 180.59375 C 338.363281 178.179688 337.148438 176.105469 336.371094 173.847656 C 335.195312 170.445312 334.921875 166.761719 333.125 163.566406 C 331.242188 160.21875 331.3125 156.671875 332.195312 153.0625 C 335.449219 147.117188 320.339844 140.996094 315.824219 139.808594 C 312.457031 139.378906 312.726562 137.027344 311.726562 134.207031 C 310.144531 129.613281 309.582031 124.816406 308.695312 120.070312 C 307.832031 115.445312 308.230469 110.339844 304.585938 106.515625 C 304.222656 106.136719 304.488281 105.582031 304.675781 105.148438 C 306.308594 101.414062 306.203125 97.320312 307.140625 93.433594 C 308.773438 84.59375 311.59375 76.195312 314.714844 67.777344 C 314.882812 67.242188 315.367188 66.589844 314.808594 66.082031 C 313.066406 64.5 313.894531 62.753906 314.40625 61.03125 C 316.496094 54.296875 311.394531 55.425781 311.136719 52.066406 C 311.726562 48.125 311.972656 44.046875 314.394531 40.664062 C 316.023438 38.394531 316.550781 35.855469 316.941406 33.1875 C 317.308594 30.671875 317.402344 27.945312 318.492188 25.746094 C 320.171875 22.347656 319.5 18.582031 320.855469 15.214844 C 320.972656 14.914062 320.886719 14.46875 320.757812 14.148438 C 320.371094 13.183594 320.738281 11.695312 319.382812 11.398438 C 318.0625 11.113281 317.566406 12.316406 317.011719 13.273438 C 316.640625 13.910156 316.617188 14.984375 315.285156 14.769531 C 315.089844 12.417969 316.710938 4.132812 313.539062 4.066406 C 312.3125 3.929688 311.894531 4.992188 311.4375 5.792969 C 310.476562 8.753906 309.800781 11.886719 308.871094 14.878906 C 308.695312 15.492188 308.832031 16.445312 307.394531 16.152344 C 307.402344 11.621094 310.96875 7.261719 308.945312 2.832031 C 308.113281 1.015625 304.726562 1.15625 304.53125 3.277344 C 303.859375 6.472656 302.640625 9.566406 302.917969 12.929688 C 303.015625 14.097656 303.082031 15.339844 301.863281 16.386719 C 300.738281 11.828125 302.589844 7.601562 301.785156 3.039062 C 301.421875 0.015625 298.699219 1.464844 298.304688 3.652344 C 294.632812 9.339844 297.914062 15.8125 294.390625 21.683594 C 294.019531 18.480469 293.484375 15.191406 289.746094 15.714844 C 287.886719 15.832031 288.402344 17.375 288.242188 18.484375 C 287.441406 24.582031 286.222656 31.503906 290.230469 36.769531 C 292.363281 39.675781 295.035156 43.929688 293.152344 47.441406 C 290.683594 52.230469 291.382812 57.605469 289.078125 62.40625 C 287.65625 64.8125 286.558594 67.339844 286.65625 70.304688 C 286.695312 71.570312 286.222656 73.011719 285.554688 74.117188 C 283.003906 78.335938 282.007812 83.109375 280.507812 87.695312 C 279.617188 90.800781 274.695312 90.429688 271.582031 95.117188 C 269.5625 97.640625 266.800781 99.179688 264.335938 101.113281 C 263.875 101.476562 263.242188 102.007812 262.695312 101.722656 C 259.742188 100.167969 256.769531 101.421875 253.820312 101.570312 C 241.917969 102.4375 230.480469 103.046875 218.429688 102.449219 C 220.195312 96.46875 223.507812 78.28125 215.539062 76.164062 C 212.5625 75.882812 211.089844 72.839844 208.378906 72.152344 C 205.628906 71.921875 202.964844 70.859375 200.117188 71.546875 C 198.359375 71.972656 196.527344 72.199219 194.71875 72.316406 C 187.78125 72.757812 181.953125 75.25 178.175781 81.355469 C 175.929688 85.929688 170.8125 78.550781 162.648438 79.78125 C 153.152344 80.289062 143.972656 87.203125 143.714844 97.203125 C 144.15625 101.078125 136.417969 99.917969 133.867188 100.351562 C 120.445312 100.054688 107.046875 101.527344 93.617188 101.804688 C 90.378906 101.757812 86.019531 102.933594 84.046875 99.664062 C 76.886719 89.640625 72.121094 78.246094 68.410156 66.683594 C 66.5 64.085938 65.554688 61.097656 64.75 58.019531 C 64.3125 56.335938 64.910156 53.78125 61.839844 53.84375 C 60.945312 53.273438 61.394531 50.878906 61.125 49.929688 C 61.988281 49.402344 62.496094 50.1875 63.257812 50.367188 C 70.136719 52.476562 68.457031 45.566406 72.472656 41.699219 C 74.648438 42.652344 78.6875 46.746094 80.179688 43.382812 C 81.339844 40.164062 81.535156 37.0625 79.859375 33.894531 C 77.902344 29.699219 78.15625 34.667969 76.175781 33.378906 C 74.632812 32.863281 74.808594 31.863281 75.054688 30.554688 C 76.027344 26.652344 74.632812 27.375 71.453125 26.210938 C 73.726562 21.371094 69.4375 22.347656 70.636719 19.367188 C 72.183594 16.292969 68.519531 11.539062 65.691406 14.101562 C 64.65625 15.179688 63.589844 15.980469 62.277344 16.628906 C 61.605469 16.960938 61.496094 18.34375 60.464844 18.09375 C 59.558594 17.871094 58.765625 17.21875 57.90625 16.789062 C 55.941406 14.316406 54.285156 11.472656 52.074219 16.097656 C 59.71875 15.226562 52.757812 20.710938 55.207031 26.90625 C 58.980469 22.710938 51.800781 24.503906 58.785156 19.535156 C 59.847656 21.386719 57.78125 23.050781 58.648438 24.933594 C 60.617188 24.257812 62.148438 22.128906 64.496094 23.074219 C 65.09375 24.695312 63.335938 25.71875 63.691406 27.492188 C 67.898438 25.015625 68.71875 27.839844 72.75 28.527344 C 75.339844 29.59375 72.863281 33.019531 71.820312 34.394531 C 72.878906 35.109375 73.652344 34.480469 74.464844 34.40625 C 76.007812 34.125 76.613281 35.707031 75.605469 36.746094 C 74.519531 38.335938 73.265625 38.074219 71.925781 37.023438 C 70.339844 35.761719 68.839844 37.289062 70.164062 38.828125 C 71.136719 40.910156 70.90625 41.789062 68.917969 42.511719 C 67.558594 43.003906 66.140625 43.425781 64.851562 42.164062 C 64.554688 41.875 63.933594 41.769531 63.574219 42.292969 C 62.964844 43.78125 65.082031 45.234375 66.546875 44.816406 C 67.273438 44.632812 68.03125 44.890625 68.347656 45.6875 C 68.714844 46.609375 68.140625 47.371094 67.628906 47.992188 C 65.476562 51.03125 60.085938 46.007812 62.039062 43.796875 C 63.269531 42.164062 63.4375 40.824219 61.808594 39.488281 C 59.3125 39.085938 54.277344 39.652344 55.167969 43.445312 C 59.074219 37.894531 64.878906 41.429688 60.582031 43.1875 C 59.738281 43.386719 58.449219 42.273438 57.984375 43.394531 C 57.742188 43.894531 58.007812 44.546875 58.457031 44.570312 C 60.304688 44.671875 59.886719 46.246094 60.292969 47.246094 C 60.605469 48.019531 60.242188 48.746094 59.46875 48.996094 C 58.386719 49.304688 57.855469 48.019531 57.679688 47.148438 C 56.234375 44.082031 54.03125 46.484375 54.0625 48.886719 C 52.191406 48 53.867188 43.960938 52.691406 42.367188 C 49.324219 43.515625 53.515625 47.878906 50.589844 48.878906 C 50.144531 48.9375 49.542969 49.113281 49.246094 48.632812 C 48.679688 47.714844 49.328125 46.195312 47.613281 45.796875 C 45.265625 45.253906 48.140625 43.707031 47.230469 42.820312 C 48.859375 42.652344 49.855469 41.226562 49.980469 39.746094 C 50.210938 38.375 47.679688 38.054688 48.433594 36.308594 C 46.625 37.390625 45.519531 35.546875 44.046875 35.300781 C 41.925781 35.144531 42.714844 37.5 43.695312 38.691406 C 39.894531 38.929688 38.152344 45.957031 34.539062 43.429688 C 33.847656 42.542969 35.625 42.28125 35.078125 41.410156 C 33.75 41.269531 31.976562 42.355469 32.074219 43.84375 C 32.394531 46.160156 35.09375 44.445312 35.773438 46.597656 C 33.027344 47.714844 31.039062 50.007812 28.855469 52.304688 C 26.28125 47.632812 28.539062 47.0625 30.5 43.519531 C 29.429688 44.351562 27.433594 43.703125 27.238281 45.558594 C 27.003906 47.710938 27.019531 49.925781 27.222656 52.082031 C 27.476562 54.796875 30.363281 53.675781 31.546875 52.171875 C 34.3125 49.632812 36.90625 49.140625 40.1875 51.398438 C 38.214844 45.824219 43.390625 48.890625 45.582031 46.4375 C 44.730469 48.984375 44.382812 51.671875 41.613281 52.84375 C 41.707031 53.878906 40.304688 53.773438 40.171875 54.785156 C 44.214844 55.894531 46.96875 53.382812 49.636719 51.347656 C 51.453125 54.003906 51.554688 56.605469 50.367188 59.351562 C 49.617188 62.449219 50.457031 66.019531 49.59375 69.082031 C 47.390625 79.328125 60.984375 81.640625 64.722656 89.210938 C 66.5625 93.5625 69.351562 97.445312 70.84375 101.945312 C 69.421875 102.8125 69.464844 102.824219 68.777344 105.730469 C 66.507812 115.292969 64.617188 124.925781 63.644531 134.71875 C 63.445312 136.6875 62.605469 137.886719 60.75 138.398438 C 57.726562 139.140625 46.128906 145.339844 45.574219 148.324219 C 44.933594 154.347656 42.246094 159.980469 42.214844 166.117188 C 42.007812 168.328125 40.023438 169.90625 39.820312 172.160156 C 35.601562 187.371094 34.210938 203.128906 30.117188 218.363281 C 25.742188 234.734375 20.949219 250.945312 18.515625 267.785156 C 16.503906 280.488281 16.789062 293.855469 12.023438 305.953125 C 11.054688 307.925781 10.792969 310.078125 11.027344 312.335938 C 11.402344 315.949219 11.621094 319.582031 11.789062 323.214844 C 11.898438 325.640625 12.113281 326.195312 14.492188 326.652344 C 18.765625 327.472656 22.96875 328.671875 27.34375 328.953125 C 29.105469 329.066406 30.875 329.347656 32.480469 330.511719 C 31.476562 331.882812 29.207031 331.683594 29.132812 333.699219 C 28.695312 337.972656 30.316406 343.429688 35.515625 343.03125 C 45.714844 344.375 42.433594 337.855469 43.304688 331.246094 C 45.253906 344.597656 46.242188 357.304688 49.546875 370.429688 C 49.839844 371.929688 50.730469 372.59375 52.210938 372.96875 C 60.34375 374.898438 68.574219 373.3125 76.773438 372.945312 C 81.464844 372.269531 80.296875 365.691406 80.449219 362.171875 C 79.992188 354.058594 80.816406 345.894531 79.46875 337.816406 C 79.339844 335.949219 79.3125 334.554688 81.816406 334.585938 C 109.898438 334.421875 137.976562 335.523438 166.066406 335.21875 C 207.839844 334.828125 249.777344 336.867188 291.441406 332.972656 C 294.242188 332.65625 294.625 332.992188 294.738281 335.761719 C 294.71875 345.832031 295.300781 355.898438 295.496094 365.964844 C 295.257812 370.769531 296.679688 370.5625 300.914062 370.976562 C 308.589844 371.734375 316.148438 370.332031 323.753906 369.792969 C 326.839844 368.734375 326.832031 364.378906 326.8125 361.628906 C 326.300781 352.523438 328.738281 343.613281 328.558594 334.5 C 328.714844 330.234375 328.695312 330.234375 332.960938 329.941406 C 341.273438 329.265625 349.636719 328.453125 357.835938 326.769531 C 359.859375 326.332031 361.246094 325.171875 361.378906 323.269531 C 361.652344 319.230469 364.074219 315.652344 363.125 311.535156 Z M 62.738281 21.574219 C 62.199219 21.183594 62.058594 20.152344 63.015625 20.207031 C 63.824219 20.378906 63.605469 22.019531 62.738281 21.574219 Z M 67.0625 24.734375 C 66.082031 24.488281 66.21875 23.671875 66.242188 22.984375 C 66.261719 22.296875 65.507812 21.683594 66.082031 20.917969 C 67.191406 20.394531 67.925781 21.164062 68.460938 21.867188 C 69.117188 22.777344 68.511719 25.15625 67.0625 24.734375 Z M 66.449219 16.226562 C 66.214844 15.773438 66.617188 15.1875 67.101562 15.171875 C 68.5625 15.132812 69.082031 16.144531 69.367188 17.371094 C 67.890625 18.109375 67.035156 17.355469 66.449219 16.226562 Z M 75.941406 38.378906 C 76.824219 37.46875 76.777344 36.140625 77.6875 35.320312 C 78.453125 37.203125 80.40625 39.007812 79.3125 41.113281 C 78.753906 42.378906 78.125 43.015625 76.628906 42.121094 C 74.316406 40.746094 74.089844 40.292969 75.941406 38.378906 Z M 37.671875 45.976562 C 38.074219 45.25 39.511719 44.421875 39.5625 45.816406 C 39.003906 46.390625 38.351562 46.394531 37.671875 45.976562 Z M 40.367188 43.0625 C 40.277344 42.882812 40.570312 42.3125 40.820312 42.1875 C 42.347656 41.414062 42.726562 43.167969 43.792969 43.609375 C 42.421875 44.382812 41.148438 44.582031 40.367188 43.0625 Z M 45.382812 41.527344 C 43.511719 38.40625 51.832031 38.582031 47.125 42.734375 C 46.699219 42.925781 46.277344 43.117188 45.847656 43.3125 C 44.714844 42.992188 45.753906 42.121094 45.382812 41.527344 Z M 331.3125 165.714844 C 338.5 180.242188 337.847656 196.550781 340.980469 212.097656 C 342.320312 219.105469 344.957031 225.75 346.8125 232.613281 C 351.679688 248.636719 354.046875 265.21875 357.261719 281.625 C 359.113281 289.597656 358.179688 297.792969 359.136719 305.867188 C 359.257812 307.949219 358.949219 308.238281 356.898438 308.117188 C 354.601562 307.980469 352.316406 307.667969 350.023438 307.53125 C 347.179688 307.359375 346.753906 307.199219 346.648438 304.546875 C 346.488281 300.429688 345.085938 296.722656 343.414062 293.0625 C 342.058594 290.089844 341.957031 290.074219 338.765625 290.507812 C 337.203125 290.71875 335.617188 290.722656 334.058594 290.929688 C 331.648438 291.316406 331.605469 288.796875 331.535156 287.117188 C 331.792969 275.765625 330.625 264.460938 330.386719 253.125 C 329.835938 239.660156 329.59375 226.066406 328.101562 212.679688 C 327.5625 209.976562 327.5625 207.378906 328.128906 204.742188 C 328.980469 198.101562 327.894531 191.367188 329.320312 184.75 C 329.273438 178.3125 328.925781 171.941406 331.3125 165.714844 Z M 304.472656 190.632812 C 303.914062 186.335938 303.757812 181.976562 303.050781 177.6875 C 302.742188 175.800781 303.988281 175.6875 305.246094 175.699219 C 313.75 175.761719 317.375 178.59375 319.875 186.695312 C 324.28125 201.234375 326.769531 216.671875 326.703125 231.832031 C 328.289062 250.882812 328.503906 269.023438 329.082031 287.886719 C 329.117188 290.652344 329.015625 290.601562 326.394531 290.777344 C 322.777344 291.019531 319.164062 291.3125 315.558594 291.664062 C 313.796875 291.835938 313.175781 291.15625 313.21875 289.417969 C 313.375 282.652344 313.257812 275.882812 314.175781 269.136719 C 314.417969 242.765625 307.050781 216.832031 304.472656 190.632812 Z M 59.21875 290.328125 C 87.550781 290.578125 115.683594 290.40625 144.027344 290.425781 C 163.210938 290.933594 182.367188 289.335938 201.550781 289.78125 C 217.054688 290.671875 232.503906 289.664062 247.980469 289.078125 C 266.292969 288.933594 284.605469 288.171875 302.738281 285.398438 C 306.167969 285.496094 311.570312 284.328125 310.902344 289.832031 C 310.75 291.191406 310.472656 292.25 308.589844 292.4375 C 299.882812 293.289062 291.125 293.117188 282.414062 293.859375 C 257.605469 295.535156 232.726562 295.582031 207.890625 295.785156 C 189.613281 295.878906 171.316406 297.671875 153.03125 296.695312 C 138.207031 295.617188 123.460938 296.972656 108.65625 297.339844 C 92.179688 297.449219 75.703125 296.621094 59.277344 295.890625 C 58.757812 293.945312 59.960938 292.210938 59.21875 290.332031 Z M 310.300781 281.359375 C 310.28125 282.246094 309.722656 282.53125 308.875 282.628906 C 276.699219 287.058594 244.039062 287.449219 211.605469 287.605469 C 198.96875 287.1875 186.34375 286.976562 173.746094 288.136719 C 139.113281 288.933594 104.429688 287.976562 69.824219 288.589844 C 67.25 288.511719 58.570312 289.878906 58.941406 285.679688 C 58.113281 259.398438 59.472656 232.933594 63.074219 206.886719 C 65.035156 196.460938 66.96875 185.910156 70.609375 175.9375 C 70.714844 175.679688 70.480469 175.285156 70.367188 174.785156 C 69.074219 175.496094 68.769531 176.605469 68.433594 177.785156 C 65.824219 186.984375 62.996094 196.160156 61.71875 205.644531 C 57.609375 227.734375 57.8125 250.203125 56.386719 272.546875 C 56.117188 279.757812 57.183594 286.992188 56.878906 294.238281 C 56.941406 295.777344 56.269531 296.152344 54.921875 296.003906 C 51.480469 295.464844 47.957031 294.8125 44.445312 295.136719 C 43.382812 295.355469 42.875 294.835938 42.796875 293.777344 C 41.878906 287.019531 42.191406 280.265625 42.339844 273.464844 C 41.738281 256.15625 48.277344 239.570312 48.363281 222.296875 C 48.625 211.4375 51.148438 201 53.085938 190.40625 C 53.75 186.300781 55.316406 182.488281 56.324219 178.5 C 57.203125 175.019531 59.285156 173.328125 62.941406 173.429688 C 85.878906 172.484375 108.769531 173.726562 131.699219 174.339844 C 172.285156 174.976562 212.910156 175.414062 253.503906 175.65625 C 230.09375 178.160156 206.621094 178.492188 183.089844 177.835938 C 206.296875 180.691406 229.941406 178.625 253.253906 177.230469 C 268.148438 176.507812 283.058594 177.167969 297.949219 176.417969 C 301.449219 176.21875 300.976562 180.375 301.511719 182.742188 C 303.421875 211.347656 311.164062 239.320312 311.820312 268.015625 C 311.898438 272.535156 310.402344 276.863281 310.300781 281.359375 Z M 65.285156 171.566406 C 73.023438 169.320312 81.277344 169.726562 89.203125 168.371094 C 95.335938 167.574219 101.269531 168.996094 107.257812 169.789062 C 115.378906 171.257812 123.609375 170.40625 131.722656 172.070312 C 118.421875 172.425781 105.351562 172.359375 92.101562 171.359375 C 83.167969 170.5625 74.230469 172.183594 65.285156 171.566406 Z M 133.757812 172.183594 C 134.539062 171.804688 135.273438 171.652344 136.015625 172.289062 C 135.222656 172.730469 134.496094 172.753906 133.757812 172.183594 Z M 307.851562 128.074219 C 308.265625 130.726562 309.085938 133.246094 309.746094 135.816406 C 310.023438 136.898438 311.132812 138.164062 309.527344 138.976562 C 304.921875 140.53125 305.164062 130.878906 304.121094 127.992188 C 303.808594 122.96875 300.210938 113.914062 303.441406 109.886719 C 306.144531 112.585938 306.71875 123.71875 307.851562 128.074219 Z M 301.417969 138.996094 C 291.328125 139.472656 281.859375 141.550781 271.777344 143.160156 C 271.199219 139.4375 272.941406 136.65625 274.820312 134.160156 C 276.386719 132.074219 278.285156 130.117188 280.792969 128.96875 C 281.324219 128.726562 281.964844 128.382812 282.210938 127.90625 C 286.027344 121.074219 294.03125 121.179688 299.945312 116.972656 C 301.203125 123.746094 302.449219 130.113281 303.53125 136.507812 C 303.9375 138.910156 303.761719 139.054688 301.417969 138.996094 Z M 289.644531 25.851562 C 290.472656 23.824219 290.355469 21.410156 290.964844 19.117188 C 291.898438 22.5625 292.269531 26.160156 294.382812 29.164062 C 296.25 29.691406 297.292969 18.535156 297.828125 16.714844 C 298.683594 12.8125 296.359375 8.5625 299.972656 5.4375 C 299.722656 9.476562 299.511719 13.054688 299.277344 16.632812 C 299.199219 17.828125 298.796875 19.164062 300.382812 19.695312 C 302.050781 20.246094 302.761719 19.023438 303.523438 17.882812 C 304.613281 16.253906 304.476562 14.40625 304.488281 12.605469 C 304.503906 9.441406 305.03125 6.390625 306.226562 2.976562 C 310.890625 8.390625 303.484375 14.820312 306.027344 21.144531 C 311.667969 19.820312 309.699219 9.476562 313.730469 6.390625 C 313.148438 10.902344 313.632812 15.128906 312.011719 19.121094 C 310.914062 21.367188 313.386719 22.292969 314.558594 20.332031 C 316.285156 18.386719 315.949219 15.605469 318.496094 14.132812 C 319.347656 15.417969 318.859375 16.65625 318.53125 17.835938 C 317.011719 23.808594 314.75 29.589844 314.035156 35.699219 C 313.570312 37.210938 313.34375 38.894531 312.234375 40.003906 C 309.027344 43.171875 309.980469 47.410156 308.390625 51.28125 C 305.695312 51.261719 303.875 49.253906 301.652344 48.234375 C 298.726562 45.96875 295.128906 48.40625 295.394531 45.019531 C 296.675781 37.296875 286.160156 33.699219 289.644531 25.851562 Z M 293.113281 51.957031 C 293.863281 50.078125 295.304688 49.339844 297.132812 49.507812 C 301.765625 50.019531 305.386719 53.449219 309.304688 55.6875 C 312.8125 57.96875 312.8125 58.109375 311.332031 62.5625 C 305.949219 58.589844 301.351562 54.59375 294.363281 54.324219 C 292.574219 54.109375 292.429688 53.675781 293.113281 51.957031 Z M 259.355469 105.410156 C 264.59375 103.871094 269.722656 100.96875 272.851562 96.53125 C 277.054688 90.574219 281.40625 93.359375 286.679688 90.191406 C 287.558594 89.691406 288.335938 88.714844 287.910156 87.90625 C 286.535156 85.78125 285.585938 89.574219 283.675781 88.445312 C 285.96875 78.546875 296.289062 79.113281 293.824219 75.601562 C 290.464844 76.863281 287.589844 78.800781 285.019531 81.242188 C 283.757812 79.925781 289.523438 73.027344 290.105469 70.617188 C 291.449219 66.582031 296.257812 66.605469 296.164062 64.054688 C 293.410156 63.828125 291.914062 65.972656 289.675781 67.640625 C 289.988281 64.695312 291.832031 55.683594 295.382812 57.117188 C 302.066406 58.199219 304.289062 60.824219 309.371094 64.910156 C 314.664062 68.597656 309.796875 73.957031 308.632812 78.636719 C 304.390625 90.394531 304.433594 103.304688 298.457031 114.4375 C 297.984375 112.597656 299.324219 110.867188 298.234375 109.128906 C 295.429688 109.175781 299.042969 115.5625 291.175781 118.601562 C 287.070312 120.28125 283.257812 122.308594 280.914062 126.328125 C 275.128906 129.984375 271.53125 134.773438 268.773438 141.5625 C 267.734375 131.101562 259.835938 122.121094 252.667969 115.492188 C 248.796875 111.289062 245.875 113.109375 244.273438 110.957031 C 242.21875 106.074219 250.324219 108.515625 252.636719 109.046875 C 253.941406 109.28125 255.0625 109.8125 256.367188 108.722656 C 257.648438 107.648438 259.445312 108.761719 261.097656 108.214844 C 260.605469 105.9375 258.488281 107.234375 257.304688 106.488281 C 257.703125 105.5 258.621094 105.5625 259.355469 105.410156 Z M 203.765625 111.457031 C 203.167969 117.246094 195.773438 119.988281 191.449219 122.765625 C 187.691406 124.433594 188.578125 117.203125 185.042969 116.289062 C 184.300781 115.949219 185.003906 114.722656 185.089844 113.8125 C 183.65625 110.359375 188.039062 110.769531 184.011719 104.890625 C 181.441406 101.308594 183.097656 96.804688 181.78125 92.871094 C 181.378906 91.746094 181.777344 91.128906 182.824219 90.570312 C 184.820312 89.5 186.976562 88.820312 188.839844 87.363281 C 193.378906 84.578125 196.667969 93.664062 197.023438 97.140625 C 197.21875 98.824219 197.605469 100.488281 198.378906 102.027344 C 201.292969 106.644531 201.746094 95.910156 205.945312 97.402344 C 209.113281 98.855469 208.160156 103.957031 205.957031 105.914062 C 204.367188 107.472656 203.570312 109.234375 203.765625 111.457031 Z M 185.414062 120.660156 C 187.578125 125.605469 189.199219 126.738281 194.058594 123.753906 C 197.046875 121.472656 198.042969 126.433594 199.503906 128.175781 C 200.507812 130.113281 200.324219 130.417969 198.464844 131.621094 C 192.980469 134.882812 187.046875 137.5 182.246094 141.824219 C 180.125 143.8125 178.429688 143.65625 176.285156 141.683594 C 173.40625 138.78125 169.746094 136.640625 167.273438 133.394531 C 165.339844 131.421875 165.328125 129.078125 165.921875 126.613281 C 166.886719 122.617188 167.925781 121.871094 171.902344 123 C 174.851562 123.835938 177.933594 123.414062 180.851562 124.316406 C 183.226562 124.855469 183.808594 122.242188 185.414062 120.660156 Z M 199.410156 122.535156 C 200.925781 123.382812 201.550781 124.085938 201.363281 125.335938 C 200.5625 124.761719 199.910156 123.828125 199.410156 122.535156 Z M 197.496094 134.1875 C 203.113281 131.949219 207.402344 127.316406 213.046875 124.988281 C 216.066406 123.386719 218.96875 121.679688 221.117188 118.933594 C 222.136719 117.625 223.214844 116.902344 225.121094 117.476562 C 232.472656 120.828125 239.660156 106.488281 241.761719 112.46875 C 242.007812 113.261719 242.785156 113.363281 243.539062 113.46875 C 246.890625 113.949219 249.320312 115.8125 251.921875 117.980469 C 258.921875 124.324219 265.519531 132.171875 266.480469 141.90625 C 266.5625 143.675781 266.054688 144.359375 264.375 144.433594 C 258.574219 144.707031 252.847656 145.613281 246.960938 145.273438 C 230.894531 144.472656 214.753906 145.058594 198.722656 143.328125 C 194.710938 142.980469 190.710938 143.167969 186.703125 143.117188 C 185.882812 143.109375 185.011719 143.222656 184.042969 142.550781 C 187.832031 138.585938 192.648438 136.441406 197.496094 134.1875 Z M 220.203125 116.472656 C 217.359375 122.941406 209.667969 124.050781 204.65625 128.261719 C 204.1875 128.628906 203.605469 128.976562 203.089844 128.308594 C 202.511719 127.496094 203.210938 126.316406 203.75 125.6875 C 207.113281 122.890625 209.8125 119.421875 213.046875 116.5 C 216.066406 113.769531 216.230469 113.808594 220.203125 116.472656 Z M 219.246094 112.386719 C 224.066406 111.949219 228.871094 112.003906 234.214844 111.121094 C 230.910156 115.605469 229.738281 116.109375 225.484375 114.78125 C 223.402344 114.128906 221.140625 113.890625 219.246094 112.386719 Z M 220.355469 104.460938 C 232.734375 105.277344 245.023438 103.550781 257.332031 103.320312 C 255.21875 105.71875 252.660156 106.289062 250.019531 105.339844 C 240.878906 102.773438 240.839844 112.707031 221.121094 109.613281 C 217.539062 109.996094 215.585938 103.644531 220.355469 104.460938 Z M 179.890625 81.929688 C 184.421875 74.019531 194.003906 73.984375 202.0625 74.070312 C 206.785156 73.742188 208.085938 75.8125 211.679688 77.699219 C 216.507812 78.300781 217.769531 81.835938 218.300781 85.894531 C 219.070312 91.738281 218.074219 97.34375 215.808594 102.742188 C 215.511719 103.449219 215.40625 104.039062 215.558594 104.8125 C 216.320312 108.277344 212.796875 109.304688 211.1875 106.324219 C 210.914062 105.921875 210.667969 105.492188 210.085938 105.523438 C 208.972656 109.125 211.609375 111.28125 216.488281 110.652344 C 216.34375 111.601562 215.304688 111.152344 214.933594 111.75 C 212.59375 115.511719 208.910156 118.007812 205.972656 121.214844 C 203.457031 123.96875 202.535156 123.929688 199.449219 120.824219 C 200.511719 119.898438 201.457031 118.78125 202.652344 118.101562 C 207.425781 115.511719 204.59375 109.3125 208.429688 106.128906 C 210.546875 103.816406 210.363281 101.277344 209.511719 98.648438 C 208.808594 94.386719 203.988281 93.886719 201.664062 97.308594 C 201.308594 97.925781 200.777344 98.4375 200.074219 99.316406 C 198.984375 97.667969 198.582031 96.300781 198.441406 94.851562 C 198.136719 91.839844 196.519531 89.371094 195.011719 86.910156 C 193.617188 84.625 192.746094 84.335938 190.117188 85.195312 C 187.261719 86.132812 184.480469 87.292969 181.710938 88.46875 C 178.449219 90.007812 178.359375 83.730469 179.890625 81.929688 Z M 173.582031 85.390625 C 175.769531 87.136719 178.601562 88.480469 175.589844 91.117188 C 172.484375 94.765625 170.265625 98.871094 169.351562 103.621094 C 169.144531 104.191406 169.273438 104.945312 168.664062 105.261719 C 167.648438 105.273438 167.046875 104.378906 166.257812 103.90625 C 162.980469 101.664062 158.359375 105.277344 159.207031 108.96875 C 160.257812 111.6875 160.769531 115.550781 157.355469 116.6875 C 154.460938 117.660156 152.921875 117.339844 152.144531 114.859375 C 151.605469 113.132812 150.492188 114.535156 149.984375 113.96875 C 144.195312 108.8125 146.863281 106.195312 145.488281 99.714844 C 143.617188 84.425781 164.617188 78.277344 173.582031 85.390625 Z M 143.378906 104.527344 C 143.511719 104.171875 144.601562 104.835938 144.523438 105.429688 C 143.933594 109.734375 146.21875 113.023438 148.527344 116.558594 C 140.054688 122.640625 127.519531 109.839844 140.042969 105.457031 C 141.164062 105.292969 142.636719 106.53125 143.378906 104.527344 Z M 100.589844 103.382812 C 107.863281 103.570312 115.011719 102.128906 122.25 101.921875 C 127.597656 101.890625 132.863281 103.304688 138.210938 102.027344 C 139.703125 101.480469 140.5625 103.4375 138.949219 103.910156 C 137.042969 104.722656 135.390625 106.003906 133.582031 106.945312 C 120.753906 109.214844 107.210938 108.476562 94.144531 109.574219 C 90.796875 109.804688 89.199219 106.929688 87.546875 104.148438 C 92.121094 103.46875 96.359375 103.273438 100.589844 103.382812 Z M 132.726562 114.871094 C 133.164062 115.542969 132.214844 115.890625 131.691406 115.976562 C 127.894531 116.597656 124.292969 118.113281 120.351562 118.15625 C 115.039062 118.210938 109.722656 118.160156 104.410156 118.617188 C 100.046875 119.507812 94.179688 116.808594 94.453125 111.347656 C 107.171875 110.835938 119.796875 110.324219 132.570312 109.808594 C 133.050781 111.589844 131.667969 113.246094 132.726562 114.867188 Z M 55.796875 52.824219 C 54.691406 51.796875 54.46875 50.484375 54.199219 49.191406 C 55.378906 50.589844 57.960938 50.796875 55.796875 52.824219 Z M 51.996094 51.121094 C 55.390625 53.71875 55.640625 58.003906 58.578125 51.71875 C 58.882812 56.660156 60.367188 61.394531 59.449219 66.722656 C 55.429688 63.332031 55.832031 58.800781 52.875 54.957031 C 52.109375 54.082031 51.679688 52.597656 51.996094 51.121094 Z M 68.035156 90.960938 C 66.800781 87.277344 64.546875 84.253906 61.445312 81.988281 C 58.355469 78.949219 49.605469 74.535156 52.21875 69.546875 C 53.148438 66.898438 51.410156 64.175781 53.644531 61.785156 C 55.378906 62.453125 55.457031 64.246094 56.019531 65.59375 C 56.578125 66.933594 57.359375 67.882812 58.652344 68.425781 C 63.410156 70.40625 61.515625 61.605469 62.1875 59.019531 C 62.460938 59.097656 62.820312 59.125 62.835938 59.21875 C 63.558594 62.71875 65.070312 65.816406 67.207031 68.683594 C 69.15625 71.308594 68.039062 74.964844 69.398438 77.789062 C 76.550781 92.636719 84.613281 107.035156 95.992188 119.175781 C 97.277344 120.574219 98.617188 121.550781 100.6875 121.46875 C 111.390625 120.667969 122.480469 122.386719 132.65625 118.269531 C 133.976562 117.855469 134.863281 117.460938 136.101562 118.867188 C 139.296875 122.386719 143.6875 120.046875 147.628906 119.914062 C 147.640625 121.988281 145.453125 122.632812 144.753906 124.367188 C 149.058594 125.195312 148.832031 117.042969 152.394531 118.96875 C 158.84375 121.738281 161.277344 113.945312 163.457031 115.703125 C 164.542969 116.398438 165.191406 115.191406 165.707031 114.441406 C 167.136719 111.589844 159.34375 110.070312 162.394531 106.453125 C 163.453125 105.398438 164.777344 105.714844 165.964844 106.71875 C 173.542969 112.910156 170.949219 96.121094 177.488281 92.035156 C 179.914062 90.046875 180.199219 95.632812 180.183594 97.140625 C 180.054688 100.675781 180.160156 104.167969 182.101562 107.335938 C 182.757812 108.410156 182.765625 109.707031 182.527344 110.898438 C 182.046875 113.3125 182.253906 115.65625 182.734375 118.042969 C 183.175781 120.222656 182.492188 121.199219 180.457031 121.128906 C 175.910156 120.621094 169.878906 121.613281 167.171875 116.996094 C 166.921875 116.523438 166.441406 116.308594 165.949219 116.609375 C 163.867188 118.0625 168.652344 118.96875 165.191406 123.199219 C 163.722656 126.003906 161.984375 129.613281 163.617188 132.75 C 165.773438 137.238281 169.625 139.457031 172.785156 143.148438 C 161.984375 143.96875 151.847656 141.195312 141.320312 139.574219 C 135.613281 138.285156 129.734375 138.710938 124.011719 137.839844 C 123.8125 136.097656 127.28125 134.542969 127.894531 131.960938 C 128.523438 131.007812 126.9375 130.753906 126.6875 130.984375 C 124.96875 134.273438 121.742188 133.480469 119.308594 133.085938 C 114.542969 132.308594 109.894531 133.527344 105.183594 133.128906 C 100.125 132.699219 95.148438 131.859375 90.4375 130.09375 C 88.347656 129.3125 87.347656 126.820312 86.050781 124.933594 C 78.976562 114.191406 73.777344 102.398438 68.035156 90.957031 Z M 121.183594 136.792969 C 121.117188 137.375 120.613281 137.605469 120.144531 137.640625 C 107.480469 137.808594 94.886719 135.101562 82.164062 135.566406 C 79.988281 135.425781 77.804688 135.371094 75.644531 135.109375 C 73.371094 134.839844 73.183594 134.46875 73.257812 132.140625 C 73.730469 129.925781 72.824219 110.027344 77.445312 114.738281 C 79.933594 119.851562 82.867188 124.671875 85.960938 129.445312 C 87.222656 131.726562 89.363281 133.425781 92.628906 133.78125 C 97.050781 134.253906 101.417969 135.324219 105.898438 135.652344 C 109.113281 136.449219 119.839844 133.738281 121.183594 136.792969 Z M 71.898438 104.296875 C 73.050781 106.273438 74.261719 107.667969 73.0625 110.414062 C 71.855469 113.171875 72.0625 116.550781 71.652344 119.65625 C 71.082031 123.972656 70.542969 128.289062 69.941406 132.597656 C 69.507812 135.6875 69.203125 135.9375 65.90625 136.460938 C 65.332031 130.433594 69.386719 108.351562 71.898438 104.296875 Z M 45.90625 155.125 C 48.300781 138.3125 71.675781 136.832031 85.128906 137.601562 C 97.238281 138.0625 109.3125 139.824219 121.421875 139.894531 C 132.339844 140.171875 143.035156 142.125 153.707031 144.203125 C 160.945312 144.78125 168.113281 146.347656 175.441406 145.625 C 176.609375 145.511719 177.894531 145.300781 178.964844 146.125 C 179.402344 146.464844 179.855469 146.445312 180.335938 146.328125 C 187.652344 144.53125 194.976562 145.714844 202.332031 146.085938 C 209.214844 146.433594 216.113281 146.96875 223.027344 146.539062 C 234.851562 146.339844 246.792969 148.238281 258.601562 147.019531 C 280.105469 145.097656 307.597656 133.058594 326.554688 147.925781 C 328.425781 149.574219 329.53125 151.445312 329.308594 153.933594 C 328.5625 163.183594 327.105469 172.347656 326.695312 181.613281 C 326.304688 186.722656 326.632812 191.8125 326.378906 196.902344 C 326.359375 197.335938 326.429688 197.851562 325.777344 198.203125 C 323.140625 189.8125 319.230469 181.257812 320.449219 172.316406 C 321.15625 164.664062 325.667969 148.410156 311.90625 152.480469 C 311.960938 153.402344 312.640625 153.257812 313.195312 153.1875 C 324.910156 152.855469 317.734375 170.273438 317.953125 177.324219 C 315.945312 176.679688 314.265625 175.625 312.652344 174.722656 C 307.757812 172.117188 308.445312 175.378906 301.613281 172.894531 C 284.9375 172.664062 268.34375 174.347656 251.667969 172.84375 C 268.683594 169.480469 290.832031 176.5 303.363281 161.871094 C 301.957031 161.769531 301.175781 162.832031 300.3125 163.484375 C 293.972656 168.285156 286.847656 170.386719 278.917969 170.257812 C 267.027344 170.070312 255.183594 171.023438 243.386719 172.402344 C 233.402344 174.945312 223.554688 173.121094 213.09375 173.121094 C 229.566406 167.558594 246.183594 165.210938 263.386719 164.542969 C 262.398438 163.351562 261.445312 163.558594 260.679688 163.582031 C 239.972656 162.195312 221.050781 171.679688 200.515625 172.402344 C 170.65625 173.585938 140.957031 171.167969 111.234375 168.957031 C 104.382812 168.121094 97.664062 166.082031 90.714844 167.070312 C 80.484375 168.371094 69.792969 167.347656 60.363281 172.246094 C 51.550781 175.734375 50.121094 198.902344 48.207031 207.601562 C 48.089844 208.402344 48.347656 209.335938 47.074219 209.957031 C 44.53125 191.945312 41.628906 173.148438 45.90625 155.125 Z M 17.730469 290.542969 C 19.148438 268.4375 24.207031 246.976562 30.363281 225.773438 C 35.277344 209.027344 37.070312 191.664062 40.988281 174.671875 C 41.210938 174.6875 41.433594 174.699219 41.65625 174.714844 C 42.375 181.199219 41.921875 187.785156 43.066406 194.214844 C 44.539062 196.890625 42.625 215.5 47.015625 212.300781 C 46.792969 238.25 37.753906 263.292969 40.777344 289.257812 C 41.691406 294.300781 41.226562 294.714844 36.308594 294.570312 C 30.980469 294.410156 25.65625 294.125 20.339844 293.785156 C 17.839844 293.621094 17.464844 293.035156 17.730469 290.542969 Z M 14.523438 305.609375 C 15.03125 301.484375 17.011719 295.980469 21.933594 296.023438 C 53.164062 296.882812 84.410156 300.433594 115.65625 299.210938 C 131.535156 298.023438 147.320312 299.429688 163.1875 299.160156 C 192.113281 298.828125 221.011719 297.273438 249.953125 297.371094 C 279.128906 296.710938 308.234375 293.925781 337.386719 292.921875 C 338.929688 292.886719 340.488281 293.617188 341.046875 294.945312 C 341.835938 297.035156 346.488281 306.375 342.394531 306.972656 C 312.59375 310.035156 282.703125 311.777344 252.734375 312.855469 C 239.546875 313.914062 226.753906 309.875 213.628906 311.097656 C 174.902344 312.429688 136.214844 314.578125 97.449219 312.957031 C 75.632812 313.800781 53.839844 311.140625 32.066406 310.660156 C 26.796875 310.730469 21.753906 309.304688 16.625 308.425781 C 15.042969 308.152344 14.425781 307.261719 14.523438 305.609375 Z M 41.648438 337.890625 C 41.457031 342.984375 33.890625 341.8125 32.164062 338.148438 C 31.347656 336.753906 30.617188 335.042969 31.6875 333.746094 C 32.660156 332.566406 33.929688 331.066406 35.773438 331.667969 C 39.71875 331.773438 41.816406 334.15625 41.648438 337.890625 Z M 75.757812 369.964844 C 69.390625 371.027344 63.078125 371.757812 56.597656 370.777344 C 53.539062 370.320312 51.949219 369.285156 51.246094 366.066406 C 48.902344 355.144531 46.046875 344.195312 46.863281 332.894531 C 47.53125 332.339844 48.375 332.3125 48.996094 332.46875 C 56.90625 334.445312 64.976562 334.609375 73.050781 334.691406 C 76.792969 334.730469 76.726562 334.652344 77.300781 338.3125 C 78.726562 346.71875 77.933594 355.238281 78.75 363.675781 C 78.480469 366.101562 79.15625 369.703125 75.757812 369.964844 Z M 325.203125 349.910156 C 324.433594 354.207031 324.964844 358.648438 324.242188 362.960938 C 323.644531 367.226562 323.574219 367.398438 319.390625 367.5625 C 316.832031 367.660156 314.324219 368.152344 311.824219 368.496094 C 308.011719 369.023438 304.316406 368.21875 300.570312 368.308594 C 299.1875 368.339844 298.65625 367.53125 298.589844 366.246094 C 297.511719 359.433594 297.890625 352.484375 297.078125 345.636719 C 296.492188 341.390625 297.710938 337.257812 297.199219 332.707031 C 305.640625 331.90625 313.613281 331.394531 321.601562 330.980469 C 323.480469 330.882812 324.496094 331.382812 325.03125 333.289062 C 326.347656 338.671875 325.761719 344.410156 325.203125 349.910156 Z M 361.003906 313.785156 C 360.289062 316.601562 359.601562 319.429688 358.785156 322.222656 C 357.441406 326.15625 349.03125 325.746094 345.175781 326.605469 C 312.332031 329.664062 279.402344 332.15625 246.429688 333.207031 C 190.035156 333.34375 133.632812 332.863281 77.257812 332.648438 C 57.253906 333.132812 37.582031 328.660156 18.078125 324.949219 C 15.054688 324.5625 13.523438 322.820312 13.4375 319.914062 C 13.347656 316.730469 12.246094 313.527344 13.382812 310.15625 C 31.425781 313.765625 49.792969 313.523438 68.105469 314.441406 C 76.644531 315.175781 85.1875 316.234375 93.761719 315.28125 C 125.144531 315.617188 156.625 316.347656 187.957031 314.179688 C 214.835938 311.558594 241.695312 315.917969 268.570312 314.226562 C 281.390625 313.242188 294.25 313.394531 307.066406 312.339844 C 323.5625 311.304688 340.121094 308.054688 356.652344 310.214844 C 358.605469 310.546875 361.78125 311.140625 361.003906 313.785156 Z M 361.003906 313.785156 " fill-opacity="1" fill-rule="nonzero"/></g><path fill="#000000" d="M 61.757812 39.445312 C 61.773438 39.457031 61.789062 39.472656 61.808594 39.488281 C 61.8125 39.488281 61.8125 39.488281 61.816406 39.488281 Z M 61.757812 39.445312 " fill-opacity="1" fill-rule="nonzero"/><path fill="#000000" d="M 55.226562 26.960938 C 55.21875 26.941406 55.214844 26.921875 55.207031 26.902344 C 55.203125 26.910156 55.199219 26.914062 55.195312 26.917969 Z M 55.226562 26.960938 " fill-opacity="1" fill-rule="nonzero"/><path fill="#000000" d="M 27.667969 42.949219 C 25.914062 41.722656 23.777344 38.957031 26.035156 37.070312 C 27.46875 36.011719 27.914062 37.375 28.628906 38.054688 C 29.546875 38.898438 31.441406 40.695312 32.640625 39.710938 C 33.671875 37.996094 35.945312 37.960938 37.148438 36.410156 C 36.496094 36.066406 36.082031 36.277344 35.617188 36.441406 C 33.695312 38.015625 24.816406 33.785156 29.382812 32.746094 C 31.050781 32.253906 30.097656 29.449219 32.347656 29.757812 C 31.386719 26.296875 27.894531 28.21875 31.851562 24.429688 C 25.699219 24.683594 30.359375 29.664062 25.613281 31.28125 C 25.210938 31.417969 24.683594 32.050781 24.96875 32.4375 C 26.773438 34.839844 24.6875 36.339844 23.824219 38.191406 C 22.351562 41.347656 24.011719 43.339844 27.667969 42.949219 Z M 27.667969 42.949219 " fill-opacity="1" fill-rule="nonzero"/><path fill="#000000" d="M 37.144531 32.609375 C 37.257812 32.964844 37.46875 33.269531 37.890625 33.046875 C 39 32.464844 40.59375 32.976562 41.300781 31.46875 C 42.609375 28.515625 38.605469 27.910156 38.675781 23.222656 C 37.210938 18.445312 41.28125 16.609375 43.742188 21.050781 C 45.5 25.058594 49.84375 23.199219 50.800781 19.683594 C 51.761719 17.636719 49.214844 15.875 47.394531 17.054688 C 46.203125 17.648438 46.085938 18.972656 45.3125 19.886719 C 43.726562 19.492188 43.4375 18.261719 42.628906 17.566406 C 40.070312 15.207031 37.769531 17.617188 37.945312 20.5 C 37.105469 23.238281 38.332031 26.3125 36.429688 28.917969 C 35.5 30.195312 36.757812 31.398438 37.144531 32.609375 Z M 48.199219 18.445312 C 52.148438 18.914062 47.011719 24.035156 46.863281 20.484375 C 46.960938 19.503906 46.949219 18.511719 48.199219 18.445312 Z M 39.894531 30.378906 C 39.734375 30.8125 39.386719 30.765625 39.058594 30.710938 C 36.175781 30.183594 38.953125 27.304688 39.894531 30.378906 Z M 39.894531 30.378906 " fill-opacity="1" fill-rule="nonzero"/><path fill="#000000" d="M 64.867188 38.261719 C 67.367188 37.46875 68.636719 35.019531 67.65625 32.671875 C 67.296875 33.9375 66.96875 34.507812 65.953125 35.621094 C 65.691406 34.382812 67.039062 33.3125 65.28125 32.550781 C 63.410156 31.683594 63.15625 34.464844 61.566406 34.769531 C 60.878906 33.773438 61.390625 32.9375 61.894531 32.085938 C 62.34375 31.332031 63.648438 31.148438 63.421875 29.867188 C 59.011719 32.785156 58.589844 35.253906 61.753906 39.402344 C 62.363281 37.886719 63.816406 38.597656 64.867188 38.261719 Z M 64.898438 34.601562 C 64.828125 35.035156 64.847656 35.5625 64.203125 35.519531 C 63.238281 35.226562 64.5625 33.355469 64.898438 34.601562 Z M 64.898438 34.601562 " fill-opacity="1" fill-rule="nonzero"/><path fill="#000000" d="M 61.742188 39.425781 C 61.757812 39.445312 61.816406 39.488281 61.816406 39.488281 C 61.796875 39.460938 61.773438 39.433594 61.753906 39.402344 C 61.75 39.414062 61.746094 39.417969 61.742188 39.425781 Z M 61.742188 39.425781 " fill-opacity="1" fill-rule="nonzero"/><path fill="#000000" d="M 55.21875 26.953125 C 55.226562 26.960938 55.195312 26.917969 55.195312 26.917969 C 55.183594 26.929688 55.171875 26.9375 55.160156 26.949219 C 55.179688 26.949219 55.199219 26.953125 55.21875 26.953125 Z M 55.21875 26.953125 " fill-opacity="1" fill-rule="nonzero"/><path fill="#000000" d="M 44.390625 29.449219 C 43.3125 32.765625 46.347656 36.011719 48.804688 32.539062 C 49.1875 32.226562 49.363281 31.761719 49.324219 31.242188 C 47.953125 29.964844 46.65625 33.253906 46.152344 30.152344 C 45.578125 26.035156 51.742188 30.195312 55.160156 26.949219 C 52.167969 26.683594 49.058594 27.273438 46.34375 25.40625 C 46.074219 27.109375 45.023438 27.984375 44.390625 29.449219 Z M 44.390625 29.449219 " fill-opacity="1" fill-rule="nonzero"/><path fill="#000000" d="M 56.847656 37.902344 C 58.671875 36.125 58.875 30.511719 55.660156 30.109375 C 56.484375 31.746094 57.644531 33.359375 55.425781 34.933594 C 54.625 35.503906 54.945312 36.464844 55.0625 37.300781 C 54.945312 38.285156 56.253906 38.570312 56.847656 37.902344 Z M 56.847656 37.902344 " fill-opacity="1" fill-rule="nonzero"/><path fill="#000000" d="M 51.910156 30.472656 C 50.96875 31.570312 54 33.730469 55.882812 32.824219 C 53.855469 31.003906 53.820312 30.964844 55.507812 30.070312 C 54.203125 29.265625 52.824219 28.945312 51.910156 30.472656 Z M 51.910156 30.472656 " fill-opacity="1" fill-rule="nonzero"/><path fill="#000000" d="M 55.511719 30.070312 C 55.523438 30.078125 55.539062 30.089844 55.554688 30.097656 C 55.554688 30.097656 55.558594 30.09375 55.558594 30.09375 C 55.59375 30.097656 55.625 30.105469 55.660156 30.109375 C 55.644531 30.078125 55.628906 30.046875 55.613281 30.015625 C 55.578125 30.035156 55.542969 30.050781 55.511719 30.070312 Z M 55.5625 30.089844 C 55.566406 30.082031 55.570312 30.074219 55.578125 30.066406 Z M 55.5625 30.089844 " fill-opacity="1" fill-rule="nonzero"/><path fill="#000000" d="M 34.546875 27.105469 C 36.316406 27.058594 34.292969 25.050781 35.300781 24.53125 C 37.53125 23.476562 35.582031 23.199219 34.984375 23.015625 C 32.710938 22.648438 32.625 26.492188 34.550781 27.105469 Z M 34.546875 27.105469 " fill-opacity="1" fill-rule="nonzero"/><path fill="#000000" d="M 218.855469 240.691406 C 218.984375 235.230469 212.363281 238.234375 209.074219 237.996094 C 203.625 238.25 198.171875 238.585938 192.71875 238.589844 C 185.488281 238.597656 178.28125 236.726562 171.03125 238.042969 C 167.714844 238.644531 164.511719 237.453125 161.300781 237.710938 C 156.113281 238.128906 150.949219 238.800781 145.734375 238.875 C 142.882812 238.675781 143.410156 242.28125 143.324219 244.324219 C 144.410156 249.554688 144.644531 254.90625 144.941406 260.207031 C 145.066406 262.46875 145.898438 262.773438 147.558594 263.148438 C 165.585938 265.910156 183.40625 264.074219 201.644531 263.882812 C 227.054688 263.03125 217.882812 261.867188 218.855469 240.691406 Z M 213.476562 260.5625 C 203.480469 261.589844 191.3125 262.097656 182.292969 262.3125 C 170.648438 262.398438 160.929688 262.328125 150.71875 261.164062 C 148.785156 260.777344 147.691406 259.828125 147.476562 257.84375 C 146.984375 253.28125 146.363281 248.730469 145.976562 244.160156 C 145.765625 241.648438 146.144531 241.394531 148.488281 241.261719 C 159.03125 240.675781 169.585938 240.148438 180.140625 240.640625 C 185.5 241.972656 217.058594 237.8125 216.484375 242.660156 C 216.652344 247.378906 216.839844 252.097656 216.882812 256.816406 C 216.90625 259.402344 216.171875 260.210938 213.476562 260.5625 Z M 213.476562 260.5625 " fill-opacity="1" fill-rule="nonzero"/><path fill="#000000" d="M 200.234375 270.34375 C 195.96875 267.5625 191.136719 267.261719 186.289062 267.058594 C 182.324219 266.894531 178.429688 267.816406 174.457031 267.890625 C 171.59375 267.941406 168.832031 269.074219 166.886719 271.539062 C 162.546875 277.226562 170.886719 283.113281 176.300781 282.871094 C 178.113281 282.882812 179.929688 282.871094 181.726562 282.871094 C 186.800781 284.195312 191.5625 282.460938 196.390625 281.519531 C 201.578125 280.589844 205.90625 273.816406 200.234375 270.34375 Z M 198.132812 278.597656 C 193.722656 280.972656 188.695312 281.707031 183.71875 281.097656 C 183.714844 281.117188 183.714844 281.132812 183.714844 281.152344 C 179.109375 280.730469 173.828125 281.441406 170.308594 277.859375 C 167.152344 275.144531 167.851562 271.71875 171.859375 270.59375 C 178.183594 269.019531 184.820312 268.617188 191.292969 269.605469 C 195.523438 269.820312 204.398438 274.664062 198.128906 278.597656 Z M 198.132812 278.597656 " fill-opacity="1" fill-rule="nonzero"/><path fill="#000000" d="M 283.828125 253.800781 C 275.367188 252.742188 277.804688 262.824219 277.503906 268.402344 C 277.203125 271.128906 277.214844 274.277344 277.371094 277.425781 C 277.085938 281.042969 279.972656 280.738281 282.734375 280.945312 C 285.28125 281.144531 286.265625 280.34375 286.273438 277.828125 C 285.640625 272.316406 288.074219 256.726562 283.832031 253.800781 Z M 281.703125 278.808594 C 279.617188 278.613281 280.183594 276.929688 280.175781 275.722656 C 280.15625 270.050781 280.191406 264.375 280.289062 258.699219 C 280.300781 257.984375 280.019531 256.832031 281.277344 256.6875 C 283.914062 256.707031 284.25 260.65625 283.746094 262.933594 C 284.652344 266.28125 284.339844 270.011719 284.117188 273.746094 C 284.226562 275.898438 284.085938 279.363281 281.703125 278.808594 Z M 281.703125 278.808594 " fill-opacity="1" fill-rule="nonzero"/><path fill="#000000" d="M 271.648438 236.554688 C 272.910156 247.394531 287.679688 247.1875 288.351562 235.027344 C 286.6875 223.066406 272.21875 227.03125 271.648438 236.554688 Z M 285.664062 235.910156 C 285.191406 243.871094 275.898438 243.539062 274.613281 236.582031 C 273.683594 229.378906 286.472656 227.410156 285.664062 235.910156 Z M 285.664062 235.910156 " fill-opacity="1" fill-rule="nonzero"/><path fill="#000000" d="M 79.257812 257.636719 C 76.953125 257.5625 73.875 257.972656 73.835938 260.988281 C 73.839844 266.460938 72.496094 271.773438 71.769531 277.160156 C 71.351562 280.246094 71.527344 280.46875 74.546875 280.398438 C 77.152344 280.289062 81.953125 281.234375 81.65625 277.273438 C 81.324219 271.722656 81.632812 266.210938 82.316406 260.695312 C 82.628906 258.160156 81.859375 257.484375 79.257812 257.636719 Z M 80.367188 263.492188 C 80.039062 267.988281 79.355469 272.054688 79.265625 276.179688 C 79.222656 278.140625 78.367188 278.433594 75.582031 278.242188 C 73.796875 278.121094 74.160156 277.015625 74.285156 275.9375 C 74.875 270.902344 75.480469 265.867188 76.03125 260.828125 C 76.140625 259.804688 76.554688 259.160156 77.59375 259.320312 C 80.804688 259.207031 80.429688 261.089844 80.367188 263.492188 Z M 80.367188 263.492188 " fill-opacity="1" fill-rule="nonzero"/><path fill="#000000" d="M 81.113281 230.621094 C 71.898438 230.78125 71.601562 243.550781 80.328125 244.15625 C 89.589844 244.265625 90.164062 231.1875 81.113281 230.621094 Z M 81.210938 242.316406 C 75.265625 242.34375 74.699219 232.625 80.71875 232.253906 C 86.378906 232.910156 88.425781 241.71875 81.210938 242.316406 Z M 81.210938 242.316406 " fill-opacity="1" fill-rule="nonzero"/><path fill="#000000" d="M 52.410156 156.855469 C 56.980469 153.609375 62.089844 151.355469 67.355469 149.679688 C 82.160156 144.835938 98.339844 147.675781 113.296875 150.421875 C 136.394531 154.363281 160.011719 153.847656 183.359375 154.054688 C 200.058594 152.332031 216.839844 152.363281 233.574219 151.179688 C 216.320312 149.375 198.925781 152.140625 181.628906 152.671875 C 160.910156 152.042969 140.078125 152.976562 119.53125 149.664062 C 96.980469 145.949219 69.898438 140.351562 51.164062 156.941406 C 51.820312 157.253906 52.117188 157.0625 52.410156 156.855469 Z M 52.410156 156.855469 " fill-opacity="1" fill-rule="nonzero"/><path fill="#000000" d="M 222.308594 156.273438 C 201.203125 155.484375 180.273438 158.460938 159.40625 161.347656 C 152.664062 162.183594 145.867188 161.667969 139.097656 161.820312 C 137.441406 161.859375 135.644531 161.621094 134.136719 162.753906 C 163.976562 164.933594 193.078125 155.347656 223.011719 157.28125 C 223.007812 156.316406 222.621094 156.253906 222.308594 156.273438 Z M 222.308594 156.273438 " fill-opacity="1" fill-rule="nonzero"/><path fill="#000000" d="M 129.519531 161.777344 C 122.492188 161.652344 115.460938 161.707031 108.441406 161.421875 C 101.78125 160.523438 95.167969 161.90625 88.539062 161.640625 C 83.84375 161.179688 61.136719 163.394531 59.507812 167.351562 C 83.605469 159.347656 108.46875 163.890625 133.382812 162.757812 C 131.84375 161.445312 130.609375 161.796875 129.515625 161.777344 Z M 129.519531 161.777344 " fill-opacity="1" fill-rule="nonzero"/><path fill="#000000" d="M 302.035156 150.296875 C 281.695312 152.625 261.234375 153.5625 240.757812 155.988281 C 244.824219 156.921875 297.886719 152.015625 302.035156 150.296875 Z M 302.035156 150.296875 " fill-opacity="1" fill-rule="nonzero"/><path fill="#000000" d="M 225.925781 157.257812 C 230.238281 157.109375 234.554688 156.929688 238.871094 156.757812 C 238.890625 156.511719 238.914062 156.265625 238.9375 156.019531 C 234.152344 155.460938 229.425781 156.378906 224.480469 156.351562 C 224.929688 157.410156 225.488281 157.273438 225.925781 157.257812 Z M 225.925781 157.257812 " fill-opacity="1" fill-rule="nonzero"/><path fill="#000000" d="M 345.960938 285.027344 C 353.675781 282.320312 350.527344 273.5 343.109375 272.757812 C 332.785156 273.222656 336.464844 287.957031 345.960938 285.027344 Z M 341.183594 275.363281 C 342.417969 273.855469 345.765625 276.203125 347.03125 276.949219 C 349.691406 278.519531 347.847656 283.699219 345.097656 283.195312 C 340.328125 283.257812 337.675781 278.382812 341.183594 275.363281 Z M 341.183594 275.363281 " fill-opacity="1" fill-rule="nonzero"/><path fill="#000000" d="M 33.503906 284.292969 C 33.527344 275.644531 20.265625 276.527344 21.191406 285.074219 C 20.722656 293.039062 34.292969 291.027344 33.503906 284.292969 Z M 31.5 284.589844 C 32.292969 289.84375 23.097656 290.027344 23.234375 285.113281 C 23.015625 278.351562 31.503906 277.773438 31.5 284.589844 Z M 31.5 284.589844 " fill-opacity="1" fill-rule="nonzero"/></svg>