<svg xmlns="http://www.w3.org/2000/svg" xmlns:xlink="http://www.w3.org/1999/xlink" width="500" zoomAndPan="magnify" viewBox="0 0 375 374.999991" height="500" preserveAspectRatio="xMidYMid meet" version="1.0"><defs><clipPath id="af00d40c7c"><path d="M 0 7.667969 L 375 7.667969 L 375 367.667969 L 0 367.667969 Z M 0 7.667969 " clip-rule="nonzero"/></clipPath></defs><g clip-path="url(#af00d40c7c)"><path fill="#000000" d="M 268.03125 132.546875 C 266 130.085938 264.050781 127.96875 262.359375 125.675781 C 259.988281 122.625 257.617188 119.65625 255.503906 116.433594 C 253.894531 113.976562 252.792969 111.09375 251.609375 108.800781 C 251.609375 111.601562 251.523438 114.90625 251.609375 118.128906 C 251.949219 128.136719 250.425781 137.71875 245.34375 146.539062 C 243.144531 150.355469 240.351562 153.578125 236.796875 156.121094 C 234.34375 157.902344 231.71875 159.511719 229.347656 161.378906 C 227.738281 162.652344 226.300781 164.09375 224.691406 165.535156 C 228.078125 167.738281 228.753906 169.605469 227.570312 173.335938 C 226.808594 175.539062 225.878906 177.660156 224.863281 179.695312 C 222.324219 184.785156 221.136719 190.210938 221.222656 195.976562 C 221.308594 198.859375 221.222656 201.746094 221.222656 204.628906 C 226.132812 205.304688 230.023438 207.339844 232.902344 211.15625 C 236.203125 215.480469 237.472656 220.230469 235.441406 225.574219 C 234.511719 228.03125 232.648438 229.730469 230.363281 230.914062 C 228.246094 232.019531 226.046875 232.695312 223.675781 232.867188 C 220.546875 233.035156 217.328125 232.949219 214.195312 232.949219 C 213.519531 232.949219 212.925781 232.949219 212.417969 233.542969 C 208.863281 237.699219 205.226562 241.855469 201.585938 246.011719 C 198.792969 249.316406 196.335938 252.878906 194.644531 256.949219 C 192.613281 261.785156 190.921875 266.785156 189.058594 271.707031 C 188.890625 272.128906 188.71875 272.636719 188.71875 273.148438 C 188.636719 276.453125 187.367188 279.421875 185.925781 282.304688 C 183.472656 287.222656 180.847656 292.140625 178.476562 297.144531 C 176.277344 301.726562 174.5 306.558594 172.300781 311.222656 C 169.84375 316.308594 167.222656 321.3125 164.679688 326.402344 C 160.789062 334.203125 157.742188 342.34375 156.386719 350.992188 C 155.625 355.742188 155.625 360.660156 155.203125 365.496094 C 155.117188 366.171875 155.203125 366.851562 155.203125 367.53125 C 155.03125 367.53125 154.949219 367.613281 154.777344 367.613281 C 154.609375 367.105469 154.441406 366.597656 154.355469 366.089844 C 153.507812 359.8125 154.101562 353.621094 155.457031 347.433594 C 157.570312 337.511719 161.378906 328.265625 165.867188 319.363281 C 169.421875 312.238281 172.808594 305.03125 176.363281 297.824219 C 178.902344 292.652344 181.609375 287.476562 184.234375 282.304688 C 185.417969 280.015625 186.605469 277.8125 186.605469 275.183594 C 186.605469 274.417969 186.351562 273.570312 186.011719 272.808594 C 185.503906 271.621094 184.742188 270.433594 184.148438 269.246094 C 183.050781 266.957031 183.050781 264.667969 184.148438 262.378906 C 184.488281 261.699219 184.742188 261.019531 184.996094 260.171875 C 184.574219 260.003906 184.320312 259.917969 184.066406 259.917969 C 181.441406 259.410156 180.425781 258.050781 180.847656 255.339844 C 181.015625 254.066406 181.355469 252.878906 181.609375 251.605469 C 181.695312 251.097656 181.609375 250.503906 181.609375 249.65625 C 180.425781 249.910156 179.492188 250.164062 178.648438 250.421875 C 175.769531 251.183594 174.414062 250.082031 174.585938 247.027344 C 174.667969 246.09375 174.839844 245.246094 174.839844 244.3125 C 174.839844 242.871094 174.246094 242.363281 172.890625 242.617188 C 171.875 242.789062 170.859375 243.128906 169.929688 243.464844 C 167.050781 244.484375 164.171875 245.246094 161.125 245.164062 C 158.671875 245.078125 156.386719 246.179688 154.695312 248.128906 C 152.664062 250.503906 150.632812 252.878906 148.9375 255.507812 C 143.859375 263.5625 139.035156 271.707031 133.957031 279.761719 C 130.148438 285.78125 126.167969 291.632812 121.9375 297.398438 C 115.335938 306.390625 108.648438 315.378906 101.625 323.941406 C 95.699219 331.152344 89.179688 337.851562 82.917969 344.71875 C 80.292969 347.515625 77.246094 349.808594 73.945312 351.84375 C 73.523438 352.097656 73.015625 352.265625 72.421875 352.265625 C 72.589844 352.011719 72.761719 351.757812 73.015625 351.585938 C 79.445312 347.007812 84.527344 340.988281 89.773438 335.136719 C 99.335938 324.453125 108.054688 313.089844 116.773438 301.640625 C 119.398438 298.164062 122.105469 294.855469 124.5625 291.292969 C 127.609375 286.882812 130.570312 282.390625 133.449219 277.8125 C 138.695312 269.414062 143.859375 260.933594 149.191406 252.539062 C 150.546875 250.421875 152.324219 248.46875 154.101562 246.605469 C 156.386719 244.230469 159.265625 243.128906 162.480469 243.042969 C 162.988281 243.042969 163.410156 242.957031 163.75 242.957031 C 169.421875 233.628906 172.128906 223.792969 169.929688 212.9375 C 169 208.445312 168.828125 203.949219 170.097656 199.371094 C 170.691406 197.164062 170.523438 194.789062 170.945312 192.5 C 171.285156 190.804688 171.707031 189.023438 172.46875 187.496094 C 173.570312 185.207031 174.5 182.917969 174.839844 180.375 C 174.921875 179.78125 175.09375 179.273438 175.175781 178.761719 C 175.9375 175.285156 177.886719 172.996094 181.355469 172.574219 C 186.265625 171.894531 189.652344 169.265625 192.191406 165.109375 C 194.644531 161.210938 197.945312 158.15625 202.261719 156.207031 C 201.839844 155.613281 201.5 155.1875 201.164062 154.765625 C 197.4375 149.929688 195.574219 144.332031 194.476562 138.398438 C 193.375 132.714844 192.953125 126.949219 193.289062 120.675781 C 192.78125 121.523438 192.527344 121.945312 192.273438 122.371094 C 188.804688 128.898438 183.980469 134.242188 178.140625 138.652344 C 173.316406 142.296875 167.898438 144.589844 161.632812 144.417969 C 160.449219 144.417969 159.347656 144.25 157.996094 144.078125 C 158.757812 145.691406 159.433594 147.300781 158.417969 149.082031 C 157.488281 150.609375 155.878906 151.203125 154.269531 151.710938 C 154.1875 152.050781 154.101562 152.304688 154.101562 152.558594 C 153.761719 155.867188 152.070312 158.324219 149.363281 160.105469 C 146.566406 161.972656 143.519531 162.90625 140.21875 163.074219 C 138.359375 163.160156 137.089844 163.753906 136.410156 165.535156 C 135.394531 167.992188 134.296875 170.367188 133.28125 172.828125 C 132.6875 174.269531 132.179688 175.878906 131.5 177.574219 C 132.09375 178 132.773438 178.425781 133.535156 178.847656 C 137.511719 181.308594 140.644531 184.53125 142.757812 188.769531 C 145.042969 193.433594 143.859375 197.757812 139.628906 200.726562 C 135.734375 203.355469 131.417969 203.695312 126.929688 202.929688 C 123.714844 202.335938 120.667969 201.234375 117.960938 199.453125 C 115.164062 197.671875 112.371094 195.808594 109.664062 193.941406 C 105.179688 190.890625 101.371094 187.242188 99.84375 181.5625 C 95.191406 181.816406 90.703125 182.410156 87.488281 186.054688 C 84.019531 189.957031 79.785156 192.585938 75.128906 194.621094 C 71.574219 196.148438 68.359375 198.351562 65.3125 200.8125 C 62.265625 203.269531 59.21875 205.816406 56.085938 208.273438 C 55.15625 209.039062 54.730469 209.886719 54.648438 211.074219 C 54.5625 212.429688 54.140625 213.785156 53.886719 215.058594 C 51.429688 215.480469 49.230469 215.820312 47.113281 216.160156 C 45.929688 219.976562 43.558594 222.519531 40.425781 224.640625 C 36.535156 227.183594 32.722656 229.984375 28.914062 232.78125 C 25.359375 235.324219 21.890625 237.953125 18.421875 240.582031 C 16.132812 242.277344 14.019531 244.144531 11.816406 245.925781 C 10.972656 246.605469 10.210938 247.453125 8.941406 247.453125 C 9.53125 246.605469 10.039062 245.585938 10.800781 244.90625 C 12.15625 243.550781 13.511719 242.277344 14.949219 241.175781 C 21.382812 236.34375 27.816406 231.59375 34.246094 226.761719 C 36.871094 224.808594 39.582031 222.859375 42.289062 220.824219 C 44.660156 218.957031 45.503906 216.5 44.914062 213.53125 C 44.234375 209.886719 43.390625 206.238281 42.796875 202.59375 C 41.613281 195.554688 40.597656 188.429688 39.496094 181.390625 C 39.328125 180.203125 39.074219 179.015625 38.734375 177.914062 C 38.394531 176.726562 37.972656 176.390625 36.789062 176.726562 C 36.027344 176.980469 35.179688 177.320312 34.5 177.746094 C 32.554688 179.015625 30.609375 180.121094 28.832031 181.644531 C 24.089844 185.632812 18.84375 188.515625 13.339844 191.144531 C 11.054688 192.160156 8.855469 193.347656 6.65625 194.367188 C 6.0625 194.621094 5.386719 194.875 4.792969 195.128906 C 4.707031 195.046875 4.625 194.875 4.539062 194.789062 C 5.046875 194.453125 5.554688 194.027344 6.0625 193.773438 C 8.601562 192.332031 11.140625 190.972656 13.679688 189.53125 C 18.25 186.734375 22.738281 183.9375 27.222656 181.054688 C 29.59375 179.609375 31.878906 178.167969 34.246094 176.726562 C 34.753906 176.472656 35.265625 176.21875 35.773438 176.050781 C 37.972656 175.203125 38.820312 175.625 39.835938 177.832031 C 42.457031 176.726562 43.558594 174.015625 45.84375 172.148438 C 46.351562 173.335938 46.691406 174.4375 47.199219 175.710938 C 48.722656 174.863281 50.246094 174.015625 51.769531 173.167969 C 54.984375 171.386719 58.117188 169.519531 61.332031 167.738281 C 65.648438 165.363281 69.207031 162.226562 71.660156 157.988281 C 74.621094 152.8125 77.5 147.472656 80.292969 142.128906 C 83.847656 135.429688 87.234375 128.730469 90.703125 122.03125 C 90.789062 121.863281 90.875 121.605469 90.957031 121.351562 C 87.488281 121.523438 84.1875 122.285156 81.222656 123.898438 C 78.601562 125.339844 75.976562 126.949219 73.523438 128.816406 C 68.445312 132.714844 63.535156 136.703125 58.625 140.855469 C 56.425781 142.722656 54.5625 144.925781 52.445312 146.792969 C 47.113281 151.542969 41.867188 156.460938 36.363281 160.953125 C 29.085938 166.890625 21.550781 172.574219 14.101562 178.425781 C 12.15625 179.949219 10.378906 181.476562 8.433594 183.003906 C 7.925781 183.425781 7.332031 183.679688 6.824219 184.105469 C 6.738281 183.9375 6.570312 183.851562 6.484375 183.679688 C 7.164062 183.003906 7.753906 182.238281 8.433594 181.730469 C 12.496094 178.507812 16.558594 175.285156 20.707031 172.148438 C 30.777344 164.433594 40.679688 156.546875 49.90625 147.8125 C 51.429688 146.371094 52.785156 144.757812 54.222656 143.148438 C 46.097656 135.597656 43.558594 125.847656 43.898438 115.078125 C 43.558594 115.078125 43.304688 115.078125 43.136719 115.164062 C 35.6875 118.046875 28.152344 120.757812 20.789062 123.8125 C 14.273438 126.527344 8.09375 130.003906 3.183594 135.261719 C 1.660156 136.871094 0.304688 138.652344 -1.300781 140.519531 C -1.21875 138.738281 -0.285156 137.71875 0.558594 136.703125 C 3.015625 133.734375 5.894531 131.191406 9.023438 128.984375 C 13.511719 125.847656 18.503906 123.558594 23.5 121.523438 C 35.347656 116.773438 47.113281 111.941406 58.371094 105.835938 C 65.648438 101.847656 73.4375 99.472656 81.5625 97.863281 C 86.726562 96.84375 91.636719 95.234375 96.542969 93.367188 C 102.046875 91.332031 107.546875 89.550781 113.050781 87.433594 C 120.414062 84.71875 127.355469 85.398438 133.957031 89.636719 C 134.464844 89.976562 135.058594 90.230469 135.566406 90.484375 C 135.566406 90.484375 135.648438 90.484375 135.902344 90.402344 C 135.566406 89.808594 135.3125 89.214844 134.972656 88.621094 C 129.640625 78.359375 126.507812 67.503906 126.085938 55.800781 C 125.832031 49.015625 127.355469 42.574219 129.640625 36.210938 C 132.433594 28.242188 136.328125 20.863281 141.320312 14.078125 C 141.742188 13.484375 142.25 12.808594 142.503906 12.128906 C 143.265625 10.261719 144.707031 9.332031 146.484375 8.738281 C 149.53125 7.804688 152.746094 7.71875 155.878906 8.058594 C 164.511719 8.992188 172.636719 11.621094 180.085938 16.453125 C 182.203125 17.8125 184.148438 19.507812 186.011719 21.371094 C 187.703125 23.070312 188.636719 25.273438 187.789062 27.902344 C 187.535156 28.75 187.621094 29.683594 187.621094 30.617188 C 187.789062 36.210938 186.941406 41.726562 185.84375 47.152344 C 185.417969 49.441406 184.488281 51.5625 183.8125 54.019531 C 193.035156 57.074219 202.09375 60.550781 209.289062 67.335938 C 218.089844 65.894531 226.808594 64.960938 235.613281 66.0625 C 238.996094 66.488281 242.296875 66.824219 245.429688 68.265625 C 246.359375 68.691406 247.292969 69.117188 248.140625 69.710938 C 249.832031 70.726562 250.679688 72.253906 250.679688 74.371094 C 250.679688 79.460938 250.933594 84.632812 251.269531 89.722656 C 251.777344 87.261719 252.117188 84.632812 252.878906 82.257812 C 254.0625 78.445312 255.332031 74.628906 256.941406 70.980469 C 259.480469 65.046875 262.105469 59.195312 264.898438 53.34375 C 266.929688 49.1875 269.300781 45.203125 271.414062 41.132812 C 272.09375 39.773438 272.601562 38.332031 273.023438 36.890625 C 273.363281 35.789062 273.953125 34.941406 275.054688 34.769531 C 276.410156 34.515625 277.761719 34.175781 279.117188 34.175781 C 289.105469 34.007812 298.839844 35.789062 308.320312 38.671875 C 312.636719 40.027344 316.867188 41.808594 321.015625 43.503906 C 322.285156 44.015625 323.46875 45.03125 324.65625 45.878906 C 325.839844 46.8125 326.179688 48.167969 326.09375 49.78125 C 325.839844 54.105469 325.753906 58.515625 325.839844 62.839844 C 325.925781 72.507812 325.332031 82.089844 324.484375 91.671875 C 324.0625 96.675781 323.300781 101.679688 321.945312 106.597656 C 318.984375 117.621094 312.382812 125.933594 302.816406 131.785156 C 299.261719 133.902344 295.453125 135.683594 291.8125 137.550781 C 291.304688 137.804688 290.882812 138.058594 290.207031 138.398438 C 292.320312 141.367188 294.777344 143.996094 297.570312 146.113281 C 298.753906 146.960938 299.941406 147.8125 301.125 148.574219 C 308.488281 153.578125 312.296875 160.785156 313.230469 169.605469 C 313.484375 171.980469 313.3125 174.355469 313.398438 176.726562 C 313.652344 181.136719 313.90625 185.546875 314.246094 189.957031 C 314.328125 191.398438 314.667969 192.925781 316.613281 193.09375 C 317.207031 193.179688 317.882812 193.6875 318.308594 194.195312 C 320.507812 196.65625 322.878906 198.859375 324.65625 201.660156 C 329.820312 209.714844 335.914062 216.839844 342.515625 223.707031 C 343.699219 224.980469 345.136719 225.996094 346.492188 227.015625 C 348.609375 228.625 350.808594 230.066406 352.839844 231.679688 C 358.003906 235.917969 363.84375 236.851562 370.109375 235.917969 C 371.886719 235.664062 373.746094 235.496094 375.949219 235.917969 C 375.269531 236.257812 375.015625 236.511719 374.679688 236.511719 C 371.039062 237.023438 367.316406 237.699219 363.675781 237.785156 C 359.78125 237.953125 356.3125 236.257812 353.179688 234.054688 C 349.03125 231.085938 344.96875 228.203125 340.90625 225.148438 C 339.722656 224.214844 338.789062 222.773438 337.773438 221.585938 C 335.996094 219.46875 334.21875 217.261719 332.359375 215.226562 C 328.886719 211.328125 326.09375 207 323.300781 202.761719 C 321.945312 200.726562 320.339844 198.945312 318.730469 197.082031 C 318.222656 196.570312 317.546875 196.148438 316.867188 195.808594 C 315.175781 195.046875 314.328125 195.214844 313.058594 196.65625 C 310.605469 199.453125 308.234375 202.253906 305.949219 205.136719 C 301.71875 210.5625 297.65625 216.160156 293.421875 221.585938 C 286.566406 230.492188 282.417969 240.667969 279.371094 251.4375 C 277.761719 257.203125 276.238281 262.96875 273.53125 268.3125 C 272.347656 270.519531 270.992188 272.636719 269.808594 274.84375 C 268.367188 277.640625 266.761719 280.355469 265.660156 283.324219 C 263.121094 290.023438 264.476562 296.210938 269.128906 301.46875 C 270.738281 303.25 272.683594 304.777344 274.546875 306.304688 C 275.816406 307.320312 277.253906 308.253906 278.609375 309.1875 C 282.503906 311.902344 286.226562 314.953125 289.445312 318.601562 C 290.375 319.617188 291.390625 320.636719 292.320312 321.652344 C 297.402344 326.910156 303.496094 330.21875 310.605469 331.574219 C 314.160156 332.253906 317.714844 333.101562 321.269531 334.035156 C 331.003906 336.410156 339.128906 341.496094 345.816406 349.128906 C 348.863281 352.605469 352.078125 355.996094 355.296875 359.390625 C 356.566406 360.746094 358.003906 361.933594 359.359375 363.207031 C 359.867188 363.714844 360.457031 364.222656 360.964844 364.730469 C 360.882812 364.816406 360.796875 364.984375 360.710938 365.070312 C 360.203125 364.816406 359.695312 364.5625 359.273438 364.222656 C 354.871094 361 351.148438 357.101562 347.507812 353.03125 C 346.324219 351.671875 345.136719 350.316406 343.867188 348.957031 C 337.097656 341.410156 328.632812 336.917969 318.898438 334.710938 C 315.597656 333.949219 312.296875 333.269531 308.996094 332.59375 C 302.140625 331.234375 296.214844 327.929688 291.304688 322.925781 C 289.191406 320.804688 287.328125 318.429688 285.296875 316.308594 C 284.113281 315.039062 282.757812 313.9375 281.402344 312.917969 C 278.441406 310.714844 275.476562 308.59375 272.515625 306.390625 C 269.128906 303.84375 266.335938 300.792969 264.644531 296.804688 C 262.695312 292.226562 262.527344 287.476562 264.222656 282.8125 C 265.238281 280.101562 266.253906 277.386719 267.777344 275.011719 C 272.601562 267.125 275.984375 258.644531 278.441406 249.742188 C 280.132812 243.722656 282.335938 237.871094 285.296875 232.273438 C 282.925781 229.390625 281.234375 226.167969 280.558594 222.4375 C 279.878906 218.875 279.117188 215.3125 278.441406 211.664062 C 278.355469 211.242188 278.1875 210.902344 278.101562 210.394531 C 273.023438 212.429688 267.945312 211.921875 262.78125 211.242188 C 260.410156 210.902344 258.042969 210.394531 255.757812 209.714844 C 254.148438 209.207031 252.539062 208.359375 251.1875 207.339844 C 248.140625 204.964844 246.953125 201.746094 247.886719 197.84375 C 248.816406 194.027344 251.441406 191.992188 255.25 191.398438 C 255.925781 191.3125 256.601562 191.230469 257.535156 191.144531 C 257.195312 190.550781 256.855469 190.210938 256.6875 189.703125 C 255.925781 188.089844 254.910156 186.480469 254.402344 184.785156 C 253.554688 181.816406 254.316406 180.375 257.027344 178.847656 C 255.332031 174.523438 256.519531 170.367188 258.296875 166.382812 C 257.789062 165.363281 257.28125 164.433594 256.941406 163.414062 C 256.09375 160.785156 256.773438 158.324219 258.632812 156.375 C 261.089844 153.917969 263.714844 151.710938 266.335938 149.421875 C 266.761719 148.996094 267.351562 148.742188 268.03125 148.234375 C 266.675781 147.726562 265.40625 147.726562 264.136719 147.894531 C 261.933594 148.148438 259.734375 148.40625 257.617188 148.574219 C 255.925781 148.742188 254.234375 148.574219 253.300781 146.792969 C 252.457031 145.097656 252.878906 143.316406 253.894531 141.875 C 254.996094 140.433594 256.179688 139.078125 257.535156 137.972656 C 260.074219 135.855469 263.035156 134.582031 266.253906 133.734375 C 266.675781 132.96875 267.097656 132.800781 268.03125 132.546875 Z M 137.851562 140.347656 C 136.75 139.925781 137.003906 138.992188 137.171875 138.226562 C 137.511719 136.449219 138.019531 134.75 138.441406 132.714844 C 137.257812 132.632812 136.074219 132.460938 134.972656 132.375 C 134.210938 135.769531 133.535156 138.820312 132.855469 142.214844 C 134.632812 141.449219 136.242188 140.855469 137.851562 140.347656 C 139.035156 140.179688 140.304688 140.09375 141.574219 139.925781 C 141.574219 139.839844 141.574219 139.667969 141.574219 139.585938 C 140.644531 139.160156 139.628906 138.738281 138.695312 138.3125 C 138.359375 139.078125 138.105469 139.667969 137.851562 140.347656 Z M 271.667969 136.617188 C 273.871094 133.648438 276.238281 131.613281 279.796875 132.121094 C 283.433594 132.632812 285.128906 135.175781 285.71875 138.398438 C 290.460938 135.769531 295.199219 133.394531 299.769531 130.679688 C 302.816406 128.898438 305.78125 126.863281 308.320312 124.492188 C 315.769531 117.707031 320 109.054688 321.355469 99.050781 C 322.453125 90.316406 323.300781 81.582031 323.894531 72.847656 C 324.402344 65.722656 324.402344 58.515625 324.65625 51.390625 C 324.65625 51.136719 324.570312 50.882812 324.484375 50.542969 C 320.675781 51.902344 316.953125 51.644531 313.144531 51.308594 C 305.019531 50.628906 296.976562 49.101562 289.105469 46.472656 C 285.296875 45.203125 281.65625 43.675781 277.933594 42.148438 C 276.238281 41.386719 274.714844 40.199219 273.023438 39.179688 C 271.667969 41.808594 270.230469 44.351562 268.960938 47.066406 C 266.589844 51.984375 264.222656 56.902344 262.019531 61.90625 C 260.242188 65.976562 258.804688 70.132812 257.109375 74.203125 C 254.234375 80.988281 252.457031 87.941406 251.863281 95.320312 C 251.269531 103.289062 252.710938 110.753906 257.363281 117.28125 C 258.886719 119.402344 260.410156 121.4375 262.019531 123.472656 C 265.492188 127.457031 269.46875 131.191406 271.667969 136.617188 Z M 209.710938 73.78125 C 208.273438 77.933594 207.003906 82.003906 205.5625 86.074219 C 204.125 90.316406 202.6875 94.554688 201.164062 98.796875 C 199.300781 103.800781 197.351562 108.71875 195.492188 113.722656 C 194.984375 114.992188 194.644531 116.433594 194.558594 117.792969 C 193.96875 125.253906 194.558594 132.714844 196.253906 140.007812 C 197.945312 147.640625 201.417969 154.171875 207.933594 158.75 C 211.574219 161.292969 214.453125 164.433594 214.960938 169.011719 C 217.667969 167.738281 220.375 166.550781 223.253906 165.195312 C 223.761719 163.582031 225.117188 162.3125 226.554688 161.210938 C 228.5 159.769531 230.449219 158.410156 232.566406 157.054688 C 235.695312 155.019531 238.828125 152.984375 241.199219 149.929688 C 246.191406 143.65625 248.730469 136.277344 249.746094 128.390625 C 250 126.355469 250.425781 124.320312 250 122.285156 C 248.476562 122.878906 247.039062 123.558594 245.597656 123.898438 C 241.875 124.828125 237.980469 125.167969 234.171875 125.085938 C 224.945312 124.746094 215.890625 122.878906 207.171875 119.742188 C 205.054688 118.976562 203.023438 117.792969 200.992188 116.773438 C 200.570312 116.605469 200.316406 116.09375 199.976562 115.839844 C 202.6875 116.6875 205.140625 117.875 207.765625 118.894531 C 215.722656 121.863281 223.929688 123.21875 232.394531 123.472656 C 235.949219 123.558594 239.503906 123.386719 243.058594 123.132812 C 244.582031 123.050781 246.191406 122.539062 247.632812 121.945312 C 250.507812 120.757812 250.933594 118.554688 248.648438 116.433594 C 247.800781 115.671875 246.785156 114.90625 245.769531 114.398438 C 243.566406 113.296875 241.28125 112.277344 238.996094 111.347656 C 227.570312 107.019531 215.722656 105.242188 203.617188 106.765625 C 203.277344 106.765625 202.941406 106.683594 202.09375 106.597656 C 203.957031 105.664062 205.5625 105.578125 207.085938 105.496094 C 213.097656 105.070312 219.023438 105.410156 224.945312 106.429688 C 228.585938 107.019531 232.226562 107.785156 235.867188 108.71875 C 241.027344 110.074219 245.851562 112.195312 250.171875 115.839844 C 250 102.019531 249.746094 88.535156 249.578125 74.796875 C 246.359375 76.238281 243.058594 76.152344 239.757812 76.070312 C 234.089844 75.984375 228.332031 75.730469 222.660156 75.644531 C 218.261719 75.390625 214.113281 75.050781 209.710938 73.78125 Z M 103.0625 118.976562 C 98.238281 117.453125 92.820312 119.488281 90.28125 123.726562 C 89.605469 124.828125 89.011719 126.015625 88.417969 127.203125 C 84.949219 134.328125 81.5625 141.449219 78.09375 148.488281 C 75.722656 153.40625 73.351562 158.324219 69.882812 162.566406 C 68.78125 163.921875 67.429688 165.28125 65.988281 166.210938 C 62.601562 168.246094 59.132812 170.113281 55.664062 171.980469 C 52.953125 173.421875 50.160156 174.777344 47.367188 176.21875 C 51.175781 186.394531 52.53125 197.164062 54.902344 207.59375 C 55.070312 207.511719 55.238281 207.511719 55.324219 207.425781 C 55.664062 207.085938 56.085938 206.832031 56.425781 206.492188 C 63.109375 200.558594 69.96875 194.960938 78.261719 191.484375 C 80.886719 190.382812 83.085938 188.515625 84.949219 186.308594 C 88.25 182.324219 92.398438 180.289062 97.476562 179.78125 C 101.371094 179.355469 105.007812 178.339844 108.308594 176.132812 C 109.496094 175.285156 110.679688 174.4375 111.949219 173.675781 C 114.574219 171.980469 116.691406 169.859375 117.875 166.890625 C 118.804688 164.601562 120.328125 162.90625 122.277344 161.464844 C 123.460938 160.53125 124.816406 159.683594 125.914062 158.664062 C 130.148438 154.847656 135.140625 152.898438 140.558594 151.964844 C 143.183594 151.542969 145.804688 151.117188 148.601562 150.695312 C 148.007812 150.015625 147.582031 149.589844 147.246094 149.082031 C 146.90625 148.320312 146.484375 147.554688 146.398438 146.792969 C 146.3125 144.84375 147.414062 143.484375 149.191406 142.722656 C 150.460938 142.214844 151.902344 141.960938 153.171875 141.707031 C 151.730469 140.773438 150.632812 140.347656 148.683594 140.347656 C 144.453125 140.347656 140.304688 140.773438 136.242188 141.960938 C 132.601562 143.0625 129.046875 144.25 125.40625 145.183594 C 123.628906 145.605469 121.769531 145.777344 119.90625 145.777344 C 118.636719 145.859375 118.382812 145.265625 118.636719 143.996094 C 118.890625 142.636719 119.144531 141.28125 119.3125 139.839844 C 119.484375 138.566406 119.566406 137.296875 119.738281 136.109375 C 120.074219 133.480469 121.597656 131.785156 123.96875 130.933594 C 126.085938 130.171875 128.285156 130.003906 130.484375 130.257812 C 132.773438 130.597656 135.058594 131.019531 137.425781 131.273438 C 138.273438 131.359375 139.121094 131.953125 139.796875 131.191406 C 138.613281 127.457031 137.425781 123.8125 136.328125 120.082031 C 134.296875 119.828125 132.347656 119.65625 130.402344 119.316406 C 127.691406 118.808594 124.984375 118.214844 122.359375 117.707031 C 118.296875 116.941406 114.742188 117.960938 111.949219 121.183594 C 111.019531 122.199219 110.257812 123.386719 109.410156 124.492188 C 109.15625 124.828125 108.816406 125.085938 108.5625 125.339844 C 108.480469 125.253906 108.394531 125.085938 108.226562 125 C 109.75 121.863281 112.035156 119.488281 115.164062 117.367188 C 113.980469 117.113281 113.21875 116.859375 112.371094 116.6875 C 108.5625 116.09375 105.601562 117.367188 103.484375 120.675781 C 102.808594 121.691406 102.300781 122.710938 101.707031 123.726562 C 101.285156 124.492188 100.777344 125.167969 99.675781 125.167969 C 100.691406 123.21875 101.878906 121.183594 103.0625 118.976562 Z M 146.992188 98.964844 C 147.074219 98.796875 147.160156 98.625 147.246094 98.542969 C 149.191406 99.21875 151.054688 100.066406 153 100.660156 C 158.925781 102.527344 165.019531 103.375 171.199219 103.800781 C 177.632812 104.222656 183.980469 104.222656 190.242188 102.695312 C 192.273438 102.1875 194.304688 101.425781 196.253906 100.492188 C 197.777344 99.730469 197.863281 98.371094 196.507812 97.269531 C 195.574219 96.507812 194.558594 95.914062 193.542969 95.402344 C 188.042969 92.605469 182.035156 91.757812 176.023438 91.078125 C 169.421875 90.316406 162.820312 90.230469 156.300781 91.078125 C 153 91.503906 149.785156 92.011719 146.820312 93.621094 C 146.566406 93.792969 146.230469 93.792969 145.550781 94.046875 C 146.566406 92.605469 147.753906 92.265625 148.9375 91.84375 C 153.085938 90.402344 157.402344 89.976562 161.71875 89.808594 C 169.253906 89.46875 176.699219 89.890625 184.066406 91.503906 C 187.703125 92.265625 191.34375 93.367188 194.898438 94.640625 C 196.929688 95.320312 198.707031 96.675781 199.046875 99.472656 C 203.109375 91.332031 204.546875 82.515625 208.1875 74.117188 C 205.734375 74.117188 203.617188 74.371094 201.585938 74.035156 C 192.953125 72.675781 184.828125 69.625 177.292969 65.128906 C 174.753906 63.601562 172.382812 61.738281 170.097656 59.871094 C 169 59.023438 168.320312 57.667969 167.476562 56.566406 C 165.445312 59.277344 163.582031 61.90625 161.464844 64.453125 C 154.101562 73.101562 147.753906 82.515625 142.421875 92.691406 C 138.019531 101.171875 136.582031 110.074219 137.933594 119.402344 C 138.867188 126.269531 140.980469 132.886719 146.398438 137.632812 C 146.738281 137.890625 146.820312 138.484375 146.992188 138.992188 C 146.90625 139.078125 146.738281 139.160156 146.652344 139.246094 C 145.976562 138.992188 145.382812 138.738281 144.621094 138.398438 C 144.535156 138.738281 144.453125 139.078125 144.28125 139.5 C 145.042969 139.5 145.804688 139.5 146.484375 139.5 C 149.617188 139.332031 152.492188 139.839844 155.117188 141.703125 C 155.371094 141.875 155.625 141.960938 155.878906 142.042969 C 161.378906 143.570312 166.628906 142.976562 171.621094 140.347656 C 177.207031 137.464844 181.527344 133.140625 185.589844 128.304688 C 188.296875 125 190.582031 121.4375 192.191406 117.453125 C 194.050781 112.449219 196 107.53125 197.945312 102.527344 C 198.117188 102.101562 198.285156 101.59375 198.539062 100.746094 C 196.507812 102.613281 194.390625 103.542969 192.105469 103.800781 C 188.464844 104.308594 184.910156 104.730469 181.273438 104.984375 C 174.5 105.324219 167.8125 104.816406 161.125 103.714844 C 157.148438 103.035156 153.171875 102.1875 149.445312 100.492188 C 148.515625 99.984375 147.753906 99.390625 146.992188 98.964844 Z M 202.769531 156.546875 C 199.046875 157.902344 196.253906 160.53125 193.882812 163.582031 C 192.527344 165.28125 191.34375 167.0625 189.988281 168.757812 C 188.550781 170.621094 186.6875 171.894531 184.402344 172.488281 C 183.558594 172.742188 182.710938 172.996094 181.78125 173.167969 C 178.140625 173.761719 176.277344 175.964844 175.769531 179.609375 C 175.347656 182.664062 174.332031 185.546875 172.890625 188.34375 C 172.128906 189.789062 171.960938 191.566406 171.621094 193.179688 C 171.199219 195.976562 170.945312 198.777344 170.4375 201.488281 C 170.015625 203.863281 169.761719 206.238281 170.269531 208.613281 C 170.691406 210.816406 171.113281 213.023438 171.453125 215.226562 C 172.382812 222.691406 172.382812 229.984375 168.746094 236.765625 C 168.066406 238.039062 167.476562 239.394531 166.882812 240.753906 C 166.714844 241.175781 166.542969 241.601562 166.289062 242.363281 C 167.984375 241.769531 169.421875 241.261719 170.859375 240.835938 C 174.753906 239.648438 176.53125 241.175781 176.363281 245.164062 C 176.277344 246.265625 176.363281 247.367188 176.363281 248.640625 C 177.378906 248.554688 178.054688 248.46875 178.648438 248.386719 C 179.238281 248.300781 179.832031 248.046875 180.425781 247.960938 C 182.203125 247.707031 183.304688 248.554688 183.21875 250.335938 C 183.21875 251.523438 182.878906 252.710938 182.710938 253.898438 C 182.625 254.660156 182.457031 255.421875 182.371094 256.1875 C 182.289062 257.203125 182.710938 257.796875 183.726562 257.96875 C 184.066406 258.050781 184.402344 258.050781 184.742188 258.136719 C 186.351562 258.476562 186.859375 259.238281 186.351562 260.851562 C 186.097656 261.785156 185.757812 262.714844 185.417969 263.648438 C 184.320312 266.53125 185.503906 268.820312 187.113281 271.28125 C 188.128906 268.226562 189.058594 265.515625 189.988281 262.714844 C 191.511719 258.222656 193.375 253.980469 195.914062 249.996094 C 198.707031 245.585938 202.179688 241.855469 205.648438 238.039062 C 208.78125 234.648438 211.65625 231.085938 214.113281 227.183594 C 219.023438 219.382812 219.953125 210.648438 219.613281 201.660156 C 219.53125 199.539062 219.445312 197.417969 219.445312 195.300781 C 219.445312 189.871094 220.546875 184.699219 222.914062 179.867188 C 223.761719 178.167969 224.609375 176.472656 225.285156 174.777344 C 225.792969 173.589844 226.214844 172.402344 226.300781 171.132812 C 226.722656 168.078125 225.117188 166.636719 222.152344 167.144531 C 219.53125 167.570312 217.414062 168.925781 215.46875 170.707031 C 212.84375 173.167969 211.148438 176.132812 210.21875 179.609375 C 209.878906 180.96875 209.457031 182.324219 209.117188 183.679688 C 208.527344 182.15625 207.765625 180.882812 207.933594 179.101562 C 208.355469 174.691406 209.117188 170.367188 210.386719 166.128906 C 210.894531 164.515625 210.386719 163.414062 209.289062 162.480469 C 207.257812 160.53125 205.054688 158.582031 202.769531 156.546875 Z M 313.820312 193.601562 C 311.957031 189.617188 311.449219 185.125 311.621094 180.203125 C 311.789062 176.050781 312.210938 171.894531 311.535156 167.824219 C 310.351562 160.191406 307.132812 153.832031 300.785156 149.421875 C 296.386719 146.367188 292.492188 142.976562 289.445312 138.3125 C 288.765625 138.820312 288.257812 139.332031 287.582031 139.753906 C 286.058594 140.601562 285.71875 141.960938 285.636719 143.65625 C 285.464844 149.335938 286.226562 154.933594 288.175781 160.191406 C 290.035156 165.28125 292.492188 170.113281 297.0625 173.335938 C 297.230469 173.421875 297.230469 173.675781 297.316406 173.84375 C 296.554688 173.84375 295.792969 173.589844 295.285156 173.167969 C 294.269531 172.234375 293.167969 171.300781 292.40625 170.199219 C 288.34375 164.601562 285.804688 158.324219 285.128906 151.457031 C 284.703125 147.554688 284.789062 143.65625 284.703125 139.667969 C 284.621094 137.210938 283.859375 135.089844 281.574219 133.902344 C 279.285156 132.714844 277 132.96875 274.96875 134.667969 C 272.855469 136.363281 271.414062 138.652344 271.078125 141.367188 C 270.0625 148.742188 270.398438 156.121094 272.175781 163.328125 C 273.191406 167.398438 273.699219 171.46875 273.445312 175.625 C 273.277344 180.121094 273.277344 184.613281 273.277344 189.109375 C 273.277344 193.6875 273.785156 198.265625 276.070312 202.335938 C 278.441406 206.492188 279.371094 211.074219 280.21875 215.738281 C 280.726562 218.957031 281.742188 222.097656 282.671875 225.234375 C 283.265625 227.183594 284.367188 228.878906 285.972656 230.152344 C 294.4375 217.179688 303.664062 205.136719 313.820312 193.601562 Z M 186.179688 29.257812 C 184.320312 29.851562 182.796875 30.359375 181.269531 30.699219 C 177.886719 31.464844 174.414062 31.039062 171.03125 30.445312 C 164.933594 29.34375 159.09375 27.222656 153.507812 24.425781 C 148.769531 21.964844 144.199219 19.335938 141.996094 13.910156 C 141.828125 13.996094 141.660156 14.078125 141.574219 14.164062 C 141.234375 14.589844 140.898438 15.097656 140.558594 15.519531 C 135.648438 22.898438 131.753906 30.699219 129.214844 39.265625 C 127.4375 45.03125 126.675781 50.96875 127.269531 56.902344 C 128.371094 68.605469 132.09375 79.460938 137.933594 89.636719 C 138.105469 89.976562 138.441406 90.402344 138.527344 90.738281 C 138.695312 92.097656 139.542969 92.605469 140.644531 92.945312 C 140.8125 92.859375 140.980469 92.773438 140.980469 92.691406 C 141.234375 92.179688 141.574219 91.757812 141.828125 91.25 C 146.820312 81.074219 153.507812 72.082031 160.789062 63.519531 C 163.15625 60.804688 165.445312 57.921875 167.390625 54.867188 C 168.574219 53.003906 169.929688 51.902344 172.046875 51.984375 C 174.839844 52.070312 177.632812 52.410156 180.425781 52.664062 C 180.933594 52.75 181.441406 52.75 182.035156 52.832031 C 185.164062 45.285156 185.757812 37.316406 186.179688 29.257812 Z M 112.796875 102.78125 C 116.519531 102.78125 119.820312 102.78125 123.121094 102.78125 C 123.039062 101.339844 123.039062 100.152344 122.953125 98.964844 C 123.121094 98.964844 123.292969 98.878906 123.460938 98.878906 C 123.714844 100.066406 124.054688 101.339844 124.308594 102.613281 C 125.832031 102.441406 127.183594 102.273438 128.539062 102.101562 C 128.199219 100.320312 128.03125 98.796875 129.132812 97.269531 C 129.722656 98.878906 128.539062 100.578125 130.230469 102.019531 C 132.347656 101.339844 134.550781 100.660156 136.75 99.898438 C 137.257812 99.730469 137.851562 99.390625 138.019531 98.964844 C 138.78125 97.523438 139.375 95.914062 140.050781 94.300781 C 135.648438 92.011719 131.417969 89.808594 127.183594 87.773438 C 124.136719 86.246094 120.835938 86.074219 117.535156 86.839844 C 111.527344 88.195312 105.6875 90.402344 99.929688 92.605469 C 93.667969 94.980469 87.488281 97.4375 80.886719 98.625 C 72.167969 100.152344 64.125 103.460938 56.507812 107.871094 C 55.492188 108.464844 54.902344 109.140625 54.816406 110.414062 C 54.394531 117.027344 55.832031 123.21875 58.792969 129.070312 C 59.894531 131.105469 61.417969 132.714844 63.195312 134.328125 C 63.871094 133.734375 64.464844 133.226562 65.058594 132.800781 C 68.105469 130.425781 71.152344 127.96875 74.285156 125.675781 C 78.683594 122.539062 83.511719 120.421875 88.925781 120.082031 C 91.042969 119.996094 92.820312 119.488281 94.683594 118.382812 C 95.613281 117.875 96.796875 117.621094 97.8125 117.621094 C 99.507812 117.535156 101.199219 117.875 102.894531 117.875 C 103.484375 117.875 104.164062 117.875 104.585938 117.621094 C 108.308594 114.90625 112.289062 115.078125 116.351562 116.605469 C 116.859375 116.773438 117.367188 116.773438 117.960938 116.859375 C 120.160156 117.027344 122.359375 117.113281 124.476562 117.453125 C 128.285156 117.960938 132.007812 118.640625 136.074219 119.234375 C 134.886719 113.210938 135.820312 107.359375 137.089844 101.679688 C 132.601562 102.355469 128.371094 103.121094 124.136719 103.714844 C 121.851562 104.054688 119.484375 104.136719 117.113281 104.222656 C 115.84375 104.054688 114.320312 103.96875 112.796875 102.78125 Z M 101.539062 180.96875 C 102.046875 182.15625 102.386719 183.171875 102.808594 184.105469 C 104.246094 186.988281 106.449219 189.195312 109.070312 190.972656 C 113.21875 193.773438 117.453125 196.65625 121.769531 199.199219 C 125.152344 201.152344 128.960938 201.914062 132.941406 201.40625 C 135.648438 201.066406 138.105469 200.132812 140.136719 198.183594 C 142.675781 195.722656 143.183594 192.753906 141.660156 189.53125 C 141.234375 188.683594 140.726562 187.753906 140.136719 187.074219 C 137.933594 184.699219 135.648438 182.324219 133.363281 180.035156 C 132.6875 179.355469 131.753906 178.761719 130.992188 178.167969 C 128.285156 180.289062 127.015625 180.375 125.660156 178.761719 C 125.746094 178.679688 125.832031 178.507812 126 178.507812 C 126.167969 178.425781 126.421875 178.425781 126.59375 178.425781 C 128.539062 178.761719 129.554688 177.746094 130.316406 176.132812 C 130.824219 175.03125 131.246094 173.929688 131.585938 172.828125 C 133.703125 165.789062 137.679688 159.851562 141.828125 153.917969 C 142.082031 153.578125 142.335938 153.152344 142.675781 152.644531 C 141.488281 152.8125 140.558594 152.898438 139.628906 152.984375 C 138.527344 153.070312 137.851562 153.660156 137.425781 154.765625 C 135.648438 158.75 133.871094 162.652344 131.839844 166.46875 C 130.570312 168.839844 129.132812 171.132812 127.609375 173.421875 C 127.015625 174.351562 126.253906 175.371094 124.730469 175.710938 C 124.984375 175.03125 125.152344 174.523438 125.40625 174.015625 C 123.375 172.828125 121.175781 172.234375 118.976562 171.726562 C 117.621094 171.386719 116.691406 171.726562 115.671875 172.65625 C 112.289062 175.878906 108.5625 178.679688 104.078125 180.035156 C 103.316406 180.460938 102.554688 180.714844 101.539062 180.96875 Z M 177.292969 29.429688 C 178.648438 29.257812 180.59375 29.175781 182.542969 28.664062 C 186.351562 27.648438 187.28125 25.105469 184.910156 21.882812 C 183.726562 20.269531 182.289062 18.742188 180.679688 17.640625 C 172.46875 11.875 163.328125 8.90625 153.507812 8.398438 C 151.222656 8.3125 148.855469 8.652344 146.652344 9.414062 C 143.265625 10.519531 142.589844 12.976562 144.789062 15.945312 C 146.058594 17.554688 147.582031 19.082031 149.191406 20.269531 C 157.402344 26.375 166.714844 28.917969 177.292969 29.429688 Z M 324.230469 48.253906 C 324.148438 47.066406 323.386719 46.386719 322.539062 45.964844 C 320.253906 44.609375 317.96875 43.082031 315.515625 42.148438 C 304.765625 37.824219 293.589844 35.28125 282.082031 34.769531 C 279.878906 34.6875 277.679688 35.109375 275.5625 35.449219 C 274.800781 35.535156 274.207031 35.875 273.953125 36.804688 C 273.699219 37.824219 274.292969 38.332031 274.96875 38.671875 C 277.507812 40.113281 280.050781 41.808594 282.757812 42.910156 C 291.304688 46.472656 300.277344 48.507812 309.503906 49.609375 C 313.230469 50.121094 317.039062 50.289062 320.847656 49.695312 C 322.03125 49.441406 323.300781 49.273438 324.230469 48.253906 Z M 203.957031 72.59375 C 204.71875 72.59375 205.734375 72.507812 206.75 72.421875 C 207.085938 72.421875 207.425781 72.335938 207.765625 72.253906 C 209.542969 71.746094 210.132812 70.300781 209.035156 68.859375 C 207.847656 67.335938 206.578125 65.808594 205.054688 64.707031 C 196.421875 58.429688 186.773438 54.613281 176.191406 53.171875 C 174.414062 52.917969 172.46875 53.089844 170.691406 53.425781 C 168.660156 53.851562 168.152344 55.292969 169.421875 56.988281 C 170.523438 58.429688 171.792969 59.789062 173.230469 60.804688 C 176.109375 62.753906 179.070312 64.707031 182.203125 66.230469 C 188.972656 69.625 196.082031 72.082031 203.957031 72.59375 Z M 268.960938 198.691406 C 267.859375 199.710938 266.761719 199.539062 265.660156 199.285156 C 264.390625 198.945312 264.136719 198.351562 264.390625 196.996094 C 264.644531 195.894531 264.8125 194.875 265.066406 193.601562 C 262.949219 194.113281 261.425781 193.347656 259.988281 192.417969 C 259.394531 192.078125 258.71875 191.484375 258.210938 191.566406 C 256.433594 191.824219 254.488281 191.90625 252.792969 192.671875 C 249.238281 194.195312 247.800781 198.351562 249.324219 202.082031 C 250 203.863281 251.101562 205.304688 252.710938 206.238281 C 254.234375 207.085938 255.757812 207.851562 257.363281 208.273438 C 261.511719 209.460938 265.828125 209.886719 270.230469 209.886719 C 272.769531 209.886719 275.308594 209.628906 277.933594 208.527344 C 277.085938 206.832031 276.324219 205.136719 275.476562 203.441406 C 274.714844 201.828125 273.785156 200.21875 273.191406 198.523438 C 272.601562 196.824219 272.175781 195.042969 271.667969 192.925781 C 270.90625 194.195312 271.5 195.554688 269.976562 196.402344 C 270.570312 192.246094 271.078125 188.515625 271.585938 184.53125 C 270.316406 185.378906 269.214844 186.054688 268.199219 186.820312 C 268.875 188.683594 268.875 188.9375 268.03125 190.550781 C 267.691406 191.230469 267.097656 191.738281 266.675781 192.417969 C 266.421875 192.839844 266.082031 193.179688 266 193.601562 C 265.746094 195.128906 265.574219 196.65625 265.320312 198.4375 C 266.507812 198.351562 267.691406 198.523438 268.960938 198.691406 Z M 225.707031 221.925781 C 224.523438 222.265625 223.761719 222.519531 222.578125 222.859375 C 223.167969 222.011719 223.421875 221.671875 223.59375 221.417969 C 222.578125 219.636719 221.5625 217.855469 220.460938 215.992188 C 219.277344 221.332031 217.328125 226.167969 214.113281 231 C 217.5 230.832031 220.460938 230.914062 223.339844 230.578125 C 225.199219 230.40625 227.148438 229.898438 228.925781 229.136719 C 233.242188 227.269531 235.441406 223.199219 234.679688 218.621094 C 233.917969 214.378906 231.804688 211.074219 228.332031 208.699219 C 226.214844 207.339844 223.929688 206.492188 221.390625 205.898438 C 221.308594 209.628906 220.375 213.363281 222.492188 216.753906 C 223.085938 217.773438 223.675781 218.789062 224.355469 219.722656 C 224.691406 220.484375 225.03125 220.992188 225.707031 221.925781 Z M 52.785156 213.53125 C 53.460938 211.410156 53.460938 209.292969 53.125 207.171875 C 52.109375 200.980469 51.09375 194.707031 49.90625 188.515625 C 48.976562 183.34375 47.28125 178.425781 45.335938 173.503906 C 43.472656 175.285156 41.613281 176.898438 39.835938 178.59375 C 41.949219 190.464844 43.644531 202.507812 47.113281 214.125 C 48.976562 213.957031 50.753906 213.785156 52.785156 213.53125 Z M 210.980469 72.761719 C 211.320312 72.847656 211.910156 73.101562 212.503906 73.1875 C 214.875 73.523438 217.246094 73.949219 219.613281 74.035156 C 226.640625 74.203125 233.582031 74.203125 240.605469 74.203125 C 242.296875 74.203125 244.074219 74.117188 245.769531 73.949219 C 246.953125 73.863281 248.222656 73.78125 249.15625 72.507812 C 248.816406 71.320312 248.054688 70.558594 247.039062 70.132812 C 245.34375 69.371094 243.652344 68.605469 241.875 68.183594 C 233.664062 66.402344 225.285156 65.894531 216.90625 66.910156 C 214.707031 67.164062 212.503906 67.503906 210.558594 67.84375 C 210.640625 69.539062 210.8125 71.066406 210.980469 72.761719 Z M 44.320312 113.976562 C 44.152344 124.746094 46.4375 134.328125 55.15625 141.28125 C 57.441406 139.246094 59.640625 137.210938 61.925781 135.175781 C 55.578125 127.710938 53.460938 118.976562 53.800781 109.226562 C 50.667969 110.835938 47.621094 112.363281 44.320312 113.976562 Z M 269.46875 146.453125 C 269.890625 143.910156 270.316406 141.367188 270.738281 138.820312 C 270.738281 138.566406 270.738281 138.226562 270.652344 137.972656 C 269.976562 136.449219 269.214844 135.003906 268.453125 133.480469 C 263.628906 134.582031 259.480469 136.363281 256.179688 139.839844 C 255.332031 140.773438 254.570312 141.960938 254.0625 143.148438 C 253.21875 145.351562 254.316406 146.878906 256.601562 146.960938 C 257.28125 146.960938 257.957031 147.046875 258.632812 146.960938 C 262.1875 146.367188 265.660156 145.945312 269.300781 146.453125 C 269.300781 146.539062 269.382812 146.539062 269.46875 146.453125 Z M 261.089844 167.144531 C 261.171875 166.550781 261.171875 166.042969 261.34375 165.617188 C 261.851562 163.921875 263.035156 163.160156 264.730469 163.246094 C 266.929688 163.414062 269.890625 166.210938 270.144531 168.417969 C 270.230469 169.011719 269.890625 169.605469 269.636719 170.199219 C 269.214844 171.046875 268.707031 171.808594 268.113281 172.828125 C 269.722656 172.488281 270.398438 172.148438 270.90625 170.960938 C 271.839844 168.671875 271.839844 166.382812 270.398438 164.261719 C 269.300781 162.566406 268.285156 160.871094 267.351562 159.089844 C 267.097656 158.582031 266.929688 157.988281 267.777344 157.648438 C 268.453125 159.683594 269.300781 161.71875 270.824219 163.074219 C 270.316406 158.15625 269.890625 153.238281 269.300781 147.8125 C 266.335938 150.355469 263.542969 152.476562 260.917969 154.933594 C 256.347656 159.175781 256.347656 162.566406 260.664062 167.144531 C 260.664062 166.976562 260.75 166.976562 261.089844 167.144531 Z M 117.621094 170.621094 C 120.582031 171.554688 123.292969 172.402344 126.167969 173.335938 C 128.878906 170.28125 130.570312 166.550781 132.179688 162.652344 C 129.976562 161.972656 128.117188 161.292969 126.085938 160.785156 C 125.660156 160.699219 124.898438 160.953125 124.476562 161.292969 C 121.261719 163.667969 119.144531 166.976562 117.621094 170.621094 Z M 260.242188 179.695312 C 260.242188 179.355469 260.328125 179.101562 260.328125 178.847656 C 259.902344 176.472656 262.78125 175.03125 264.558594 176.050781 C 265.574219 176.644531 266.589844 177.40625 267.605469 178.167969 C 268.875 179.101562 268.960938 180.375 268.539062 181.730469 C 268.285156 182.664062 267.859375 183.511719 267.4375 184.699219 C 269.214844 184.191406 270.144531 183.257812 270.570312 181.902344 C 271.078125 180.203125 270.398438 178.933594 269.300781 177.746094 C 266.253906 174.4375 263.207031 171.132812 260.15625 167.738281 C 259.820312 167.316406 259.648438 166.804688 259.226562 166.210938 C 256.347656 172.148438 256.855469 177.238281 260.242188 179.695312 Z M 138.949219 161.039062 C 139.035156 161.210938 139.121094 161.378906 139.289062 161.546875 C 141.320312 161.039062 143.4375 160.699219 145.46875 160.105469 C 147.5 159.511719 149.191406 158.410156 150.632812 156.800781 C 151.816406 155.441406 152.664062 153.917969 152.664062 151.796875 C 150.96875 151.964844 149.445312 152.21875 147.835938 152.21875 C 145.296875 152.21875 143.351562 152.898438 142.503906 155.613281 C 142.25 156.460938 141.574219 157.140625 141.066406 157.902344 C 140.21875 158.917969 139.542969 160.023438 138.949219 161.039062 Z M 132.179688 137.210938 C 128.792969 137.296875 125.578125 137.464844 122.445312 138.652344 C 121.34375 139.078125 120.753906 139.667969 120.753906 140.941406 C 120.753906 142.214844 120.328125 143.484375 120.074219 144.757812 C 122.445312 144.925781 127.777344 143.910156 129.722656 142.976562 C 130.0625 142.808594 130.402344 142.636719 130.484375 142.382812 C 131.246094 140.773438 132.179688 139.160156 132.179688 137.210938 Z M 152.410156 150.101562 C 153.253906 149.929688 154.1875 149.929688 155.03125 149.675781 C 157.488281 148.914062 158.078125 146.792969 156.386719 144.84375 C 154.355469 142.382812 150.292969 142.214844 148.089844 144.417969 C 146.652344 145.859375 146.820312 147.894531 148.515625 149.082031 C 149.699219 149.847656 151.054688 150.183594 152.410156 150.101562 Z M 132.261719 136.449219 C 133.027344 135.175781 133.109375 133.648438 133.28125 132.039062 C 131.417969 131.867188 129.640625 131.699219 127.863281 131.613281 C 126.847656 131.613281 125.832031 131.699219 124.816406 131.953125 C 121.683594 132.546875 120.074219 135.261719 121.175781 138.144531 C 124.644531 136.703125 128.371094 136.023438 132.261719 136.449219 Z M 266.929688 172.828125 C 267.523438 171.808594 267.945312 170.875 268.539062 170.113281 C 269.554688 168.671875 269.722656 168.332031 268.707031 166.976562 C 267.859375 165.875 266.761719 165.023438 265.660156 164.261719 C 264.8125 163.667969 263.796875 163.753906 263.035156 164.515625 C 262.1875 165.28125 261.679688 167.992188 262.359375 168.839844 C 263.542969 170.453125 264.8125 172.148438 266.929688 172.828125 Z M 259.902344 190.71875 C 259.734375 190.042969 259.734375 189.871094 259.648438 189.703125 C 259.226562 188.429688 259.226562 187.160156 260.410156 186.308594 C 261.597656 185.378906 262.867188 185.71875 264.050781 186.566406 C 264.984375 187.242188 265.914062 187.835938 267.015625 188.683594 C 266.761719 187.414062 266 186.734375 265.066406 186.308594 C 262.949219 185.378906 261.257812 183.765625 259.734375 182.070312 C 258.972656 181.222656 258.296875 180.375 257.617188 179.527344 C 255.585938 180.289062 255.078125 181.054688 255.503906 183.425781 C 256.09375 186.140625 257.535156 188.429688 259.902344 190.71875 Z M 266.082031 184.699219 C 266.675781 183.597656 267.351562 182.664062 267.605469 181.644531 C 267.777344 180.882812 267.777344 179.78125 267.351562 179.273438 C 266.421875 178.253906 265.152344 177.40625 263.882812 176.726562 C 263.121094 176.304688 262.105469 176.304688 261.425781 177.152344 C 260.75 178 260.664062 178.933594 261.003906 179.867188 C 261.851562 182.15625 263.542969 183.679688 266.082031 184.699219 Z M 132.941406 161.125 C 134.125 158.664062 135.226562 156.460938 136.410156 154 C 132.773438 155.019531 129.554688 156.460938 126.847656 159.429688 C 128.960938 160.023438 130.910156 160.617188 132.941406 161.125 Z M 138.613281 137.378906 C 140.050781 137.804688 141.234375 138.058594 142.25 138.484375 C 143.265625 138.90625 143.773438 138.566406 144.113281 137.632812 C 140.980469 133.480469 140.980469 133.480469 139.710938 133.226562 C 139.375 134.496094 139.035156 135.855469 138.613281 137.378906 Z M 211.996094 166.042969 C 211.828125 166.042969 211.742188 166.042969 211.574219 166.128906 C 210.894531 169.519531 210.132812 172.910156 209.457031 176.21875 C 209.542969 176.21875 209.625 176.304688 209.796875 176.304688 C 211.066406 174.269531 212.335938 172.316406 213.605469 170.367188 C 213.011719 168.925781 212.503906 167.484375 211.996094 166.042969 Z M 264.050781 191.484375 C 265.746094 189.277344 265.746094 189.277344 263.882812 187.582031 C 263.714844 187.414062 263.628906 187.328125 263.457031 187.160156 C 262.695312 186.394531 261.933594 186.308594 261.089844 186.902344 C 260.328125 187.414062 260.242188 188.601562 260.75 189.53125 C 261.425781 190.804688 262.613281 191.398438 264.050781 191.484375 Z M 269.722656 176.21875 C 270.316406 176.898438 270.992188 177.660156 271.921875 178.59375 C 272.09375 175.796875 272.261719 173.335938 272.429688 170.539062 C 270.992188 172.488281 269.554688 173.929688 269.722656 176.21875 Z M 269.722656 176.21875 " fill-opacity="1" fill-rule="nonzero"/></g><path fill="#000000" d="M 338.960938 232.613281 C 338.027344 233.035156 337.097656 233.542969 336.25 233.96875 C 322.199219 241.175781 311.789062 252.117188 304.847656 266.53125 C 302.308594 271.789062 301.378906 277.472656 300.871094 283.238281 C 300.449219 287.816406 300.195312 292.3125 298.839844 296.722656 C 297.738281 300.199219 296.214844 303.335938 293.929688 306.132812 C 293.675781 306.390625 293.507812 306.644531 293.253906 306.898438 C 293.167969 306.980469 293 306.980469 292.746094 307.066406 C 292.492188 306.21875 293.082031 305.625 293.507812 305.03125 C 296.128906 300.707031 297.992188 296.042969 298.671875 290.953125 C 299.179688 287.5625 299.515625 284.171875 299.855469 280.695312 C 300.871094 271.789062 304.339844 263.820312 309.417969 256.609375 C 315.515625 248.046875 322.792969 240.753906 331.765625 235.410156 C 334.050781 234.054688 336.335938 232.78125 338.960938 232.613281 Z M 338.960938 232.613281 " fill-opacity="1" fill-rule="nonzero"/><path fill="#000000" d="M 300.195312 305.625 C 301.039062 306.21875 301.972656 306.644531 302.734375 307.320312 C 307.726562 311.390625 313.484375 313.765625 319.660156 315.039062 C 324.484375 316.054688 329.226562 317.496094 333.457031 320.210938 C 339.128906 323.941406 343.785156 328.777344 347.847656 334.203125 C 348.015625 334.375 348.015625 334.628906 347.847656 335.050781 C 347.339844 334.542969 346.832031 334.035156 346.324219 333.523438 C 343.785156 330.980469 341.328125 328.351562 338.621094 325.894531 C 333.375 320.972656 327.109375 318.175781 320.167969 316.648438 C 316.867188 315.886719 313.566406 314.867188 310.351562 313.683594 C 306.542969 312.238281 303.324219 309.867188 300.53125 306.898438 C 300.277344 306.644531 300.023438 306.21875 299.769531 305.964844 C 299.941406 305.878906 300.023438 305.710938 300.195312 305.625 Z M 300.195312 305.625 " fill-opacity="1" fill-rule="nonzero"/><path fill="#000000" d="M 339.636719 301.300781 C 339.890625 301.894531 340.144531 302.488281 340.230469 303.167969 C 341.582031 310.96875 345.140625 317.921875 348.949219 324.621094 C 350.980469 328.265625 353.347656 331.746094 355.71875 335.136719 C 359.1875 340.140625 362.238281 345.398438 363.589844 351.417969 C 363.929688 352.859375 364.097656 354.386719 364.351562 355.914062 C 364.183594 355.914062 364.015625 355.996094 363.929688 355.996094 C 363.761719 355.488281 363.507812 354.894531 363.421875 354.386719 C 362.152344 348.28125 359.613281 342.851562 356.058594 337.851562 C 351.0625 330.726562 346.238281 323.433594 342.515625 315.460938 C 340.992188 312.238281 339.722656 308.847656 339.214844 305.285156 C 339.042969 304.015625 339.042969 302.65625 338.960938 301.300781 C 339.296875 301.386719 339.46875 301.300781 339.636719 301.300781 Z M 339.636719 301.300781 " fill-opacity="1" fill-rule="nonzero"/><path fill="#000000" d="M 291.898438 292.734375 C 291.898438 292.988281 291.984375 293.328125 291.984375 293.582031 C 291.8125 296.042969 291.476562 298.503906 291.476562 300.875 C 291.558594 304.4375 290.207031 307.152344 287.414062 309.101562 C 286.988281 309.355469 286.652344 309.695312 286.226562 309.949219 C 286.226562 309.949219 286.144531 309.949219 285.71875 309.867188 C 286.3125 309.101562 286.652344 308.425781 287.242188 307.914062 C 289.445312 306.050781 290.460938 303.675781 290.375 300.707031 C 290.375 298.671875 290.628906 296.636719 290.796875 294.601562 C 290.882812 293.921875 291.222656 293.246094 291.390625 292.566406 C 291.644531 292.734375 291.8125 292.734375 291.898438 292.734375 Z M 291.898438 292.734375 " fill-opacity="1" fill-rule="nonzero"/><path fill="#000000" d="M 334.21875 226.167969 C 333.457031 229.050781 330.496094 231.765625 327.023438 232.867188 C 329.648438 231 332.273438 229.050781 334.21875 226.167969 Z M 334.21875 226.167969 " fill-opacity="1" fill-rule="nonzero"/><path fill="#000000" d="M 318.054688 99.136719 C 317.882812 100.40625 316.953125 101 316.023438 101.59375 C 313.652344 103.121094 310.941406 103.800781 308.234375 104.136719 C 299.515625 105.242188 290.96875 104.730469 282.417969 102.78125 C 277 101.507812 271.585938 100.320312 266.167969 98.964844 C 263.796875 98.371094 261.425781 97.523438 259.140625 96.507812 C 257.703125 95.828125 256.265625 94.808594 255.164062 93.621094 C 252.625 90.992188 252.792969 87.515625 255.585938 85.058594 C 256.941406 83.957031 258.632812 83.023438 260.242188 82.515625 C 265.152344 80.988281 270.144531 81.496094 275.140625 82.175781 C 284.535156 83.53125 293.421875 86.414062 302.5625 88.957031 C 306.796875 90.144531 311.113281 91.078125 315.34375 92.265625 C 316.359375 92.519531 317.292969 93.027344 318.308594 93.453125 C 318.308594 93.621094 318.222656 93.707031 318.222656 93.878906 C 317.882812 93.878906 317.460938 94.046875 317.121094 93.878906 C 309.757812 91.925781 302.394531 89.976562 295.03125 88.109375 C 290.714844 87.007812 286.398438 85.820312 281.996094 84.972656 C 277.847656 84.125 273.699219 83.617188 269.554688 83.191406 C 266.507812 82.851562 263.375 83.109375 260.328125 83.957031 C 258.71875 84.378906 257.195312 85.058594 256.011719 86.328125 C 254.234375 88.109375 253.980469 90.402344 255.671875 92.351562 C 256.601562 93.453125 257.871094 94.300781 259.058594 94.980469 C 261.933594 96.589844 265.066406 97.269531 268.285156 97.949219 C 274.886719 99.390625 281.402344 100.914062 288.003906 102.101562 C 295.03125 103.375 302.054688 103.460938 309.164062 102.355469 C 312.382812 101.765625 315.175781 100.578125 318.054688 99.136719 Z M 318.054688 99.136719 " fill-opacity="1" fill-rule="nonzero"/><path fill="#000000" d="M 277.253906 146.285156 C 276.410156 146.285156 275.648438 146.285156 274.800781 146.285156 C 273.363281 146.199219 272.769531 145.605469 272.769531 144.25 C 272.769531 141.449219 273.53125 138.820312 275.308594 136.703125 C 277.847656 133.648438 281.742188 134.414062 282.757812 138.3125 C 283.179688 140.007812 283.179688 141.875 282.925781 143.65625 C 282.757812 145.351562 281.488281 146.199219 279.710938 146.285156 C 278.949219 146.285156 278.101562 146.285156 277.253906 146.285156 Z M 273.785156 145.265625 C 274.714844 145.265625 275.476562 145.351562 276.238281 145.265625 C 277.339844 145.183594 278.441406 145.011719 279.457031 144.925781 C 280.980469 144.757812 281.742188 144.25 281.996094 142.808594 C 282.335938 141.113281 282.25 139.414062 281.488281 137.890625 C 280.558594 135.769531 277.933594 135.175781 276.410156 137.039062 C 274.714844 139.246094 273.191406 141.789062 273.785156 145.265625 Z M 273.785156 145.265625 " fill-opacity="1" fill-rule="nonzero"/><path fill="#000000" d="M 293.335938 149.675781 C 291.390625 150.777344 289.527344 151.882812 287.582031 152.984375 C 288.34375 151.03125 291.222656 149.421875 293.335938 149.675781 Z M 293.335938 149.675781 " fill-opacity="1" fill-rule="nonzero"/><path fill="#000000" d="M 298.925781 162.734375 C 297.148438 163.667969 295.367188 164.601562 293.589844 165.535156 C 294.015625 164.007812 296.128906 162.820312 298.925781 162.734375 Z M 298.925781 162.734375 " fill-opacity="1" fill-rule="nonzero"/><path fill="#000000" d="M 165.019531 52.664062 C 162.480469 52.410156 159.855469 52.070312 157.316406 51.984375 C 149.953125 51.730469 142.84375 52.75 135.820312 55.125 C 134.296875 55.632812 132.601562 56.054688 131.839844 57.921875 C 132.519531 59.109375 133.617188 59.363281 134.804688 59.617188 C 138.1875 60.550781 141.742188 60.71875 145.214844 60.550781 C 149.953125 60.296875 154.609375 59.703125 159.347656 59.277344 C 159.6875 59.277344 160.027344 59.277344 160.449219 59.53125 C 160.109375 59.703125 159.773438 60.042969 159.347656 60.125 C 153.761719 61.824219 148.007812 62.246094 142.25 61.992188 C 139.628906 61.90625 137.089844 61.398438 134.550781 60.972656 C 133.535156 60.804688 132.601562 60.296875 131.753906 59.703125 C 130.316406 58.769531 130.148438 57.328125 131.332031 56.140625 C 132.179688 55.378906 133.195312 54.699219 134.210938 54.191406 C 137.257812 52.75 140.644531 52.070312 143.945312 51.644531 C 149.445312 50.96875 155.03125 50.714844 160.617188 51.222656 C 162.140625 51.390625 163.664062 51.730469 165.105469 52.070312 C 165.105469 52.324219 165.019531 52.496094 165.019531 52.664062 Z M 165.019531 52.664062 " fill-opacity="1" fill-rule="nonzero"/><path fill="#000000" d="M 117.960938 179.609375 C 119.484375 182.15625 120.753906 184.445312 123.292969 185.292969 C 126.085938 186.308594 128.03125 184.273438 130.402344 183.171875 C 129.554688 185.207031 127.355469 186.648438 125.238281 186.734375 C 122.359375 186.902344 118.214844 183.34375 117.960938 179.609375 Z M 117.960938 179.609375 " fill-opacity="1" fill-rule="nonzero"/><path fill="#000000" d="M 271.160156 202.335938 C 268.792969 203.863281 266 203.355469 263.714844 201.066406 C 265.238281 201.574219 266.335938 202.082031 267.523438 202.253906 C 268.707031 202.507812 269.976562 202.335938 271.160156 202.335938 Z M 271.160156 202.335938 " fill-opacity="1" fill-rule="nonzero"/><path fill="#000000" d="M 56.507812 132.121094 C 56.507812 133.734375 55.238281 135.003906 53.632812 135.003906 C 51.9375 135.003906 50.753906 133.734375 50.753906 131.953125 C 50.839844 130.339844 52.109375 129.070312 53.714844 129.15625 C 55.324219 129.15625 56.507812 130.425781 56.507812 132.121094 Z M 53.714844 133.648438 C 54.648438 133.648438 55.410156 132.886719 55.410156 131.953125 C 55.410156 130.933594 54.5625 130.085938 53.546875 130.171875 C 52.617188 130.171875 51.769531 131.191406 51.855469 132.121094 C 51.855469 132.96875 52.785156 133.648438 53.714844 133.648438 Z M 53.714844 133.648438 " fill-opacity="1" fill-rule="nonzero"/><path fill="#000000" d="M 53.378906 124.574219 C 53.292969 126.269531 52.109375 127.375 50.414062 127.375 C 48.804688 127.375 47.453125 126.015625 47.535156 124.492188 C 47.535156 122.964844 49.144531 121.351562 50.667969 121.4375 C 52.191406 121.523438 53.460938 122.878906 53.378906 124.574219 Z M 52.445312 124.574219 C 52.445312 123.386719 51.515625 122.539062 50.328125 122.539062 C 49.144531 122.539062 48.382812 123.386719 48.382812 124.492188 C 48.382812 125.59375 49.398438 126.695312 50.414062 126.695312 C 51.601562 126.695312 52.53125 125.761719 52.445312 124.574219 Z M 52.445312 124.574219 " fill-opacity="1" fill-rule="nonzero"/><path fill="#000000" d="M 46.859375 116.859375 C 46.859375 115.417969 48.042969 114.230469 49.484375 114.144531 C 51.007812 114.058594 52.191406 115.332031 52.191406 116.941406 C 52.191406 118.46875 51.09375 119.65625 49.652344 119.65625 C 48.214844 119.742188 46.859375 118.382812 46.859375 116.859375 Z M 49.484375 115.078125 C 48.636719 115.078125 47.789062 116.011719 47.789062 116.859375 C 47.789062 117.792969 48.722656 118.722656 49.652344 118.722656 C 50.585938 118.640625 51.261719 117.875 51.261719 116.941406 C 51.261719 115.925781 50.414062 115.078125 49.484375 115.078125 Z M 49.484375 115.078125 " fill-opacity="1" fill-rule="nonzero"/></svg>